<?xml version="1.0" standalone="no"?>
<!DOCTYPE svg PUBLIC "-//W3C//DTD SVG 1.1//EN" "http://www.w3.org/Graphics/SVG/1.1/DTD/svg11.dtd" >
<svg xmlns="http://www.w3.org/2000/svg" xmlns:xlink="http://www.w3.org/1999/xlink" version="1.1">
<metadata>
Created by FontForge 20200427 at Mon Jan 27 15:54:54 2020
 By www
Copyright (c) 2020 by Maciej Poczyn'ski. All rights reserved.
</metadata>
<defs>
<font id="Iskry-Regular" horiz-adv-x="636" >
  <font-face 
    font-family="Iskry Regular"
    font-weight="400"
    font-stretch="normal"
    units-per-em="1000"
    panose-1="0 0 5 0 0 0 0 0 0 0"
    ascent="800"
    descent="-200"
    x-height="565"
    cap-height="695"
    bbox="-478 -211 1199 1122"
    underline-thickness="50"
    underline-position="-100"
    unicode-range="U+000D-FB02"
  />
<missing-glyph horiz-adv-x="517" 
d="M30 325q0 42 13.5 79.5t39 65.5t61 44.5t80.5 16.5q20 0 43.5 -3t40.5 -9l-14 -91q-25 9 -40.5 11.5t-27.5 2.5q-51 0 -77 -32.5t-26 -81.5q0 -47 25.5 -80t77.5 -33q19 0 35 3.5t30 8.5l17 -88q-14 -8 -40 -11.5t-49 -3.5q-45 0 -80 16t-59.5 43.5t-37 64t-12.5 77.5z
M361 423q0 26 18.5 45t44.5 19t44.5 -19t18.5 -45q0 -24 -18.5 -43.5t-44.5 -19.5t-44.5 19.5t-18.5 43.5zM361 218q0 26 18.5 44.5t44.5 18.5t44.5 -18.5t18.5 -44.5t-18.5 -44.5t-44.5 -18.5t-44.5 18.5t-18.5 44.5z" />
    <glyph glyph-name="f_f" unicode="ff" horiz-adv-x="767" 
d="M10 554v11h102v48q0 47 14 80.5t38.5 55.5t58 32t72.5 10q37 0 65.5 -7t49.5 -19l-4 -122q-6 31 -14 55.5t-21 42t-32 27t-46 9.5q-22 0 -41.5 -7.5t-34 -24t-23 -44t-8.5 -66.5v-70h291v48q0 47 14 80.5t38.5 55.5t58 32t72.5 10q42 0 72.5 -9t52.5 -23l-4 -122
q-14 69 -41 104.5t-80 35.5q-48 0 -78.5 -31.5t-30.5 -110.5v-70h206v-11h-206v-467q0 -21 2.5 -35.5t8.5 -24.5t16 -16t25 -11h-178q16 5 26 11t16 15.5t8 24.5t2 36v467h-291v-467q0 -21 2.5 -35.5t8.5 -24.5t16 -16t25 -11h-178q16 5 26 11t16 15.5t8 24.5t2 36v467h-102
z" />
    <glyph glyph-name="fi.1" unicode="fi" horiz-adv-x="579" 
d="M10 565h102v48q0 47 13.5 80.5t38.5 55.5t60.5 32t78.5 10q19 0 42 -2.5t47.5 -8t49 -15t46.5 -24.5l-24 -102q-29 75 -70.5 106.5t-94.5 31.5q-24 0 -44.5 -6.5t-36 -22.5t-24 -42.5t-8.5 -65.5v-75h217q53 0 98 6v-484q0 -21 2.5 -35.5t8.5 -24.5t16 -16t25 -11h-178
q16 5 26 11t16 15.5t8 24.5t2 36v369q0 52 -8 75t-33 23h-200v-467q0 -21 2.5 -35.5t8.5 -24.5t16 -16t25 -11h-178q16 5 26 11t16 15.5t8 24.5t2 36v467h-102v11z" />
    <glyph glyph-name="fl.1" unicode="fl" horiz-adv-x="579" 
d="M10 554v11h102v48q0 47 15 80.5t41.5 55.5t61 32t73.5 10q44 0 74 -13t52 -30l72 9v-670q0 -21 2.5 -35.5t8.5 -24.5t16 -16t25 -11h-178q16 5 26 11t16 15.5t8 24.5t2 36v497q0 57 -9.5 94.5t-26 59.5t-39.5 30.5t-49 8.5q-25 0 -46.5 -7.5t-37.5 -24t-24.5 -44
t-8.5 -66.5v-70h144v-11h-144v-467q0 -21 2.5 -35.5t8.5 -24.5t16 -16t25 -11h-178q16 5 26 11t16 15.5t8 24.5t2 36v467h-102z" />
    <glyph glyph-name=".notdef" horiz-adv-x="517" 
d="M30 325q0 42 13.5 79.5t39 65.5t61 44.5t80.5 16.5q20 0 43.5 -3t40.5 -9l-14 -91q-25 9 -40.5 11.5t-27.5 2.5q-51 0 -77 -32.5t-26 -81.5q0 -47 25.5 -80t77.5 -33q19 0 35 3.5t30 8.5l17 -88q-14 -8 -40 -11.5t-49 -3.5q-45 0 -80 16t-59.5 43.5t-37 64t-12.5 77.5z
M361 423q0 26 18.5 45t44.5 19t44.5 -19t18.5 -45q0 -24 -18.5 -43.5t-44.5 -19.5t-44.5 19.5t-18.5 43.5zM361 218q0 26 18.5 44.5t44.5 18.5t44.5 -18.5t18.5 -44.5t-18.5 -44.5t-44.5 -18.5t-44.5 18.5t-18.5 44.5z" />
    <glyph glyph-name=".null" horiz-adv-x="656" 
 />
    <glyph glyph-name=".null" horiz-adv-x="656" 
 />
    <glyph glyph-name="uni000D" unicode="&#xd;" horiz-adv-x="656" 
 />
    <glyph glyph-name="space" unicode=" " horiz-adv-x="288" 
 />
    <glyph glyph-name="exclam" unicode="!" horiz-adv-x="255" 
d="M125 701q20 0 32.5 -16t10.5 -40q-3 -51 -8 -108t-11 -117.5t-11.5 -122.5t-9.5 -121h-5q-4 59 -9.5 121t-11.5 122.5t-11 117.5t-8 108q-2 24 10.5 40t31.5 16zM86 34q0 16 11 26.5t28 10.5t28 -10.5t11 -26.5q0 -17 -11 -27.5t-28 -10.5t-28 10.5t-11 27.5z" />
    <glyph glyph-name="quotedbl" unicode="&#x22;" horiz-adv-x="342" 
d="M234 750q14 0 23.5 -11.5t7.5 -27.5l-30 -181h-3l-28 181q-3 16 6.5 27.5t23.5 11.5zM108 750q14 0 23.5 -11.5t7.5 -27.5l-30 -181h-3l-28 181q-3 16 6.5 27.5t23.5 11.5z" />
    <glyph glyph-name="numbersign" unicode="#" horiz-adv-x="752" 
d="M45 169v17h146l25 324h-146v17h147l13 168h20l-13 -168h305l13 168h19l-13 -168h146v-17h-147l-25 -324h147v-17h-148l-13 -169h-19l13 169h-306l-13 -169h-19l13 169h-145zM516 186l25 324h-305l-26 -324h306z" />
    <glyph glyph-name="dollar" unicode="$" horiz-adv-x="555" 
d="M62 259q12 -116 66.5 -181.5t150.5 -68.5v317l-54 21q-19 7 -46 19.5t-52.5 33.5t-43.5 52t-18 76q0 36 13 68t39 56t64 37.5t89 13.5h9v55h19v-56q42 -4 88.5 -17t83.5 -37l7 -191q-16 101 -60 160.5t-119 68.5v-280l47 -18q38 -15 68.5 -33.5t52.5 -42.5t33.5 -53.5
t11.5 -66.5q0 -40 -14.5 -75.5t-42 -62t-67 -42.5t-89.5 -18v-62h-19v62q-69 1 -131.5 21t-101.5 58zM459 157q0 38 -16 64t-37.5 44t-45 28.5t-38.5 16.5l-24 9v-310q38 2 68 14t50.5 32t31.5 46.5t11 55.5zM242 427l37 -14v275h-8q-35 0 -65 -9.5t-51.5 -27t-33.5 -41
t-12 -50.5q0 -31 14.5 -53t35 -38t43.5 -26t40 -16z" />
    <glyph glyph-name="percent" unicode="%" horiz-adv-x="891" 
d="M62 517q0 41 12.5 74.5t34.5 58.5t52.5 38.5t67.5 13.5t67.5 -13.5t53 -38.5t35 -58.5t12.5 -74.5q0 -42 -12.5 -77t-35 -60.5t-53 -39.5t-67.5 -14t-67.5 14t-52.5 39.5t-34.5 60.5t-12.5 77zM494 184q0 41 12.5 74.5t34.5 58t52.5 38t67.5 13.5t67.5 -13.5t53 -38
t35 -58t12.5 -74.5q0 -42 -12.5 -77t-35 -60.5t-53 -40t-67.5 -14.5t-67.5 14.5t-52.5 40t-34.5 60.5t-12.5 77zM135 517q0 -39 7 -71.5t19.5 -56t29.5 -36.5t38 -13t38.5 13t30 36.5t19.5 56t7 71.5q0 38 -7 69t-19.5 54t-30 35.5t-38.5 12.5t-38 -12.5t-29.5 -35.5
t-19.5 -54t-7 -69zM661 6q21 0 38.5 13t30 37t19.5 56.5t7 71.5q0 38 -7 69t-19.5 53.5t-30 35t-38.5 12.5t-38 -12.5t-29.5 -35t-19.5 -53.5t-7 -69q0 -39 7 -71.5t19.5 -56.5t29.5 -37t38 -13zM704 695h18l-535 -695h-18z" />
    <glyph glyph-name="ampersand" unicode="&#x26;" horiz-adv-x="700" 
d="M244 378q-25 30 -44 54t-31.5 45t-18.5 41.5t-6 43.5q0 36 13.5 62t36.5 43t54 25.5t65 8.5q72 0 117 -33t45 -92q0 -33 -14 -59.5t-36.5 -48.5t-51.5 -40t-59 -32l198 -239q14 29 26.5 66t21.5 84l29 -6q-24 -99 -61 -164q15 -18 34 -40.5t36.5 -43t31.5 -35.5t19 -18
h-110q-13 23 -24.5 41t-26.5 39q-75 -85 -204 -85q-106 0 -165 48t-59 129q0 39 13.5 69.5t38 55t58.5 44.5t74 37zM287 10q20 0 43 3t47.5 12.5t49.5 27t48 45.5l-16 20t-18 22l-143 173q-25 32 -48 57q-35 -17 -57.5 -42t-35 -52t-17 -53.5t-4.5 -47.5q0 -44 11 -75.5
t31 -51.5t47.5 -29t61.5 -9zM307 404q114 61 114 163q0 52 -28 85.5t-80 33.5q-22 0 -42 -6.5t-35 -19t-24 -31t-9 -41.5t8 -45t22.5 -44t33.5 -45.5t40 -49.5z" />
    <glyph glyph-name="quotesingle" unicode="'" horiz-adv-x="216" 
d="M108 750q14 0 23.5 -11.5t7.5 -27.5l-30 -181h-3l-28 181q-3 16 6.5 27.5t23.5 11.5z" />
    <glyph glyph-name="parenleft" unicode="(" horiz-adv-x="247" 
d="M210 793l10 -8q-76 -102 -112 -210.5t-36 -239.5q0 -130 36 -238.5t112 -210.5l-10 -8q-81 106 -119.5 217t-38.5 241t38.5 240.5t119.5 216.5z" />
    <glyph glyph-name="parenright" unicode=")" horiz-adv-x="247" 
d="M27 -114q77 102 112.5 210.5t35.5 238.5q0 131 -35.5 239.5t-112.5 210.5l10 8q81 -106 119.5 -216.5t38.5 -240.5t-38.5 -241t-119.5 -217z" />
    <glyph glyph-name="asterisk" unicode="*" horiz-adv-x="452" 
d="M236 530l154 -109l-9 -13l-149 110l1 -172h-16l1 172l-149 -110l-9 13l154 109l-154 109l9 13l149 -110l-1 172h16l-1 -172l149 110l9 -13z" />
    <glyph glyph-name="plus" unicode="+" horiz-adv-x="685" 
d="M75 339v17h260v259h18v-259h257v-17h-257v-259h-18v259h-260z" />
    <glyph glyph-name="comma" unicode="," horiz-adv-x="249" 
d="M73 34q0 16 11 26.5t28 10.5t28 -11t11 -29q0 -45 -20 -72.5t-50 -39.5l-1 1q18 17 30 35.5t12 41.5q-3 -1 -10 -1q-17 0 -28 10.5t-11 27.5z" />
    <glyph glyph-name="hyphen" unicode="-" horiz-adv-x="500" 
d="M425 383v-16h-350v16h350z" />
    <glyph glyph-name="period" unicode="." horiz-adv-x="273" 
d="M97 34q0 16 11 26.5t28 10.5t28 -10.5t11 -26.5q0 -17 -11 -27.5t-28 -10.5t-28 10.5t-11 27.5z" />
    <glyph glyph-name="slash" unicode="/" horiz-adv-x="457" 
d="M448 714l-424 -743l-15 9l424 744z" />
    <glyph glyph-name="zero" unicode="0" horiz-adv-x="619" 
d="M55 348q0 80 18 145t51.5 111t80.5 71.5t104 25.5q58 0 105 -25.5t80.5 -71.5t51.5 -111t18 -145q0 -79 -18 -144.5t-51.5 -111.5t-80.5 -71.5t-105 -25.5q-57 0 -104 25.5t-80.5 71.5t-51.5 111.5t-18 144.5zM140 348q0 -159 43.5 -248.5t125.5 -89.5q83 0 126.5 89.5
t43.5 248.5t-43.5 248.5t-126.5 89.5q-82 0 -125.5 -89.5t-43.5 -248.5z" />
    <glyph glyph-name="one" unicode="1" horiz-adv-x="302" 
d="M205 698h2v-580q0 -33 2.5 -53.5t8.5 -33t16 -19.5t26 -12h-183q16 5 26.5 11.5t16.5 19t8.5 33.5t2.5 54v427q0 16 -3 28.5t-13.5 21.5t-32 14t-57.5 5q61 16 101.5 37t78.5 47z" />
    <glyph glyph-name="two" unicode="2" horiz-adv-x="529" 
d="M38 8q87 87 150.5 159t104 134.5t60 117.5t19.5 108q0 76 -34 117.5t-88 41.5q-24 0 -51 -10.5t-53.5 -37.5t-49.5 -73t-39 -118l10 195q45 29 90 44t101 15q95 0 147 -41t52 -107q0 -43 -23 -93.5t-67.5 -110.5t-109 -130.5t-148.5 -154.5h216q38 0 63.5 3t43 12t29 26
t21.5 45l-5 -150h-438z" />
    <glyph glyph-name="three" unicode="3" horiz-adv-x="541" 
d="M255 10q34 0 63.5 13t51 38.5t33.5 63t12 87.5q0 89 -39 135t-111 46q-23 0 -50 -4.5t-56 -15.5l-3 9l234 250h-188q-37 0 -61 -8t-39 -21t-23 -27.5t-11 -28.5l2 148h390v-10l-273 -290q48 13 94 13q51 0 91.5 -15t69 -41.5t43.5 -62t15 -76.5q0 -40 -16 -79t-47.5 -70
t-76.5 -50t-104 -19q-29 0 -54 3t-48 9.5t-46.5 18t-49.5 28.5v175q12 -67 34.5 -109.5t49.5 -67t56.5 -33.5t56.5 -9z" />
    <glyph glyph-name="four" unicode="4" horiz-adv-x="547" 
d="M417 695v-1l1 1h8v-462h92l-10 -53h-82v-62q0 -33 2.5 -53.5t8.5 -33t16 -19.5t26 -12h-183q16 5 26.5 11.5t16.5 19t8.5 33.5t2.5 54v62h-324v8zM350 233v352l-271 -352h271z" />
    <glyph glyph-name="five" unicode="5" horiz-adv-x="550" 
d="M62 65l8 133q15 -53 35 -89t43.5 -58t50 -31.5t53.5 -9.5q36 0 66.5 12.5t53 38.5t35 65t12.5 91q0 95 -42.5 140.5t-120.5 45.5q-45 -1 -87 -16t-67 -50l-9 5l24 353h354l-7 -86q-14 20 -42.5 23.5t-84.5 3.5h-207l-19 -270q22 21 61.5 36.5t90.5 15.5q49 0 93 -13.5
t77 -39t52.5 -62t19.5 -83.5q0 -45 -17.5 -86t-50 -72t-79.5 -49t-106 -18q-53 0 -102.5 19t-87.5 51z" />
    <glyph glyph-name="six" unicode="6" horiz-adv-x="599" 
d="M55 348q0 80 19.5 145t54.5 111t85 71.5t111 25.5q54 0 98 -12t76 -32l-4 -114q-20 46 -42.5 74t-44.5 43.5t-43.5 20.5t-39.5 5q-90 0 -137.5 -89.5t-47.5 -248.5v-3q26 40 70 64t101 24q47 0 88.5 -14t72.5 -40.5t49 -65.5t18 -90q0 -47 -17 -88.5t-48 -72.5t-73 -49
t-93 -18q-57 0 -103.5 25.5t-79.5 72t-51.5 111.5t-18.5 144zM308 10q32 0 59.5 12.5t48 38t32.5 64.5t12 92q0 49 -12.5 86.5t-33.5 62.5t-49.5 37.5t-60.5 12.5q-52 0 -96.5 -27.5t-67.5 -69.5q2 -70 13 -127t31.5 -97.5t51 -62.5t72.5 -22z" />
    <glyph glyph-name="seven" unicode="7" horiz-adv-x="472" 
d="M47 695h393l4 -6l-101 -288q-10 -29 -27.5 -82t-34 -112.5t-28.5 -115.5t-11 -91h-92q19 31 40 71t44 92.5t49.5 119.5t57.5 154l69 195h-231q-41 0 -65.5 -8t-39 -20.5t-21.5 -27.5t-13 -29z" />
    <glyph glyph-name="eight" unicode="8" horiz-adv-x="546" 
d="M46 171q0 66 44 116t127 73q-28 15 -53.5 31.5t-44.5 37t-30 47t-11 60.5q0 37 14.5 67.5t40 52t62 33.5t79.5 12q42 0 78 -11t62 -31t40.5 -48t14.5 -61t-13 -58t-34 -44.5t-46.5 -34t-50.5 -25.5q33 -15 64.5 -32.5t55.5 -41t39 -53.5t15 -71q0 -39 -14.5 -74.5
t-43 -62.5t-70.5 -42.5t-96 -15.5q-53 0 -95.5 13t-72 36.5t-45.5 55.5t-16 71zM278 10q36 0 66 10t52 28.5t34 45t12 58.5q0 42 -18.5 72t-48.5 52.5t-67.5 40t-74.5 35.5q-42 -12 -67.5 -32.5t-39.5 -44t-18.5 -48t-4.5 -45.5q0 -40 12.5 -71.5t36 -54t55.5 -34.5t71 -12z
M137 562q0 -33 14.5 -57.5t39 -43.5t55.5 -35t64 -31q103 45 103 149q0 26 -8 51t-24.5 45.5t-42.5 33t-63 12.5q-31 0 -56.5 -9.5t-43.5 -26t-28 -39.5t-10 -49z" />
    <glyph glyph-name="nine" unicode="9" horiz-adv-x="595" 
d="M66 487q0 47 16.5 86t46 67.5t70 44.5t88.5 16q55 0 101.5 -22t80 -66t52.5 -110t19 -153q0 -80 -17 -145.5t-50.5 -112t-84 -72t-117.5 -25.5q-46 0 -95.5 11.5t-80.5 32.5l1 124q23 -49 47.5 -79t48.5 -46.5t46.5 -22t40.5 -5.5q84 0 129 86.5t47 262.5
q-26 -39 -68.5 -62.5t-102.5 -23.5q-49 0 -89.5 16.5t-69 45.5t-44 68t-15.5 84zM145 491q0 -52 12.5 -90t33.5 -63t48.5 -36.5t58.5 -11.5q51 0 92.5 26.5t64.5 68.5q-1 68 -9 123t-27 95t-49.5 61.5t-75.5 21.5q-32 0 -59.5 -12t-47.5 -36t-31 -60.5t-11 -86.5z" />
    <glyph glyph-name="colon" unicode=":" horiz-adv-x="273" 
d="M97 455q0 16 11 26.5t28 10.5t28 -10.5t11 -26.5q0 -17 -11 -27.5t-28 -10.5t-28 10.5t-11 27.5zM136 184q17 0 28 -10.5t11 -26.5q0 -17 -11 -27.5t-28 -10.5t-28 10.5t-11 27.5q0 16 11 26.5t28 10.5z" />
    <glyph glyph-name="semicolon" unicode=";" horiz-adv-x="274" 
d="M98 34q0 16 11 26.5t28 10.5t28 -11t11 -29q0 -45 -20 -72.5t-50 -39.5l-1 1q18 17 30 35.5t12 41.5q-3 -1 -10 -1q-17 0 -28 10.5t-11 27.5zM97 348q0 16 11 26.5t28 10.5t28 -10.5t11 -26.5q0 -17 -11 -27.5t-28 -10.5t-28 10.5t-11 27.5z" />
    <glyph glyph-name="less" unicode="&#x3c;" horiz-adv-x="537" 
d="M481 567v-17l-408 -203l408 -201v-17l-429 213v10z" />
    <glyph glyph-name="equal" unicode="=" horiz-adv-x="685" 
d="M610 458v-17h-535v17h535zM75 253v17h535v-17h-535z" />
    <glyph glyph-name="greater" unicode="&#x3e;" horiz-adv-x="537" 
d="M485 352v-10l-429 -213v17l408 201l-408 203v17z" />
    <glyph glyph-name="question" unicode="?" horiz-adv-x="435" 
d="M60 643q28 22 71 40t96 18q72 0 115.5 -33t43.5 -87q0 -32 -14.5 -59t-36 -54t-46 -55t-44 -62t-30.5 -76.5t-5 -96.5h-6q-8 65 -2.5 112.5t18 82.5t29 62t31.5 51.5t25.5 49.5t10.5 58q0 45 -25 68.5t-67 23.5q-24 0 -48 -10t-46.5 -33.5t-42 -62.5t-33.5 -98zM206 71
q17 0 28 -10.5t11 -26.5q0 -17 -11 -27.5t-28 -10.5t-28 10.5t-11 27.5q0 16 11 26.5t28 10.5z" />
    <glyph glyph-name="at" unicode="@" horiz-adv-x="917" 
d="M69 334q0 82 29 151.5t81.5 120.5t124.5 79.5t159 28.5q85 0 156.5 -23t123 -64.5t80 -99.5t28.5 -129q0 -48 -13 -89.5t-35.5 -71.5t-53 -47.5t-65.5 -17.5q-45 0 -73.5 26t-34.5 68q-3 -18 -14 -36t-28 -33t-41 -24t-54 -9q-34 0 -65.5 12.5t-56 36.5t-39.5 58t-15 76
q0 40 14 75t39.5 61t60 41t76.5 15q34 0 71 -12.5t68 -47.5l42 54h4v-295q0 -26 12.5 -39.5t30.5 -13.5t35 12.5t30 38t21 64.5t8 92q0 68 -23 124t-64.5 97t-99 63.5t-125.5 22.5q-71 0 -129 -25.5t-99.5 -72t-64 -111.5t-22.5 -145q0 -77 20.5 -141t60 -110.5t97.5 -72
t134 -25.5q30 0 62 5t61 15t53 23.5t39 29.5l10 -12q-16 -17 -42 -31t-57.5 -24t-66 -15.5t-69.5 -5.5q-84 0 -154 27t-120.5 74.5t-78.5 112t-28 139.5zM334 361q0 -87 33.5 -135t87.5 -48q28 0 49.5 12t36 30t22 38.5t7.5 36.5v145q-13 27 -28.5 43.5t-31 25.5t-31 12.5
t-29.5 3.5q-51 0 -83.5 -39t-32.5 -125z" />
    <glyph glyph-name="A" unicode="A" horiz-adv-x="751" 
d="M114 142l257 553h6l293 -626q17 -36 30 -50.5t26 -18.5h-152q7 3 13 8.5t9 16.5t0.5 27t-13.5 40l-82 178h-307l-82 -176q-12 -26 -16 -43t-2.5 -27.5t7 -15.5t11.5 -8h-88q7 2 14 7.5t17 20.5t24 42t35 72zM494 285l-147 316l-147 -316h294z" />
    <glyph glyph-name="B" unicode="B" horiz-adv-x="592" 
d="M42 0q32 9 43 27t11 61v519q0 22 -2.5 36.5t-8.5 24.5t-16.5 16.5t-26.5 10.5h228q118 0 187 -42.5t69 -122.5q0 -66 -50 -111t-139 -61q100 -12 156.5 -55.5t56.5 -112.5q0 -45 -18 -80t-51 -59.5t-80.5 -37.5t-106.5 -13h-252zM172 16h107q90 0 140 45t50 125
q0 78 -50.5 120.5t-135.5 42.5h-111v-333zM172 365h107q77 0 122.5 44t45.5 115q0 75 -49.5 115t-139.5 40h-86v-314z" />
    <glyph glyph-name="C" unicode="C" horiz-adv-x="675" 
d="M375 701q20 0 47.5 -3t58.5 -10.5t63 -19.5t61 -30l16 -231q-28 142 -95.5 210.5t-156.5 68.5q-50 0 -94 -21t-76.5 -63.5t-51 -106t-18.5 -147.5q0 -86 19.5 -150t53.5 -106t80 -62.5t99 -20.5q33 0 66.5 8.5t65 29t59.5 54t49 84.5v-110q-41 -34 -103.5 -57.5
t-134.5 -23.5t-134 27t-107.5 74.5t-71.5 112.5t-26 141q0 75 26.5 139.5t72 111.5t105.5 74t127 27z" />
    <glyph glyph-name="D" unicode="D" horiz-adv-x="718" 
d="M42 0q32 9 45 27.5t13 62.5v519q0 22 -2 36.5t-7 24t-15 15.5t-26 10h275q76 0 140 -24.5t110.5 -69t72.5 -108t26 -141.5t-26 -143t-72.5 -111.5t-110.5 -72t-140 -25.5h-283zM176 17h145q58 0 107 20t84.5 61t55.5 104t20 148t-20 147t-55.5 102t-84.5 59.5t-107 19.5
h-145v-661z" />
    <glyph glyph-name="E" unicode="E" horiz-adv-x="582" 
d="M42 0q32 9 45 27.5t13 62.5v519q0 22 -2 36.5t-7 24t-15 15.5t-26 10h447l21 -183q-12 52 -34 84.5t-50.5 50.5t-62 24.5t-70.5 6.5h-125v-296h81q51 0 83.5 6t52 18t28.5 29t14 39l-14 -203q-1 22 -7.5 39.5t-24 29.5t-49.5 18.5t-85 6.5h-79v-348h153q37 0 69 7.5
t58.5 28.5t47 58t32.5 96l-18 -207h-476z" />
    <glyph glyph-name="F" unicode="F" horiz-adv-x="556" 
d="M100 90v519q0 22 -2 36.5t-7 24t-15 15.5t-26 10h449l21 -183q-12 52 -34 84.5t-50.5 50.5t-62 24.5t-70.5 6.5h-127v-312h83q51 0 83.5 6t52 18t28.5 29t14 39l-14 -203q-1 22 -7.5 39.5t-24 29.5t-49.5 18.5t-85 6.5h-81v-259q0 -44 13 -62.5t45 -27.5h-192
q32 9 45 27.5t13 62.5z" />
    <glyph glyph-name="G" unicode="G" horiz-adv-x="715" 
d="M374 701q27 0 57.5 -4t61.5 -12t60.5 -21t52.5 -30l14 -189q-28 114 -94.5 177.5t-156.5 63.5q-50 0 -94 -21t-76.5 -63.5t-51 -106t-18.5 -147.5q0 -86 19 -150t52.5 -106t79.5 -62.5t100 -20.5q20 0 44 4t49 14.5t50 28.5t47 46v208h-25h-32t-44 -0.5t-44 -1t-33 -2.5
l2 25q10 -1 20.5 -2t25.5 -1.5t36.5 -0.5h53.5h116v-330l-73 71q-41 -37 -91.5 -55.5t-102.5 -18.5q-70 0 -131 27t-106.5 74.5t-71.5 112.5t-26 140q0 74 24.5 138.5t68 112t104 75t133.5 27.5z" />
    <glyph glyph-name="H" unicode="H" horiz-adv-x="756" 
d="M42 695h183q-16 -5 -26 -11.5t-16 -19.5t-8.5 -33.5t-2.5 -53.5v-185h413v185q0 33 -2.5 54t-8.5 33.5t-16.5 19.5t-26.5 11h183q-16 -5 -26 -11.5t-16 -19.5t-8.5 -33.5t-2.5 -53.5v-459q0 -33 2.5 -53.5t8.5 -33t16 -19.5t26 -12h-183q16 5 26.5 11.5t16.5 19t8.5 33.5
t2.5 54v257h-413v-257q0 -33 2.5 -53.5t8.5 -33t16 -19.5t26 -12h-183q16 5 26.5 11.5t16.5 19t8.5 33.5t2.5 54v459q0 33 -2.5 54t-8.5 33.5t-16.5 19.5t-26.5 11z" />
    <glyph glyph-name="I" unicode="I" horiz-adv-x="267" 
d="M225 695q-16 -5 -26 -11.5t-16 -19.5t-8.5 -33.5t-2.5 -53.5v-459q0 -33 2.5 -53.5t8.5 -33t16 -19.5t26 -12h-183q16 5 26.5 11.5t16.5 19t8.5 33.5t2.5 54v459q0 33 -2.5 54t-8.5 33.5t-16.5 19.5t-26.5 11h183z" />
    <glyph glyph-name="J" unicode="J" horiz-adv-x="501" 
d="M38 69l25 194q11 -136 49 -195.5t109 -59.5q34 0 56 11.5t34.5 36t17.5 63.5t5 93v396q0 44 -11.5 61.5t-41.5 25.5h184q-31 -10 -42.5 -27.5t-11.5 -60.5v-386q0 -33 -3.5 -72.5t-22 -74t-57 -58t-107.5 -23.5q-60 0 -104 20.5t-79 55.5z" />
    <glyph glyph-name="K" unicode="K" horiz-adv-x="707" 
d="M42 695h183q-16 -5 -26 -11.5t-16 -19.5t-8.5 -33.5t-2.5 -53.5v-282l328 300q75 68 58 100h101q-20 -11 -57.5 -38t-102.5 -86l-166 -152q22 -27 48 -59.5t54.5 -68.5t58.5 -73.5t59 -72.5q15 -18 35 -41.5t39 -45.5t34.5 -38.5t20.5 -19.5h-133q-1 27 -17.5 54.5
t-52.5 73.5q-19 25 -43.5 57t-50.5 65.5t-51.5 66t-47.5 59.5l-114 -104v-154q0 -33 2.5 -53.5t8.5 -33t16 -19.5t26 -12h-183q16 5 26.5 11.5t16.5 19t8.5 33.5t2.5 54v459q0 33 -2.5 54t-8.5 33.5t-16.5 19.5t-26.5 11z" />
    <glyph glyph-name="L" unicode="L" horiz-adv-x="541" 
d="M226 695q-16 -5 -26 -11.5t-16 -16t-9 -24.5t-3 -36v-590h169q37 0 62.5 7t44 25.5t32 51t25.5 84.5l-20 -185h-443q32 9 43 27t11 61v519q0 22 -2.5 36.5t-8.5 24.5t-16.5 16.5t-26.5 10.5h184z" />
    <glyph glyph-name="M" unicode="M" horiz-adv-x="863" 
d="M96 88v519q0 22 -2.5 36.5t-8.5 24.5t-16.5 16.5t-26.5 10.5h96l301 -606l262 606h120q-31 -10 -42.5 -27.5t-11.5 -60.5v-519q0 -43 11.5 -60.5t42.5 -27.5h-183q32 9 43 27t11 61v539l-275 -627h-12l-292 588v-500q0 -43 11.5 -60.5t42.5 -27.5h-125q32 9 43 27t11 61z
" />
    <glyph glyph-name="N" unicode="N" horiz-adv-x="742" 
d="M42 695h96l494 -574v486q0 22 -2.5 36.5t-8.5 24.5t-16.5 16.5t-26.5 10.5h125q-31 -10 -42.5 -27.5t-11.5 -60.5v-607h-7l-529 615v-527q0 -43 11.5 -60.5t42.5 -27.5h-125q32 9 43 27t11 61v519q0 22 -2.5 36.5t-8.5 24.5t-16.5 16.5t-26.5 10.5z" />
    <glyph glyph-name="O" unicode="O" horiz-adv-x="758" 
d="M44 348q0 75 25 140t69.5 112.5t106 74.5t134.5 27t134.5 -27t106 -74.5t69.5 -112.5t25 -140t-25 -140t-69.5 -112.5t-106 -74.5t-134.5 -27t-134.5 27t-106 74.5t-69.5 112.5t-25 140zM379 9q56 0 102 21t79 63.5t51 106t18 148.5t-18 148.5t-51 106t-79 63.5t-102 21
t-102 -21t-79 -63.5t-51 -106t-18 -148.5t18 -148.5t51 -106t79 -63.5t102 -21z" />
    <glyph glyph-name="P" unicode="P" horiz-adv-x="600" 
d="M42 0q32 9 43 27t11 61v519q0 22 -2.5 36.5t-8.5 24.5t-16.5 16.5t-26.5 10.5h257q45 0 92 -9.5t85.5 -32t63 -59t24.5 -91.5q0 -54 -24.5 -93t-63.5 -64.5t-86.5 -38t-93.5 -12.5h-124v-207q0 -43 11.5 -60.5t42.5 -27.5h-184zM172 679v-368h105q40 0 77 10.5t65.5 33.5
t45.5 58.5t17 85.5q0 88 -53.5 134t-151.5 46h-105z" />
    <glyph glyph-name="Q" unicode="Q" horiz-adv-x="758" 
d="M379 702q73 0 134.5 -27t106 -74.5t69.5 -112.5t25 -140t-25 -140t-69.5 -112.5t-106 -74.5t-134.5 -27q-40 0 -71 7q22 -20 43.5 -42t47.5 -40.5t59.5 -31t78.5 -12.5q16 0 35.5 2.5t37.5 9.5t32 20t19 35l8 -2q-5 -35 -21 -58.5t-38.5 -38t-49 -21t-53.5 -6.5
q-45 0 -77.5 16t-58 40.5t-46.5 52.5t-43 52.5t-47.5 40.5t-60.5 16q-38 0 -56 -21.5t-22 -61.5l-8 1q5 52 33 75t70 24q-69 47 -108 124t-39 173q0 75 25 140t69.5 112.5t106 74.5t134.5 27zM129 348q0 -85 18 -148.5t51 -106t79 -63.5t102 -21t102 21t79 63.5t51 106
t18 148.5t-18 148.5t-51 106t-79 63.5t-102 21t-102 -21t-79 -63.5t-51 -106t-18 -148.5z" />
    <glyph glyph-name="R" unicode="R" horiz-adv-x="652" 
d="M96 88v519q0 22 -2.5 36.5t-8.5 24.5t-16.5 16.5t-26.5 10.5h243q48 0 93.5 -9t81 -29.5t57 -53.5t21.5 -81q0 -42 -16.5 -74.5t-44.5 -56t-64 -37.5t-75 -20l163 -196q15 -17 34.5 -39.5t38.5 -43.5t34 -36.5t20 -18.5h-134q0 14 -4.5 27.5t-13.5 27.5t-22 31t-30 38
l-166 206h-86v-242q0 -43 11.5 -60.5t42.5 -27.5h-184q32 9 43 27t11 61zM172 346h101q88 0 137.5 44.5t49.5 127.5q0 46 -16 77t-43 49.5t-62.5 26.5t-75.5 8h-91v-333z" />
    <glyph glyph-name="S" unicode="S" horiz-adv-x="555" 
d="M46 73l16 186q12 -119 69 -184.5t157 -65.5q40 0 72 11.5t54 32t33.5 47.5t11.5 57q0 38 -16 64t-37.5 44t-45 28.5t-38.5 16.5l-97 37q-19 7 -46 19.5t-52.5 33.5t-43.5 52t-18 76q0 36 13 68t39 56t64 37.5t89 13.5q46 0 101.5 -13.5t98.5 -41.5l7 -191
q-17 110 -67.5 170.5t-138.5 60.5q-35 0 -65 -9.5t-51.5 -27t-33.5 -41t-12 -50.5q0 -31 14.5 -53t35 -38t43.5 -26t40 -16l103 -39q76 -29 121 -75.5t45 -120.5q0 -42 -15.5 -78t-44.5 -62.5t-71 -42t-95 -15.5q-70 0 -134.5 20t-104.5 59z" />
    <glyph glyph-name="T" unicode="T" horiz-adv-x="647" 
d="M54 695h541l12 -235q-10 71 -24 113.5t-33.5 66t-46.5 31t-64 7.5h-77v-590q0 -21 2.5 -36t8.5 -24.5t16 -16t25 -11.5h-182q16 5 26.5 11t16.5 16t8.5 24.5t2.5 36.5v590h-76q-37 0 -64 -7.5t-47 -31t-34 -66t-25 -113.5z" />
    <glyph glyph-name="U" unicode="U" horiz-adv-x="678" 
d="M220 695q-31 -10 -42.5 -27.5t-11.5 -60.5v-345q0 -119 48.5 -185.5t136.5 -66.5q104 0 162 70t58 196v331q0 22 -2.5 36.5t-8.5 24.5t-16.5 16.5t-26.5 10.5h126q-31 -10 -42.5 -27.5t-11.5 -60.5v-328q0 -135 -63 -209.5t-175 -74.5q-126 0 -193.5 63.5t-67.5 187.5
v361q0 22 -2.5 36.5t-8.5 24.5t-16.5 16.5t-26.5 10.5h184z" />
    <glyph glyph-name="V" unicode="V" horiz-adv-x="694" 
d="M173 695q-7 -3 -13 -8.5t-8.5 -16t0 -27t12.5 -40.5l212 -506l205 504q11 26 14.5 43t2.5 27.5t-5.5 15.5t-10.5 8h88q-7 -2 -14.5 -7.5t-18 -20t-24.5 -41.5t-33 -73l-227 -553h-6l-266 626q-15 36 -29 50.5t-27 18.5h148z" />
    <glyph glyph-name="W" unicode="W" horiz-adv-x="938" 
d="M170 695q-14 -5 -20.5 -25t6.5 -62l150 -480l146 467l-3 7h5l29 93h5l204 -569l134 437q12 38 16 62.5t2.5 39t-7.5 21t-14 9.5h89q-7 -2 -13.5 -8.5t-14.5 -21.5t-17.5 -40t-21.5 -65l-172 -560h-5l-207 570l-178 -570h-5l-196 605q-15 46 -28.5 65.5t-28.5 24.5h145z
" />
    <glyph glyph-name="X" unicode="X" horiz-adv-x="681" 
d="M25 0q15 8 43 28.5t60 63.5l191 249l-169 249q-35 53 -56 75.5t-35 29.5h147q-4 -4 -8 -10.5t-4.5 -15.5t3.5 -21.5t16 -29.5l154 -226l147 191q25 33 33.5 53t8 32t-5.5 17.5t-8 9.5h107q-15 -8 -42 -29t-59 -64l-172 -224l186 -274q28 -41 49 -67.5t44 -36.5h-149
q4 3 8.5 8t5.5 13t-3 21.5t-18 33.5l-171 252l-166 -217q-25 -33 -33.5 -52.5t-8.5 -31.5t5 -17.5t8 -9.5h-108z" />
    <glyph glyph-name="Y" unicode="Y" horiz-adv-x="684" 
d="M168 695q-4 -3 -7.5 -9t-4.5 -14.5t3 -20t14 -27.5l197 -301l172 257q23 35 30.5 55.5t7.5 32.5t-5 17.5t-8 9.5h93q-13 -4 -32.5 -24t-45.5 -58l-203 -302v-223q0 -43 11.5 -60.5t42.5 -27.5h-184q32 9 43 27t11 61v214l-192 292q-33 51 -53 72.5t-34 28.5h144z" />
    <glyph glyph-name="Z" unicode="Z" horiz-adv-x="576" 
d="M33 0l409 678h-172q-48 0 -82 -7.5t-58.5 -31t-41.5 -66t-30 -113.5l19 235h457l-409 -678h210q44 0 76 8.5t54 34.5t36 73t23 125l-9 -258h-482z" />
    <glyph glyph-name="bracketleft" unicode="[" horiz-adv-x="250" 
d="M226 784v-15h-167v-867h167v-15h-184v897h184z" />
    <glyph glyph-name="backslash" unicode="\" horiz-adv-x="457" 
d="M448 -20l-15 -9l-424 743l15 10z" />
    <glyph glyph-name="bracketright" unicode="]" horiz-adv-x="250" 
d="M208 784v-897h-184v15h167v867h-167v15h184z" />
    <glyph glyph-name="asciicircum" unicode="^" horiz-adv-x="548" 
d="M484 433l-210 297l-210 -297l-11 9l216 308h11l215 -308z" />
    <glyph glyph-name="underscore" unicode="_" horiz-adv-x="619" 
d="M544 17v-17h-469v17h469z" />
    <glyph glyph-name="a" unicode="a" horiz-adv-x="520" 
d="M275 310l111 27v72q0 75 -29.5 110.5t-89.5 35.5q-28 0 -57 -9.5t-54.5 -34t-47 -66.5t-35.5 -106l-6 167q37 29 91 46t111 17q88 0 139.5 -42t51.5 -123v-317q0 -29 6.5 -51t21.5 -36l-98 -3v132q-10 -25 -25.5 -49t-38 -43t-53.5 -30t-71 -11q-36 0 -67.5 8t-54 24.5
t-35.5 41t-13 57.5q0 45 24.5 76t61.5 52t79 33.5t78 21.5zM113 128q0 -51 27.5 -84t77.5 -33q28 0 57 12t53 35.5t40 58.5t18 81v124l-109 -26q-21 -5 -49.5 -15t-54 -28.5t-43 -48.5t-17.5 -76z" />
    <glyph glyph-name="b" unicode="b" horiz-adv-x="610" 
d="M37 745l99 12v-255q18 21 39 34.5t42.5 21t43 10t40.5 2.5q65 0 117.5 -19.5t89 -55t56.5 -85.5t20 -112q0 -63 -21.5 -118t-59.5 -96.5t-90.5 -65t-114.5 -23.5q-107 0 -178 69l-54 -66l-4 2v674q0 31 -5 45t-20 26zM305 12q47 0 84.5 18.5t63.5 51.5t40 78.5t14 98.5
q0 60 -14.5 113.5t-42.5 93.5t-70 63.5t-97 23.5q-37 0 -77 -14.5t-70 -55.5v-358q29 -56 70.5 -84.5t98.5 -28.5z" />
    <glyph glyph-name="c" unicode="c" horiz-adv-x="572" 
d="M305 570q65 0 121.5 -22.5t99.5 -56.5l-33 -158q-6 63 -24 106t-43.5 69t-56.5 37t-63 11q-43 0 -78.5 -19.5t-61 -55.5t-40 -86t-14.5 -111q0 -62 15 -113t42 -87t64 -55.5t82 -19.5q76 0 133 57.5t85 166.5l-7 -167q-23 -21 -50.5 -34.5t-55.5 -21.5t-55.5 -11.5
t-50.5 -3.5q-61 0 -113 20.5t-89.5 58.5t-59 91.5t-21.5 119.5q0 63 20 115t56 90t86.5 59t111.5 21z" />
    <glyph glyph-name="d" unicode="d" horiz-adv-x="601" 
d="M302 570q47 0 88 -14.5t74 -43.5v162q0 31 -5 45t-20 26l99 12v-659q0 -43 7 -63.5t21 -34.5l-98 -3v77q-31 -42 -75 -60.5t-89 -18.5q-63 0 -114.5 21t-87.5 57.5t-56 86.5t-20 108q0 67 20.5 122.5t57.5 95.5t87.5 62t110.5 22zM103 309q0 -61 14.5 -115t43 -94.5
t69.5 -64t93 -23.5q43 0 79 21.5t62 59.5v339q-26 63 -69.5 92t-99.5 29q-45 0 -80.5 -17.5t-60 -49.5t-38 -77t-13.5 -100z" />
    <glyph glyph-name="e" unicode="e" horiz-adv-x="578" 
d="M300 570q60 0 104.5 -17t73.5 -48t43.5 -73t15.5 -92h-421q-2 -15 -3 -30.5t-1 -31.5q0 -57 15.5 -106.5t43 -85.5t65.5 -56.5t83 -20.5q40 0 72.5 14.5t59.5 41.5t48.5 64.5t37.5 82.5l-9 -145q-44 -37 -100 -54.5t-109 -17.5q-63 0 -116 20.5t-91.5 57.5t-59.5 90
t-21 117q0 63 18.5 116t53.5 92t84.5 60.5t112.5 21.5zM118 352h341q-1 44 -12 81t-31 65t-49.5 43.5t-67.5 15.5q-36 0 -66 -15t-53.5 -42.5t-39 -65t-22.5 -82.5z" />
    <glyph glyph-name="f" unicode="f" horiz-adv-x="402" 
d="M10 554v11h102v48q0 47 14 80.5t38.5 55.5t58 32t72.5 10q42 0 72.5 -9t52.5 -23l-4 -122q-14 69 -41 104.5t-80 35.5q-48 0 -78.5 -31.5t-30.5 -110.5v-70h206v-11h-206v-467q0 -21 2.5 -35.5t8.5 -24.5t16 -16t25 -11h-178q16 5 26 11t16 15.5t8 24.5t2 36v467h-102z
" />
    <glyph glyph-name="g" unicode="g" horiz-adv-x="564" 
d="M2 -37q0 49 48 75.5t154 31.5q-72 6 -102 29.5t-30 58.5q0 19 8.5 32.5t23 22.5t33.5 13t39 4h14q-56 20 -88 62t-32 100q0 39 15 71t43 55t66.5 36t84.5 13q39 0 72.5 -9t59.5 -26q7 54 36.5 83.5t64.5 29.5q23 0 37.5 -11.5t14.5 -31.5q0 -18 -12.5 -30t-31.5 -12
q-11 0 -20 3.5t-17 8t-15.5 8t-15.5 3.5q-13 0 -21 -12.5t-12 -44.5q32 -23 50 -57.5t18 -76.5q0 -39 -15 -71.5t-42.5 -56t-66 -36.5t-84.5 -13q-22 0 -43 3q-12 1 -21 1.5t-17 0.5q-38 0 -60 -10.5t-22 -29.5q0 -15 12 -24t27.5 -14t30.5 -7l118 -15q58 -7 104 -15.5
t78.5 -22t49.5 -35.5t17 -57q0 -37 -19.5 -67t-55 -51t-85.5 -32.5t-112 -11.5q-52 0 -102 8.5t-89.5 25.5t-63.5 42t-24 59zM65 -40q0 -56 57.5 -87.5t159.5 -31.5q54 0 96 9t71.5 25t44.5 36t15 43q0 34 -28 54.5t-68.5 31.5t-84 14.5t-75.5 3.5q-55 0 -91.5 -6.5t-58 -19
t-30 -31t-8.5 -41.5zM285 229q28 0 52 11t41.5 30.5t27.5 47.5t10 61t-10 64.5t-28.5 55.5t-45 39t-59.5 15q-29 0 -53 -11t-41.5 -31t-27 -47.5t-9.5 -59.5t10 -63.5t28.5 -56t45 -40t59.5 -15.5z" />
    <glyph glyph-name="h" unicode="h" horiz-adv-x="647" 
d="M27 0q16 5 26 11t16 15.5t8 24.5t2 36v587q0 31 -5 45t-20 26l99 12v-345q25 73 80 115.5t140 42.5q48 0 85 -13.5t62.5 -38.5t39 -59.5t13.5 -75.5v-296q0 -21 2.5 -35.5t8.5 -24.5t16 -16t25 -11h-178q16 5 26 11t16 15.5t8 24.5t2 36v306q0 75 -36 117.5t-105 42.5
q-39 0 -75 -14.5t-64 -42.5t-45.5 -69t-20.5 -94v-246q0 -21 2.5 -35.5t8.5 -24.5t16 -16t25 -11h-178z" />
    <glyph glyph-name="i" unicode="i" horiz-adv-x="232" 
d="M28 0q16 5 26 11t16 15.5t8 24.5t2 36v369q0 21 -1.5 36.5t-4.5 27.5t-8.5 22t-13.5 20l102 9v-484q0 -21 2.5 -35.5t8.5 -24.5t16 -16t25 -11h-178zM114 744q23 0 38 -13.5t15 -36.5t-15 -37t-38 -14q-22 0 -37 14t-15 37t15 36.5t37 13.5z" />
    <glyph glyph-name="j" unicode="j" horiz-adv-x="206" 
d="M70 43v413q0 21 -1.5 36.5t-4.5 27.5t-8.5 22t-13.5 20l102 9v-472q0 -132 -32.5 -202t-101.5 -85q17 12 28.5 33.5t18.5 51.5t10 67t3 79zM54 694q0 23 15 36.5t37 13.5q23 0 38 -13.5t15 -36.5t-15 -37t-38 -14q-22 0 -37 14t-15 37z" />
    <glyph glyph-name="k" unicode="k" horiz-adv-x="592" 
d="M27 0q16 5 26 11t16 15.5t8 24.5t2 36v587q0 31 -5 45t-20 26l99 12v-511l256 225q27 23 45 47t16 47h91q-10 -5 -23 -13.5t-31 -22t-42 -33.5t-57 -49l-110 -97l191 -241q28 -35 45 -56t27 -33t14 -16t6 -4h-128q2 3 3 8.5t-3 16t-13.5 27t-28.5 41.5l-164 213l-94 -83
v-136q0 -21 2.5 -35.5t8.5 -24.5t16 -16t25 -11h-178z" />
    <glyph glyph-name="l" unicode="l" horiz-adv-x="231" 
d="M27 0q16 5 26 11t16 15.5t8 24.5t2 36v587q0 31 -5 45t-20 26l99 12v-670q0 -21 2.5 -35.5t8.5 -24.5t16 -16t25 -11h-178z" />
    <glyph glyph-name="m" unicode="m" horiz-adv-x="1045" 
d="M80 87v369q0 21 -1.5 36.5t-4.5 27.5t-8.5 22t-13.5 20l102 9v-158q24 73 77.5 115t132.5 42q87 0 138 -44.5t59 -116.5q23 75 76.5 118t134.5 43q47 0 84 -13.5t62.5 -38.5t39 -59.5t13.5 -75.5v-296q0 -21 2.5 -35.5t8.5 -24.5t16 -16t25 -11h-178q16 5 26 11t16 15.5
t8 24.5t2 36v306q0 75 -35.5 118.5t-104.5 43.5q-36 0 -69.5 -15t-60.5 -43.5t-44.5 -69.5t-20.5 -94v-246q0 -21 2.5 -35.5t8.5 -24.5t16 -16t25 -11h-178q16 5 26 11t16 15.5t8 24.5t2 36v306q0 75 -35.5 118.5t-103.5 43.5q-36 0 -69.5 -15t-60.5 -43.5t-44.5 -69.5
t-20.5 -94v-246q0 -21 2.5 -35.5t8.5 -24.5t16 -16t25 -11h-178q16 5 26 11t16 15.5t8 24.5t2 36z" />
    <glyph glyph-name="n" unicode="n" horiz-adv-x="648" 
d="M28 0q16 5 26 11t16 15.5t8 24.5t2 36v369q0 21 -1.5 36.5t-4.5 27.5t-8.5 22t-13.5 20l102 9v-159q25 73 80 115.5t140 42.5q48 0 85 -13.5t62.5 -38.5t39 -59.5t13.5 -75.5v-296q0 -21 2.5 -35.5t8.5 -24.5t16 -16t25 -11h-178q16 5 26 11t16 15.5t8 24.5t2 36v306
q0 75 -36 117.5t-105 42.5q-39 0 -75 -14.5t-64 -42.5t-45.5 -69t-20.5 -94v-246q0 -21 2.5 -35.5t8.5 -24.5t16 -16t25 -11h-178z" />
    <glyph glyph-name="o" unicode="o" 
d="M318 570q64 0 116.5 -21t90.5 -59.5t59 -91t21 -115.5v-1q0 -63 -21 -115.5t-59 -91t-90.5 -59.5t-116.5 -21t-116.5 21t-90.5 59.5t-59 91t-21 115.5v1q0 63 21 115.5t59 91t90.5 59.5t116.5 21zM112 283q0 -60 15 -110t42 -86.5t65 -56.5t84 -20t84 20t65 56.5t42 86.5
t15 110t-15 110t-42 86t-65 56t-84 20t-84 -20t-65 -56t-42 -86t-15 -110z" />
    <glyph glyph-name="p" unicode="p" horiz-adv-x="626" 
d="M78 -102v558q0 21 -1.5 36.5t-4.5 27.5t-8.5 22t-13.5 20l100 9v-71q18 22 39 35.5t43 21t44 10.5t41 3q64 0 116 -19.5t89.5 -55.5t58 -86.5t20.5 -112.5q0 -63 -21.5 -118t-59.5 -95.5t-91 -64t-115 -23.5q-47 0 -88 14.5t-74 43.5v-155q0 -21 2.5 -35.5t8.5 -24.5
t16 -16t25 -11h-178q16 4 26 10.5t16 16t8 24.5t2 36zM321 12q47 0 84.5 19.5t64 53t40.5 79.5t14 99q0 62 -14 115t-42.5 92t-70.5 61t-99 22q-36 0 -76 -14.5t-70 -55.5v-362q27 -56 69.5 -82.5t99.5 -26.5z" />
    <glyph glyph-name="q" unicode="q" horiz-adv-x="624" 
d="M25 268q0 67 21.5 122.5t59.5 95.5t90.5 62t114.5 22q50 0 92.5 -16t76.5 -49l84 66l1 -1q-10 -35 -14 -66.5t-4 -67.5v-538q0 -21 2.5 -35.5t8.5 -24.5t16 -16t25 -11h-178q16 4 26 10.5t16 16t8 24.5t2 36v171q-31 -39 -73.5 -56.5t-86.5 -17.5q-65 0 -118.5 21
t-91 57.5t-58 86.5t-20.5 108zM332 12q43 0 79 21.5t62 59.5v339q-26 63 -69.5 92t-99.5 29q-47 0 -84.5 -17.5t-63.5 -49.5t-40 -77t-14 -100q0 -61 15.5 -115t45 -94.5t72 -64t97.5 -23.5z" />
    <glyph glyph-name="r" unicode="r" horiz-adv-x="395" 
d="M28 0q16 5 26 11t16 15.5t8 24.5t2 36v369q0 21 -1.5 36.5t-4.5 27.5t-8.5 22t-13.5 20l101 9v-134q12 28 27 52t35 42t46.5 28t60.5 10q32 0 57 -7l-1 -96q-9 11 -21.5 23t-26.5 22t-29 16.5t-31 6.5q-20 0 -37 -10t-31.5 -26.5t-26.5 -39t-21 -47.5v-324
q0 -21 2.5 -35.5t8.5 -24.5t16 -16t25 -11h-178z" />
    <glyph glyph-name="s" unicode="s" horiz-adv-x="476" 
d="M34 53l16 189q6 -68 22.5 -113t41 -71.5t56 -37.5t67.5 -11q75 0 110.5 36t35.5 88q0 30 -11 50.5t-26.5 34t-33.5 21t-33 12.5l-107 36q-16 5 -36 15.5t-38 27.5t-30.5 41.5t-12.5 57.5q0 66 49 104t130 38q55 0 100.5 -17t78.5 -46l-7 -135q-25 98 -65.5 141t-108.5 43
q-54 0 -90 -25.5t-36 -78.5q0 -24 10 -40t24.5 -26.5t31.5 -17t32 -11.5l97 -32q19 -6 43.5 -17t46.5 -29.5t37 -46t15 -67.5q0 -37 -14 -68t-41 -54t-66.5 -36t-91.5 -13q-57 0 -109.5 15t-86.5 43z" />
    <glyph glyph-name="t" unicode="t" horiz-adv-x="375" 
d="M123 565l69 139v-139h164v-11h-164v-430q0 -33 4.5 -55t12.5 -35t20.5 -18t28.5 -5q29 0 49 16.5t37 46.5l13 -9q-20 -32 -43.5 -50.5t-68.5 -18.5q-70 0 -98.5 40.5t-28.5 114.5v403h-98v11h103z" />
    <glyph glyph-name="u" unicode="u" horiz-adv-x="579" 
d="M33 562l102 9v-406q0 -43 9 -72.5t25.5 -48t40 -26.5t51.5 -8q45 0 78 20.5t55 52.5t34 71t13 76v226q0 21 -1.5 36.5t-4.5 27.5t-8.5 22t-13.5 20l102 9v-472q0 -44 7 -64.5t21 -34.5l-98 -3v151q-15 -36 -32.5 -64t-40.5 -48t-53.5 -30.5t-70.5 -10.5q-86 0 -136.5 43
t-50.5 132v286q0 21 -1.5 36.5t-4.5 27.5t-8.5 22t-13.5 20z" />
    <glyph glyph-name="v" unicode="v" horiz-adv-x="567" 
d="M136 565q-8 -7 -12.5 -20t7.5 -42l178 -412l151 353q17 39 20 62t0 35t-9.5 16.5t-10.5 7.5h97q-11 -7 -29 -24.5t-36 -60.5l-205 -480h-11l-207 477q-20 45 -34 64t-24 24h125z" />
    <glyph glyph-name="w" unicode="w" horiz-adv-x="806" 
d="M137 565q-9 -7 -14.5 -20t5.5 -42l140 -390l142 453h8l182 -459l109 335q13 41 15 64t-2.5 35.5t-11.5 16.5t-12 7h98q-15 -8 -30 -24.5t-29 -60.5l-156 -480h-12l-179 452l-142 -452h-12l-173 477q-17 45 -29 64t-22 24h125z" />
    <glyph glyph-name="x" unicode="x" horiz-adv-x="543" 
d="M4 0q7 6 30 24t55 60l153 197l-142 199q-30 42 -46.5 61t-27.5 24h132q-7 -7 -10.5 -21t15.5 -41l125 -174l106 136q24 31 31.5 49t6.5 28.5t-7 15t-8 7.5h99q-13 -7 -37.5 -25t-56.5 -60l-126 -163l167 -233q23 -32 39.5 -54t35.5 -30h-133q3 3 7 6.5t5 10.5t-2.5 17.5
t-15.5 26.5l-149 208l-133 -169q-24 -31 -31 -49.5t-5.5 -29t8 -14.5t8.5 -7h-93z" />
    <glyph glyph-name="y" unicode="y" horiz-adv-x="543" 
d="M136 565q-8 -7 -12 -21t10 -49l166 -409l160 407q8 19 7 31.5t-5.5 20.5t-10.5 12.5l-10 7.5h92q-9 -6 -25 -21t-30 -49l-211 -529q-7 -17 -18.5 -39t-29.5 -43t-43 -37t-59 -21l-35 99q38 -20 73 -20t64 22t46 68l-211 509q-13 31 -24 43.5t-19 17.5h125z" />
    <glyph glyph-name="z" unicode="z" horiz-adv-x="505" 
d="M24 0l354 554h-140q-33 0 -63.5 -4.5t-56.5 -22.5t-46 -55t-32 -102l15 195h409l-354 -554h175q33 0 61 7.5t51 32t42 72t33 126.5l-17 -249h-431z" />
    <glyph glyph-name="braceleft" unicode="{" horiz-adv-x="312" 
d="M23 346v2q32 18 54.5 51t22.5 83v215q0 50 19.5 68.5t58.5 18.5h110v-15h-110q-35 0 -48 -15t-13 -57v-209q0 -57 -20 -89t-48 -52q28 -20 48 -52t20 -89v-232q0 -42 13 -57t48 -15h110v-15h-110q-39 0 -58.5 18.5t-19.5 68.5v237q0 50 -22.5 83.5t-54.5 51.5z" />
    <glyph glyph-name="bar" unicode="|" horiz-adv-x="101" 
d="M59 806v-922h-17v922h17z" />
    <glyph glyph-name="braceright" unicode="}" horiz-adv-x="312" 
d="M134 -98q35 0 48 15t13 57v232q0 57 20 89t48 52q-28 20 -48 52t-20 89v209q0 42 -13 57t-48 15h-110v15h110q39 0 58.5 -18.5t19.5 -68.5v-215q0 -50 22.5 -83t54.5 -51v-2q-32 -18 -54.5 -51.5t-22.5 -83.5v-237q0 -50 -19.5 -68.5t-58.5 -18.5h-110v15h110z" />
    <glyph glyph-name="asciitilde" unicode="~" horiz-adv-x="582" 
d="M195 421q26 0 44 -10t31.5 -25t25 -32t24 -32t28.5 -25t40 -10q43 0 63.5 32.5t18.5 89.5h14q4 -63 -22 -99t-75 -36q-26 0 -44 10t-31.5 25t-25 32t-24 32t-28.5 25t-40 10q-43 0 -63.5 -32.5t-18.5 -89.5h-14q-4 63 22 99t75 36z" />
    <glyph glyph-name="uni00A0" unicode="&#xa0;" horiz-adv-x="288" 
 />
    <glyph glyph-name="exclamdown" unicode="&#xa1;" horiz-adv-x="255" 
d="M125 570q17 0 28 -10.5t11 -27.5q0 -16 -11 -26.5t-28 -10.5t-28 10.5t-11 26.5q0 17 11 27.5t28 10.5zM125 -135q-19 0 -31.5 16t-10.5 40q3 51 8 108t11 117.5t11.5 122.5t9.5 121h5q4 -59 9.5 -121t11 -122.5t11 -117.5t8.5 -108q2 -24 -10.5 -40t-32.5 -16z" />
    <glyph glyph-name="cent" unicode="&#xa2;" horiz-adv-x="653" 
d="M346 635h1v115h19v-116q59 -3 110 -25t91 -53l-33 -158q-6 59 -22 99.5t-38.5 67t-50.5 39.5t-57 16v-546q72 4 126.5 61t81.5 163l-7 -167q-21 -19 -47 -32.5t-52.5 -21.5t-52.5 -12t-49 -5v-115h-19v115q-60 2 -110 23t-87 59t-57.5 91t-20.5 117q0 63 20 115t56 90
t86.5 59t111.5 21zM347 74v547q-43 0 -78.5 -19.5t-61 -55.5t-40 -86t-14.5 -111t14.5 -110.5t40 -85.5t61 -56.5t78.5 -22.5z" />
    <glyph glyph-name="sterling" unicode="&#xa3;" horiz-adv-x="604" 
d="M64 324l130 5q-10 27 -25 52t-29 50.5t-23.5 53t-9.5 58.5q0 38 15 67t42 49.5t64 31t81 10.5q54 0 103 -17t85 -46l3 -195q-13 73 -35 120t-48 74.5t-54.5 38t-54.5 10.5q-24 0 -46 -8.5t-39 -26t-27 -44.5t-10 -65q0 -34 7.5 -62t18 -53t21 -48.5t16.5 -48.5h205v-17
h-202q1 -5 1.5 -11t0.5 -12q0 -19 -5.5 -42.5t-18.5 -51t-35.5 -60.5t-55.5 -72h225q38 0 63.5 3t43 12t29 26t21.5 45l-5 -150h-438l-1 8q38 42 63 77t40.5 65.5t22 56.5t6.5 49q0 15 -2.5 29t-6.5 28h-136v11z" />
    <glyph glyph-name="currency" unicode="&#xa4;" horiz-adv-x="610" 
d="M161 205q-24 25 -37 58.5t-13 74.5t13.5 74.5t37.5 59.5l-89 85l13 13l86 -88q26 22 59.5 34t73.5 12q79 0 132 -47l86 88l13 -13l-89 -85q24 -25 37 -58.5t13 -74.5q0 -40 -13 -73.5t-36 -58.5l87 -86l-13 -13l-85 89q-25 -23 -58.5 -35t-73.5 -12q-41 0 -74.5 12
t-58.5 35l-86 -89l-13 13zM305 161q39 0 71.5 13t56 36.5t36.5 56t13 71.5t-13 71.5t-36.5 56t-56 36.5t-71.5 13t-72 -13t-56.5 -36.5t-37 -56t-13.5 -71.5t13.5 -71.5t37 -56t56.5 -36.5t72 -13z" />
    <glyph glyph-name="yen" unicode="&#xa5;" horiz-adv-x="684" 
d="M24 695h144q-4 -3 -7.5 -9t-4.5 -14.5t3 -20t14 -27.5l197 -301l172 257q23 35 30.5 55.5t7.5 32.5t-5 17.5t-8 9.5h93q-13 -4 -32.5 -24t-45.5 -58l-195 -290h172v-17h-180v-42h170v-17h-170v-159q0 -43 11.5 -60.5t42.5 -27.5h-184q32 9 43 27t11 61v159h-167v17h167
v38l-3 4h-174v17h163l-178 271q-33 51 -53 72.5t-34 28.5z" />
    <glyph glyph-name="brokenbar" unicode="&#xa6;" horiz-adv-x="101" 
d="M59 245v-361h-17v361h17zM59 806v-360h-17v360h17z" />
    <glyph glyph-name="section" unicode="&#xa7;" horiz-adv-x="559" 
d="M230 487l-15 6q-16 6 -36.5 16.5t-39 27t-31 41t-12.5 58.5q0 63 45.5 101t123.5 38q27 0 54.5 -4.5t53 -13t47.5 -19.5t38 -23l-5 -136q-56 182 -186 182q-25 0 -46.5 -7t-38 -19.5t-26 -30t-9.5 -39.5q0 -23 10 -39.5t25 -28.5t32.5 -19.5t32.5 -13.5l96 -36
q19 -7 44 -17.5t47 -28t37 -44.5t15 -67q0 -63 -39 -107.5t-114 -57.5l15 -6q16 -6 36.5 -16.5t39 -27t31 -40.5t12.5 -58q0 -32 -14 -58t-38.5 -44t-58.5 -28t-74 -10q-27 0 -54 4.5t-52 13t-47 19.5t-38 23l5 136q56 -182 186 -182q25 0 49 7t43 19.5t30.5 31t11.5 41.5
q0 21 -10 37t-25 27.5t-32.5 19.5t-32.5 14l-96 36q-19 7 -44 17.5t-47 28t-37 44.5t-15 67q0 63 39 107.5t114 57.5zM241 241l64 -25q61 6 91 40t30 82q0 31 -11 50.5t-26.5 31.5t-33.5 19t-33 13l-64 25q-61 -6 -91 -40t-30 -82q0 -31 11 -50.5t26.5 -31.5t33.5 -19
t33 -13z" />
    <glyph glyph-name="copyright" unicode="&#xa9;" horiz-adv-x="813" 
d="M44 348q0 79 28 145t76.5 114t115 74.5t142.5 26.5q77 0 143.5 -26.5t115 -74.5t76.5 -114t28 -145t-28 -145t-76.5 -113.5t-115 -74t-143.5 -26.5q-76 0 -142.5 26.5t-115 74t-76.5 113.5t-28 145zM406 3q73 0 136.5 25.5t110 71t73 109t26.5 139.5t-26.5 139.5
t-73 109.5t-110 71.5t-136.5 25.5t-136 -25.5t-109.5 -71.5t-73 -109.5t-26.5 -139.5t26.5 -139.5t73 -109t109.5 -71t136 -25.5zM207 349q0 44 16 81.5t43.5 64.5t65.5 42t81 15q44 0 85.5 -15.5t70.5 -47.5l-17 -94q-28 79 -61.5 110t-78.5 31q-60 0 -88.5 -49t-28.5 -131
q0 -94 33.5 -143.5t88.5 -49.5q29 0 53 12.5t43.5 33t34.5 48t25 57.5l-6 -119q-15 -13 -34 -22t-39.5 -15t-40.5 -8.5t-37 -2.5q-45 0 -83.5 15.5t-66.5 42.5t-43.5 64t-15.5 80z" />
    <glyph glyph-name="ordfeminine" unicode="&#xaa;" horiz-adv-x="409" 
d="M209 523l75 18v48q0 100 -77 100q-45 0 -81 -38t-63 -123l-3 123q26 24 64.5 38t83.5 14q66 0 103 -30.5t37 -86.5v-222q0 -23 5.5 -39.5t16.5 -23.5l-83 -2v103q-19 -56 -50.5 -80t-79.5 -24q-54 0 -88.5 25.5t-34.5 69.5q0 32 18.5 54t45 37t57 24t54.5 15zM174 313
q23 0 42.5 11t34.5 31.5t23.5 49.5t8.5 65v55l-71 -16q-105 -24 -105 -112q0 -39 17.5 -61.5t49.5 -22.5z" />
    <glyph glyph-name="guillemotleft" unicode="&#xab;" horiz-adv-x="595" 
d="M297 588l-248 -241l248 -239l-12 -12l-257 251l257 253zM564 588l-248 -241l248 -239l-12 -12l-257 251l257 253z" />
    <glyph glyph-name="logicalnot" unicode="&#xac;" horiz-adv-x="651" 
d="M576 184h-16v154h-485v17h501v-171z" />
    <glyph glyph-name="uni00AD" unicode="&#xad;" horiz-adv-x="500" 
d="M425 383v-16h-350v16h350z" />
    <glyph glyph-name="registered" unicode="&#xae;" horiz-adv-x="813" 
d="M44 347q0 79 28 145t76.5 114t115 74.5t143.5 26.5t143 -26.5t114.5 -74.5t76.5 -114t28 -145t-28 -145t-76.5 -113.5t-114.5 -74t-143 -26.5t-143.5 26.5t-115 74t-76.5 113.5t-28 145zM61 347q0 -76 26.5 -139.5t73 -109t110 -71t136.5 -25.5t136 25.5t109.5 71t73 109
t26.5 139.5t-26.5 139.5t-73 109.5t-109.5 71.5t-136 25.5t-136.5 -25.5t-110 -71.5t-73 -109.5t-26.5 -139.5zM251 540h157q24 0 49.5 -5t47 -16.5t35 -30.5t13.5 -48q0 -22 -8.5 -39.5t-22.5 -30.5t-31.5 -21.5t-36.5 -13.5l75 -103q7 -9 16.5 -21.5t19 -24.5t17 -20.5
t10.5 -10.5h-118q6 15 2.5 29t-22.5 40l-76 106h-30v-126q0 -23 6.5 -33t23.5 -16h-127q18 5 24 15t6 34v287q0 24 -6 34t-24 15zM348 343h50q21 0 36.5 8t26 21t16 30t5.5 36q0 42 -24 65t-67 23h-43v-183z" />
    <glyph glyph-name="degree" unicode="&#xb0;" horiz-adv-x="441" 
d="M88 570q0 58 37 94.5t95 36.5t95 -36.5t37 -94.5t-37 -95t-95 -37t-95 37t-37 95zM104 570q0 -52 32.5 -85.5t83.5 -33.5t83.5 33.5t32.5 85.5t-32.5 85t-83.5 33t-83.5 -33t-32.5 -85z" />
    <glyph glyph-name="plusminus" unicode="&#xb1;" horiz-adv-x="665" 
d="M75 407h250v210h15v-210h250v-16h-250v-209h-15v209h-250v16zM75 107h515v-16h-515v16z" />
    <glyph glyph-name="uni00B5" unicode="&#xb5;" horiz-adv-x="689" 
d="M77 -189q16 4 26 10.5t16 16t8 24.5t2 36v558q0 21 -1.5 36.5t-4.5 27.5t-8.5 22t-13.5 20l102 9v-390q0 -48 8.5 -81t24.5 -53t37.5 -28.5t48.5 -8.5q45 0 79.5 21.5t57.5 56.5t35.5 80t14.5 91v197q0 21 -1.5 36.5t-4.5 27.5t-8.5 22t-13.5 20l102 9v-472
q0 -44 7 -64.5t21 -34.5l-98 -3v187q-21 -85 -71 -137t-136 -52q-32 0 -58.5 8.5t-46.5 27.5v-133q0 -21 2.5 -35.5t8.5 -24.5t16 -16t25 -11h-176z" />
    <glyph glyph-name="paragraph" unicode="&#xb6;" horiz-adv-x="382" 
d="M36 526q0 39 15 70t41 53t61.5 34t76.5 12h30v-781h-17v433h-2q-45 0 -83 12.5t-65 36t-42 56.5t-15 74zM323 695h17v-781h-17v781z" />
    <glyph glyph-name="periodcentered" unicode="&#xb7;" horiz-adv-x="273" 
d="M97 297q0 16 11 26.5t28 10.5t28 -10.5t11 -26.5q0 -17 -11 -27.5t-28 -10.5t-28 10.5t-11 27.5z" />
    <glyph glyph-name="ordmasculine" unicode="&#xba;" horiz-adv-x="483" 
d="M35 499q0 45 15 82.5t42.5 64.5t65.5 42t84 15t84 -15t65 -42t42 -64.5t15 -82.5t-15 -82.5t-42 -64t-65 -41.5t-84 -15t-84 15t-65.5 41.5t-42.5 64t-15 82.5zM242 310q34 0 59.5 15.5t43 41.5t26.5 60.5t9 71.5q0 41 -9 76t-27 60t-43.5 39t-58.5 14q-34 0 -60 -14
t-43.5 -39.5t-26.5 -60t-9 -75.5t9 -76t27 -60t44 -39t59 -14z" />
    <glyph glyph-name="guillemotright" unicode="&#xbb;" horiz-adv-x="595" 
d="M300 347l-257 -251l-12 12l248 239l-248 241l12 12zM567 347l-257 -251l-12 12l248 239l-248 241l12 12z" />
    <glyph glyph-name="questiondown" unicode="&#xbf;" horiz-adv-x="435" 
d="M221 388h6q8 -65 2.5 -112.5t-18 -82.5t-29 -62t-31.5 -51.5t-25.5 -49.5t-10.5 -58q0 -45 25 -68.5t67 -23.5q24 0 48 10t46.5 33.5t42 63t33.5 97.5l-6 -161q-28 -22 -71 -40t-96 -18q-72 0 -115.5 33t-43.5 87q0 32 14.5 59t36 54t46 55t44 62t30.5 76.5t5 96.5z
M186 532q0 17 11 27.5t28 10.5t28 -10.5t11 -27.5q0 -16 -11 -26.5t-28 -10.5t-28 10.5t-11 26.5z" />
    <glyph glyph-name="Agrave" unicode="&#xc0;" horiz-adv-x="751" 
d="M114 142l257 553h6l293 -626q17 -36 30 -50.5t26 -18.5h-152q7 3 13 8.5t9 16.5t0.5 27t-13.5 40l-82 178h-307l-82 -176q-12 -26 -16 -43t-2.5 -27.5t7 -15.5t11.5 -8h-88q7 2 14 7.5t17 20.5t24 42t35 72zM200 285h294l-147 316zM328 928l48 -168h-3l-119 168h74z" />
    <glyph glyph-name="Aacute" unicode="&#xc1;" horiz-adv-x="751" 
d="M114 142l257 553h6l293 -626q17 -36 30 -50.5t26 -18.5h-152q7 3 13 8.5t9 16.5t0.5 27t-13.5 40l-82 178h-307l-82 -176q-12 -26 -16 -43t-2.5 -27.5t7 -15.5t11.5 -8h-88q7 2 14 7.5t17 20.5t24 42t35 72zM200 285h294l-147 316zM372 760l48 168h74l-119 -168h-3z" />
    <glyph glyph-name="Acircumflex" unicode="&#xc2;" horiz-adv-x="751" 
d="M114 142l257 553h6l293 -626q17 -36 30 -50.5t26 -18.5h-152q7 3 13 8.5t9 16.5t0.5 27t-13.5 40l-82 178h-307l-82 -176q-12 -26 -16 -43t-2.5 -27.5t7 -15.5t11.5 -8h-88q7 2 14 7.5t17 20.5t24 42t35 72zM494 285l-147 316l-147 -316h294zM371 936h4l123 -166l-2 -2
l-123 96l-122 -96l-2 2z" />
    <glyph glyph-name="Atilde" unicode="&#xc3;" horiz-adv-x="751" 
d="M24 0q7 2 14 7.5t17 20.5t24 42t35 72l257 553h6l293 -626q17 -36 30 -50.5t26 -18.5h-152q7 3 13 8.5t9 16.5t0.5 27t-13.5 40l-82 178h-307l-82 -176q-12 -26 -16 -43t-2.5 -27.5t7 -15.5t11.5 -8h-88zM200 285h294l-147 316zM326 893q32 0 46.5 -13t23.5 -28t18.5 -28
t31.5 -13q26 0 39 21t12 56h10q2 -49 -21 -71.5t-61 -22.5q-32 0 -47 12.5t-24.5 28t-19.5 28t-31 12.5q-26 0 -38.5 -20.5t-11.5 -55.5h-11q-2 49 22 71.5t62 22.5z" />
    <glyph glyph-name="Adieresis" unicode="&#xc4;" horiz-adv-x="751" 
d="M24 0q7 2 14 7.5t17 20.5t24 42t35 72l257 553h6l293 -626q17 -36 30 -50.5t26 -18.5h-152q7 3 13 8.5t9 16.5t0.5 27t-13.5 40l-82 178h-307l-82 -176q-12 -26 -16 -43t-2.5 -27.5t7 -15.5t11.5 -8h-88zM200 285h294l-147 316zM453 884q23 0 38 -13.5t15 -36.5t-15 -37
t-38 -14q-22 0 -37 14t-15 37t15 36.5t37 13.5zM241 834q0 23 15 36.5t37 13.5q23 0 38 -13.5t15 -36.5t-15 -37t-38 -14q-22 0 -37 14t-15 37z" />
    <glyph glyph-name="Aring" unicode="&#xc5;" horiz-adv-x="751" 
d="M24 0q7 2 14 7.5t17 20.5t24 42t35 72l257 553h6l293 -626q17 -36 30 -50.5t26 -18.5h-152q7 3 13 8.5t9 16.5t0.5 27t-13.5 40l-82 178h-307l-82 -176q-12 -26 -16 -43t-2.5 -27.5t7 -15.5t11.5 -8h-88zM200 285h294l-147 316zM271 838q0 44 29 71.5t74 27.5t73.5 -27.5
t28.5 -71.5q0 -45 -28.5 -72t-73.5 -27t-74 28t-29 71zM374 751q38 0 62 24.5t24 62.5t-24 62.5t-62 24.5t-62.5 -24.5t-24.5 -62.5t24.5 -62.5t62.5 -24.5z" />
    <glyph glyph-name="AE" unicode="&#xc6;" horiz-adv-x="841" 
d="M114 142l244 553h398l21 -183q-12 52 -34 84.5t-50.5 50.5t-62 24.5t-70.5 6.5h-138l22 -296h72q48 0 80 6t52 18t30.5 29t15.5 39l-14 -203q-1 22 -9.5 39.5t-28 29.5t-51.5 18.5t-81 6.5h-64l26 -348h116q37 0 69 7.5t58.5 28.5t47 58t32.5 96l-18 -207h-437
q30 9 44 27.5t11 62.5l-13 172h-196l-74 -168q-12 -26 -15.5 -43t-2 -27.5t6.5 -15.5t11 -8h-88q7 2 14.5 7.5t17.5 20.5t24 42t34 72zM193 277h188l-28 366z" />
    <glyph glyph-name="Ccedilla" unicode="&#xc7;" horiz-adv-x="675" 
d="M375 701q20 0 47.5 -3t58.5 -10.5t63 -19.5t61 -30l16 -231q-28 142 -95.5 210.5t-156.5 68.5q-50 0 -94 -21t-76.5 -63.5t-51 -106t-18.5 -147.5q0 -86 19.5 -150t53.5 -106t80 -62.5t99 -20.5q33 0 66.5 8.5t65 29t59.5 54t49 84.5v-110q-19 -16 -44 -30.5t-54 -25
t-61 -17.5t-66 -8l-13 -42q18 4 35.5 2.5t31 -7.5t21.5 -17.5t8 -27.5q0 -33 -24 -51t-58 -18q-20 0 -37 8t-25 19l4 46q5 -24 21.5 -42.5t42.5 -18.5q11 0 21.5 8t10.5 28q0 10 -3.5 21.5t-11 20.5t-19.5 13.5t-29 1.5l9 56q-72 0 -133.5 27.5t-107 75t-71 112t-25.5 140.5
q0 75 26.5 139.5t72 111.5t105.5 74t127 27z" />
    <glyph glyph-name="Egrave" unicode="&#xc8;" horiz-adv-x="582" 
d="M42 0q32 9 45 27.5t13 62.5v519q0 22 -2 36.5t-7 24t-15 15.5t-26 10h447l21 -183q-12 52 -34 84.5t-50.5 50.5t-62 24.5t-70.5 6.5h-125v-296h81q51 0 83.5 6t52 18t28.5 29t14 39l-14 -203q-1 22 -7.5 39.5t-24 29.5t-49.5 18.5t-85 6.5h-79v-348h153q37 0 69 7.5
t58.5 28.5t47 58t32.5 96l-18 -207h-476zM180 928h74l48 -168h-3z" />
    <glyph glyph-name="Eacute" unicode="&#xc9;" horiz-adv-x="582" 
d="M42 0q32 9 45 27.5t13 62.5v519q0 22 -2 36.5t-7 24t-15 15.5t-26 10h447l21 -183q-12 52 -34 84.5t-50.5 50.5t-62 24.5t-70.5 6.5h-125v-296h81q51 0 83.5 6t52 18t28.5 29t14 39l-14 -203q-1 22 -7.5 39.5t-24 29.5t-49.5 18.5t-85 6.5h-79v-348h153q37 0 69 7.5
t58.5 28.5t47 58t32.5 96l-18 -207h-476zM346 928h74l-119 -168h-3z" />
    <glyph glyph-name="Ecircumflex" unicode="&#xca;" horiz-adv-x="582" 
d="M42 0q32 9 45 27.5t13 62.5v519q0 22 -2 36.5t-7 24t-15 15.5t-26 10h447l21 -183q-12 52 -34 84.5t-50.5 50.5t-62 24.5t-70.5 6.5h-125v-296h81q51 0 83.5 6t52 18t28.5 29t14 39l-14 -203q-1 22 -7.5 39.5t-24 29.5t-49.5 18.5t-85 6.5h-79v-348h153q37 0 69 7.5
t58.5 28.5t47 58t32.5 96l-18 -207h-476zM297 936h4l123 -166l-2 -2l-123 96l-122 -96l-2 2z" />
    <glyph glyph-name="Edieresis" unicode="&#xcb;" horiz-adv-x="582" 
d="M100 90v519q0 22 -2 36.5t-7 24t-15 15.5t-26 10h447l21 -183q-12 52 -34 84.5t-50.5 50.5t-62 24.5t-70.5 6.5h-125v-296h81q51 0 83.5 6t52 18t28.5 29t14 39l-14 -203q-1 22 -7.5 39.5t-24 29.5t-49.5 18.5t-85 6.5h-79v-348h153q37 0 69 7.5t58.5 28.5t47 58t32.5 96
l-18 -207h-476q32 9 45 27.5t13 62.5zM327 834q0 23 15 36.5t37 13.5q23 0 38 -13.5t15 -36.5t-15 -37t-38 -14q-22 0 -37 14t-15 37zM167 834q0 23 15 36.5t37 13.5q23 0 38 -13.5t15 -36.5t-15 -37t-38 -14q-22 0 -37 14t-15 37z" />
    <glyph glyph-name="Igrave" unicode="&#xcc;" horiz-adv-x="267" 
d="M225 695q-16 -5 -26 -11.5t-16 -19.5t-8.5 -33.5t-2.5 -53.5v-459q0 -33 2.5 -53.5t8.5 -33t16 -19.5t26 -12h-183q16 5 26.5 11.5t16.5 19t8.5 33.5t2.5 54v459q0 33 -2.5 54t-8.5 33.5t-16.5 19.5t-26.5 11h183zM14 928h74l48 -168h-3z" />
    <glyph glyph-name="Iacute" unicode="&#xcd;" horiz-adv-x="267" 
d="M42 0q16 5 26.5 11.5t16.5 19t8.5 33.5t2.5 54v459q0 33 -2.5 54t-8.5 33.5t-16.5 19.5t-26.5 11h183q-16 -5 -26 -11.5t-16 -19.5t-8.5 -33.5t-2.5 -53.5v-459q0 -33 2.5 -53.5t8.5 -33t16 -19.5t26 -12h-183zM132 760l48 168h74l-119 -168h-3z" />
    <glyph glyph-name="Icircumflex" unicode="&#xce;" horiz-adv-x="267" 
d="M96 118v459q0 33 -2.5 54t-8.5 33.5t-16.5 19.5t-26.5 11h183q-16 -5 -26 -11.5t-16 -19.5t-8.5 -33.5t-2.5 -53.5v-459q0 -33 2.5 -53.5t8.5 -33t16 -19.5t26 -12h-183q16 5 26.5 11.5t16.5 19t8.5 33.5t2.5 54zM9 770l122 166h4l123 -166l-2 -2l-123 96l-122 -96z" />
    <glyph glyph-name="Idieresis" unicode="&#xcf;" horiz-adv-x="267" 
d="M42 0q16 5 26.5 11.5t16.5 19t8.5 33.5t2.5 54v459q0 33 -2.5 54t-8.5 33.5t-16.5 19.5t-26.5 11h183q-16 -5 -26 -11.5t-16 -19.5t-8.5 -33.5t-2.5 -53.5v-459q0 -33 2.5 -53.5t8.5 -33t16 -19.5t26 -12h-183zM161 834q0 23 15 36.5t37 13.5q23 0 38 -13.5t15 -36.5
t-15 -37t-38 -14q-22 0 -37 14t-15 37zM1 834q0 23 15 36.5t37 13.5q23 0 38 -13.5t15 -36.5t-15 -37t-38 -14q-22 0 -37 14t-15 37z" />
    <glyph glyph-name="Eth" unicode="&#xd0;" horiz-adv-x="714" 
d="M30 361h66v248q0 22 -2 36.5t-7 24t-15 15.5t-26 10h275q76 0 140 -24.5t110.5 -69t72.5 -108t26 -141.5t-26 -143t-72.5 -111.5t-110.5 -72t-140 -25.5h-283q32 9 45 27.5t13 62.5v255h-66v16zM172 17h145q58 0 107 20t84.5 61t55.5 104t20 148t-20 147t-55.5 102
t-84.5 59.5t-107 19.5h-145v-317h158v-16h-158v-328z" />
    <glyph glyph-name="Ntilde" unicode="&#xd1;" horiz-adv-x="742" 
d="M138 695l494 -574v486q0 22 -2.5 36.5t-8.5 24.5t-16.5 16.5t-26.5 10.5h125q-31 -10 -42.5 -27.5t-11.5 -60.5v-607h-7l-529 615v-527q0 -43 11.5 -60.5t42.5 -27.5h-125q32 9 43 27t11 61v519q0 22 -2.5 36.5t-8.5 24.5t-16.5 16.5t-26.5 10.5h96zM338 893
q32 0 46.5 -13t23.5 -28t18.5 -28t31.5 -13q26 0 39 21t12 56h10q2 -49 -21 -71.5t-61 -22.5q-32 0 -47 12.5t-24.5 28t-19.5 28t-31 12.5q-26 0 -38.5 -20.5t-11.5 -55.5h-11q-2 49 22 71.5t62 22.5z" />
    <glyph glyph-name="Ograve" unicode="&#xd2;" horiz-adv-x="758" 
d="M379 702q73 0 134.5 -27t106 -74.5t69.5 -112.5t25 -140t-25 -140t-69.5 -112.5t-106 -74.5t-134.5 -27t-134.5 27t-106 74.5t-69.5 112.5t-25 140t25 140t69.5 112.5t106 74.5t134.5 27zM379 9q56 0 102 21t79 63.5t51 106t18 148.5t-18 148.5t-51 106t-79 63.5t-102 21
t-102 -21t-79 -63.5t-51 -106t-18 -148.5t18 -148.5t51 -106t79 -63.5t102 -21zM334 928l48 -168h-3l-119 168h74z" />
    <glyph glyph-name="Oacute" unicode="&#xd3;" horiz-adv-x="758" 
d="M379 702q73 0 134.5 -27t106 -74.5t69.5 -112.5t25 -140t-25 -140t-69.5 -112.5t-106 -74.5t-134.5 -27t-134.5 27t-106 74.5t-69.5 112.5t-25 140t25 140t69.5 112.5t106 74.5t134.5 27zM379 9q56 0 102 21t79 63.5t51 106t18 148.5t-18 148.5t-51 106t-79 63.5t-102 21
t-102 -21t-79 -63.5t-51 -106t-18 -148.5t18 -148.5t51 -106t79 -63.5t102 -21zM378 760l48 168h74l-119 -168h-3z" />
    <glyph glyph-name="Ocircumflex" unicode="&#xd4;" horiz-adv-x="758" 
d="M379 702q73 0 134.5 -27t106 -74.5t69.5 -112.5t25 -140t-25 -140t-69.5 -112.5t-106 -74.5t-134.5 -27t-134.5 27t-106 74.5t-69.5 112.5t-25 140t25 140t69.5 112.5t106 74.5t134.5 27zM129 348q0 -85 18 -148.5t51 -106t79 -63.5t102 -21t102 21t79 63.5t51 106
t18 148.5t-18 148.5t-51 106t-79 63.5t-102 21t-102 -21t-79 -63.5t-51 -106t-18 -148.5zM255 770l122 166h4l123 -166l-2 -2l-123 96l-122 -96z" />
    <glyph glyph-name="Otilde" unicode="&#xd5;" horiz-adv-x="758" 
d="M379 702q73 0 134.5 -27t106 -74.5t69.5 -112.5t25 -140t-25 -140t-69.5 -112.5t-106 -74.5t-134.5 -27t-134.5 27t-106 74.5t-69.5 112.5t-25 140t25 140t69.5 112.5t106 74.5t134.5 27zM129 348q0 -85 18 -148.5t51 -106t79 -63.5t102 -21t102 21t79 63.5t51 106
t18 148.5t-18 148.5t-51 106t-79 63.5t-102 21t-102 -21t-79 -63.5t-51 -106t-18 -148.5zM332 893q32 0 46.5 -13t23.5 -28t18.5 -28t31.5 -13q26 0 39 21t12 56h10q2 -49 -21 -71.5t-61 -22.5q-32 0 -47 12.5t-24.5 28t-19.5 28t-31 12.5q-26 0 -38.5 -20.5t-11.5 -55.5
h-11q-2 49 22 71.5t62 22.5z" />
    <glyph glyph-name="Odieresis" unicode="&#xd6;" horiz-adv-x="758" 
d="M379 702q73 0 134.5 -27t106 -74.5t69.5 -112.5t25 -140t-25 -140t-69.5 -112.5t-106 -74.5t-134.5 -27t-134.5 27t-106 74.5t-69.5 112.5t-25 140t25 140t69.5 112.5t106 74.5t134.5 27zM379 9q56 0 102 21t79 63.5t51 106t18 148.5t-18 148.5t-51 106t-79 63.5t-102 21
t-102 -21t-79 -63.5t-51 -106t-18 -148.5t18 -148.5t51 -106t79 -63.5t102 -21zM459 884q23 0 38 -13.5t15 -36.5t-15 -37t-38 -14q-22 0 -37 14t-15 37t15 36.5t37 13.5zM247 834q0 23 15 36.5t37 13.5q23 0 38 -13.5t15 -36.5t-15 -37t-38 -14q-22 0 -37 14t-15 37z" />
    <glyph glyph-name="multiply" unicode="&#xd7;" horiz-adv-x="519" 
d="M56 538l12 12l192 -192l190 190l12 -12l-190 -190l189 -189l-12 -12l-189 189l-190 -190l-12 12l190 190z" />
    <glyph glyph-name="Oslash" unicode="&#xd8;" horiz-adv-x="758" 
d="M379 702q66 0 123 -22.5t101 -62.5l69 84l10 -7l-71 -86q49 -48 76 -114.5t27 -145.5q0 -75 -25 -140t-69.5 -112.5t-106 -74.5t-134.5 -27q-63 0 -116 20t-96 55l-61 -74l-10 7l62 75q-54 48 -84 117.5t-30 153.5q0 75 25 140t69.5 112.5t106 74.5t134.5 27zM129 348
q0 -77 15 -136t42 -101l388 471q-33 53 -82.5 79t-112.5 26q-56 0 -102 -21t-79 -63.5t-51 -106t-18 -148.5zM379 9q56 0 102 21t79 63.5t51 106t18 148.5q0 71 -12.5 126t-35.5 97l-388 -470q33 -46 80.5 -69t105.5 -23z" />
    <glyph glyph-name="Ugrave" unicode="&#xd9;" horiz-adv-x="678" 
d="M220 695q-31 -10 -42.5 -27.5t-11.5 -60.5v-345q0 -119 48.5 -185.5t136.5 -66.5q104 0 162 70t58 196v331q0 22 -2.5 36.5t-8.5 24.5t-16.5 16.5t-26.5 10.5h126q-31 -10 -42.5 -27.5t-11.5 -60.5v-328q0 -135 -63 -209.5t-175 -74.5q-126 0 -193.5 63.5t-67.5 187.5
v361q0 22 -2.5 36.5t-8.5 24.5t-16.5 16.5t-26.5 10.5h184zM234 928h74l48 -168h-3z" />
    <glyph glyph-name="Uacute" unicode="&#xda;" horiz-adv-x="678" 
d="M220 695q-31 -10 -42.5 -27.5t-11.5 -60.5v-345q0 -119 48.5 -185.5t136.5 -66.5q104 0 162 70t58 196v331q0 22 -2.5 36.5t-8.5 24.5t-16.5 16.5t-26.5 10.5h126q-31 -10 -42.5 -27.5t-11.5 -60.5v-328q0 -135 -63 -209.5t-175 -74.5q-126 0 -193.5 63.5t-67.5 187.5
v361q0 22 -2.5 36.5t-8.5 24.5t-16.5 16.5t-26.5 10.5h184zM400 928h74l-119 -168h-3z" />
    <glyph glyph-name="Ucircumflex" unicode="&#xdb;" horiz-adv-x="678" 
d="M220 695q-31 -10 -42.5 -27.5t-11.5 -60.5v-345q0 -119 48.5 -185.5t136.5 -66.5q104 0 162 70t58 196v331q0 22 -2.5 36.5t-8.5 24.5t-16.5 16.5t-26.5 10.5h126q-31 -10 -42.5 -27.5t-11.5 -60.5v-328q0 -135 -63 -209.5t-175 -74.5q-126 0 -193.5 63.5t-67.5 187.5
v361q0 22 -2.5 36.5t-8.5 24.5t-16.5 16.5t-26.5 10.5h184zM351 936h4l123 -166l-2 -2l-123 96l-122 -96l-2 2z" />
    <glyph glyph-name="Udieresis" unicode="&#xdc;" horiz-adv-x="678" 
d="M36 695h184q-31 -10 -42.5 -27.5t-11.5 -60.5v-345q0 -119 48.5 -185.5t136.5 -66.5q104 0 162 70t58 196v331q0 22 -2.5 36.5t-8.5 24.5t-16.5 16.5t-26.5 10.5h126q-31 -10 -42.5 -27.5t-11.5 -60.5v-328q0 -135 -63 -209.5t-175 -74.5q-126 0 -193.5 63.5t-67.5 187.5
v361q0 22 -2.5 36.5t-8.5 24.5t-16.5 16.5t-26.5 10.5zM381 834q0 23 15 36.5t37 13.5q23 0 38 -13.5t15 -36.5t-15 -37t-38 -14q-22 0 -37 14t-15 37zM221 834q0 23 15 36.5t37 13.5q23 0 38 -13.5t15 -36.5t-15 -37t-38 -14q-22 0 -37 14t-15 37z" />
    <glyph glyph-name="Yacute" unicode="&#xdd;" horiz-adv-x="684" 
d="M168 695q-4 -3 -7.5 -9t-4.5 -14.5t3 -20t14 -27.5l197 -301l172 257q23 35 30.5 55.5t7.5 32.5t-5 17.5t-8 9.5h93q-13 -4 -32.5 -24t-45.5 -58l-203 -302v-223q0 -43 11.5 -60.5t42.5 -27.5h-184q32 9 43 27t11 61v214l-192 292q-33 51 -53 72.5t-34 28.5h144zM358 760
l48 168h74l-119 -168h-3z" />
    <glyph glyph-name="Thorn" unicode="&#xde;" horiz-adv-x="613" 
d="M42 0q16 5 26.5 11.5t16.5 19t8.5 33.5t2.5 54v459q0 33 -2.5 54t-8.5 33.5t-16.5 19.5t-26.5 11h183q-15 -5 -25 -11.5t-16 -18.5t-9 -31t-3 -49h144q43 0 89 -9.5t84.5 -32t63 -59t24.5 -91.5q0 -54 -24.5 -93t-63 -64.5t-84.5 -38t-89 -12.5h-144v-67q0 -33 2.5 -53.5
t8.5 -33t16 -19.5t26 -12h-183zM172 569v-368h118q40 0 77 10.5t65.5 33.5t45.5 58.5t17 85.5q0 88 -53.5 134t-151.5 46h-118z" />
    <glyph glyph-name="germandbls" unicode="&#xdf;" horiz-adv-x="592" 
d="M10 554v11h102v58q0 44 15 76t40 52.5t57.5 30t66.5 9.5q35 0 61.5 -9t46 -24t33 -33.5t20.5 -37.5l-97 -206q53 -48 92.5 -87.5t66.5 -75.5t40.5 -72t13.5 -78q0 -35 -9 -66.5t-27.5 -55t-47.5 -37.5t-69 -14q-35 0 -70 11t-66 35l17 139q20 -83 49.5 -127t82.5 -44
q50 0 81.5 35t31.5 87q0 36 -17.5 70t-48 69t-71.5 72.5t-88 80.5q45 83 59.5 149t7 111.5t-33.5 69.5t-61 24q-15 0 -33 -5.5t-33.5 -19t-25.5 -36t-10 -56.5v-573q1 -43 10 -60t32 -27h-168q16 5 26 11t16 15.5t8 24.5t2 36v467h-102z" />
    <glyph glyph-name="agrave" unicode="&#xe0;" horiz-adv-x="520" 
d="M275 310l111 27v72q0 75 -29.5 110.5t-89.5 35.5q-28 0 -57 -9.5t-54.5 -34t-47 -66.5t-35.5 -106l-6 167q37 29 91 46t111 17q88 0 139.5 -42t51.5 -123v-317q0 -29 6.5 -51t21.5 -36l-98 -3v132q-10 -25 -25.5 -49t-38 -43t-53.5 -30t-71 -11q-36 0 -67.5 8t-54 24.5
t-35.5 41t-13 57.5q0 45 24.5 76t61.5 52t79 33.5t78 21.5zM218 11q28 0 57 12t53 35.5t40 58.5t18 81v124l-109 -26q-21 -5 -49.5 -15t-54 -28.5t-43 -48.5t-17.5 -76q0 -51 27.5 -84t77.5 -33zM140 801h74l48 -168h-3z" />
    <glyph glyph-name="aacute" unicode="&#xe1;" horiz-adv-x="520" 
d="M275 310l111 27v72q0 75 -29.5 110.5t-89.5 35.5q-28 0 -57 -9.5t-54.5 -34t-47 -66.5t-35.5 -106l-6 167q37 29 91 46t111 17q88 0 139.5 -42t51.5 -123v-317q0 -29 6.5 -51t21.5 -36l-98 -3v132q-10 -25 -25.5 -49t-38 -43t-53.5 -30t-71 -11q-36 0 -67.5 8t-54 24.5
t-35.5 41t-13 57.5q0 45 24.5 76t61.5 52t79 33.5t78 21.5zM218 11q28 0 57 12t53 35.5t40 58.5t18 81v124l-109 -26q-21 -5 -49.5 -15t-54 -28.5t-43 -48.5t-17.5 -76q0 -51 27.5 -84t77.5 -33zM304 801h74l-119 -168h-3z" />
    <glyph glyph-name="acircumflex" unicode="&#xe2;" horiz-adv-x="520" 
d="M275 310l111 27v72q0 75 -29.5 110.5t-89.5 35.5q-28 0 -57 -9.5t-54.5 -34t-47 -66.5t-35.5 -106l-6 167q37 29 91 46t111 17q88 0 139.5 -42t51.5 -123v-317q0 -29 6.5 -51t21.5 -36l-98 -3v132q-10 -25 -25.5 -49t-38 -43t-53.5 -30t-71 -11q-36 0 -67.5 8t-54 24.5
t-35.5 41t-13 57.5q0 45 24.5 76t61.5 52t79 33.5t78 21.5zM218 11q28 0 57 12t53 35.5t40 58.5t18 81v124l-109 -26q-21 -5 -49.5 -15t-54 -28.5t-43 -48.5t-17.5 -76q0 -51 27.5 -84t77.5 -33zM256 796h4l123 -166l-2 -2l-123 96l-122 -96l-2 2z" />
    <glyph glyph-name="atilde" unicode="&#xe3;" horiz-adv-x="520" 
d="M32 127q0 45 24.5 76t61.5 52t79 33.5t78 21.5l111 27v72q0 75 -29.5 110.5t-89.5 35.5q-28 0 -57 -9.5t-54.5 -34t-47 -66.5t-35.5 -106l-6 167q37 29 91 46t111 17q88 0 139.5 -42t51.5 -123v-317q0 -29 6.5 -51t21.5 -36l-98 -3v132q-10 -25 -25.5 -49t-38 -43
t-53.5 -30t-71 -11q-36 0 -67.5 8t-54 24.5t-35.5 41t-13 57.5zM113 128q0 -51 27.5 -84t77.5 -33q28 0 57 12t53 35.5t40 58.5t18 81v124l-109 -26q-21 -5 -49.5 -15t-54 -28.5t-43 -48.5t-17.5 -76zM210 734q32 0 46.5 -13t23.5 -28t18.5 -28t31.5 -13q26 0 39 21t12 56
h10q2 -49 -21 -71.5t-61 -22.5q-32 0 -47 12.5t-24.5 28t-19.5 28t-31 12.5q-26 0 -38.5 -20.5t-11.5 -55.5h-11q-2 49 22 71.5t62 22.5z" />
    <glyph glyph-name="adieresis" unicode="&#xe4;" horiz-adv-x="520" 
d="M32 127q0 45 24.5 76t61.5 52t79 33.5t78 21.5l111 27v72q0 75 -29.5 110.5t-89.5 35.5q-28 0 -57 -9.5t-54.5 -34t-47 -66.5t-35.5 -106l-6 167q37 29 91 46t111 17q88 0 139.5 -42t51.5 -123v-317q0 -29 6.5 -51t21.5 -36l-98 -3v132q-10 -25 -25.5 -49t-38 -43
t-53.5 -30t-71 -11q-36 0 -67.5 8t-54 24.5t-35.5 41t-13 57.5zM113 128q0 -51 27.5 -84t77.5 -33q28 0 57 12t53 35.5t40 58.5t18 81v124l-109 -26q-21 -5 -49.5 -15t-54 -28.5t-43 -48.5t-17.5 -76zM339 742q23 0 38 -13.5t15 -36.5t-15 -37t-38 -14q-22 0 -37 14t-15 37
t15 36.5t37 13.5zM127 692q0 23 15 36.5t37 13.5q23 0 38 -13.5t15 -36.5t-15 -37t-38 -14q-22 0 -37 14t-15 37z" />
    <glyph glyph-name="aring" unicode="&#xe5;" horiz-adv-x="520" 
d="M32 127q0 45 24.5 76t61.5 52t79 33.5t78 21.5l111 27v72q0 75 -29.5 110.5t-89.5 35.5q-28 0 -57 -9.5t-54.5 -34t-47 -66.5t-35.5 -106l-6 167q37 29 91 46t111 17q88 0 139.5 -42t51.5 -123v-317q0 -29 6.5 -51t21.5 -36l-98 -3v132q-10 -25 -25.5 -49t-38 -43
t-53.5 -30t-71 -11q-36 0 -67.5 8t-54 24.5t-35.5 41t-13 57.5zM113 128q0 -51 27.5 -84t77.5 -33q28 0 57 12t53 35.5t40 58.5t18 81v124l-109 -26q-21 -5 -49.5 -15t-54 -28.5t-43 -48.5t-17.5 -76zM156 708q0 44 29 71.5t74 27.5t73.5 -27.5t28.5 -71.5q0 -45 -28.5 -72
t-73.5 -27t-74 28t-29 71zM259 621q38 0 62 24.5t24 62.5t-24 62.5t-62 24.5t-62.5 -24.5t-24.5 -62.5t24.5 -62.5t62.5 -24.5z" />
    <glyph glyph-name="ae" unicode="&#xe6;" horiz-adv-x="923" 
d="M32 128q0 46 25 77.5t62 53t79 34t76 20.5l113 27v69q0 75 -29.5 110.5t-87.5 35.5q-28 0 -57 -9.5t-55 -34t-48 -67t-37 -108.5l-3 162q38 35 91 53t110 18q66 0 111.5 -26t65.5 -80q29 51 78 79t123 28q107 0 169 -60t64 -172h-417q-2 -14 -3 -29.5t-1 -28.5
q0 -58 15.5 -108t42.5 -86t65 -56.5t83 -20.5q40 0 72.5 15.5t58.5 42.5t47 63t37 76l-10 -143q-45 -35 -100 -51.5t-106 -16.5q-48 0 -90 12t-75.5 34t-58.5 53t-39 68q-29 -83 -79.5 -124.5t-125.5 -41.5q-34 0 -64.5 8.5t-53 25t-35.5 41.5t-13 57zM119 131q0 -52 25 -86
t75 -34q30 0 59.5 14t53 43t38.5 74t16 107l1 76l-111 -26q-157 -37 -157 -168zM466 350h338q-1 44 -12 82t-30.5 66t-48.5 43.5t-66 15.5q-36 0 -66 -15.5t-53 -43t-39 -65.5t-23 -83z" />
    <glyph glyph-name="ccedilla" unicode="&#xe7;" horiz-adv-x="572" 
d="M305 570q65 0 121.5 -22.5t99.5 -56.5l-33 -158q-6 63 -24 106t-43.5 69t-56.5 37t-63 11q-43 0 -78.5 -19.5t-61 -55.5t-40 -86t-14.5 -111q0 -62 15 -113t42 -87t64 -55.5t82 -19.5q76 0 133 57.5t85 166.5l-7 -167q-23 -21 -50.5 -34.5t-55.5 -21.5t-55.5 -11.5
t-50.5 -3.5h-13.5t-13.5 1l-14 -44q18 4 35.5 2.5t31 -7.5t21.5 -17.5t8 -27.5q0 -33 -24 -51t-58 -18q-20 0 -37 8t-25 19l4 46q5 -24 21.5 -42.5t42.5 -18.5q11 0 21.5 8t10.5 28q0 10 -3.5 21.5t-11 20.5t-19.5 13.5t-29 1.5l10 60q-53 7 -97 30t-76 60.5t-50 87
t-18 109.5q0 63 20 115t56 90t86.5 59t111.5 21z" />
    <glyph glyph-name="egrave" unicode="&#xe8;" horiz-adv-x="578" 
d="M300 570q60 0 104.5 -17t73.5 -48t43.5 -73t15.5 -92h-421q-2 -15 -3 -30.5t-1 -31.5q0 -57 15.5 -106.5t43 -85.5t65.5 -56.5t83 -20.5q40 0 72.5 14.5t59.5 41.5t48.5 64.5t37.5 82.5l-9 -145q-44 -37 -100 -54.5t-109 -17.5q-63 0 -116 20.5t-91.5 57.5t-59.5 90
t-21 117q0 63 18.5 116t53.5 92t84.5 60.5t112.5 21.5zM118 352h341q-1 44 -12 81t-31 65t-49.5 43.5t-67.5 15.5q-36 0 -66 -15t-53.5 -42.5t-39 -65t-22.5 -82.5zM186 801h74l48 -168h-3z" />
    <glyph glyph-name="eacute" unicode="&#xe9;" horiz-adv-x="578" 
d="M300 570q60 0 104.5 -17t73.5 -48t43.5 -73t15.5 -92h-421q-2 -15 -3 -30.5t-1 -31.5q0 -57 15.5 -106.5t43 -85.5t65.5 -56.5t83 -20.5q40 0 72.5 14.5t59.5 41.5t48.5 64.5t37.5 82.5l-9 -145q-44 -37 -100 -54.5t-109 -17.5q-63 0 -116 20.5t-91.5 57.5t-59.5 90
t-21 117q0 63 18.5 116t53.5 92t84.5 60.5t112.5 21.5zM118 352h341q-1 44 -12 81t-31 65t-49.5 43.5t-67.5 15.5q-36 0 -66 -15t-53.5 -42.5t-39 -65t-22.5 -82.5zM302 633l48 168h74l-119 -168h-3z" />
    <glyph glyph-name="ecircumflex" unicode="&#xea;" horiz-adv-x="578" 
d="M31 280q0 63 18.5 116t53.5 92t84.5 60.5t112.5 21.5q60 0 104.5 -17t73.5 -48t43.5 -73t15.5 -92h-421q-2 -15 -3 -30.5t-1 -31.5q0 -57 15.5 -106.5t43 -85.5t65.5 -56.5t83 -20.5q40 0 72.5 14.5t59.5 41.5t48.5 64.5t37.5 82.5l-9 -145q-44 -37 -100 -54.5
t-109 -17.5q-63 0 -116 20.5t-91.5 57.5t-59.5 90t-21 117zM118 352h341q-1 44 -12 81t-31 65t-49.5 43.5t-67.5 15.5q-36 0 -66 -15t-53.5 -42.5t-39 -65t-22.5 -82.5zM302 796h4l123 -166l-2 -2l-123 96l-122 -96l-2 2z" />
    <glyph glyph-name="edieresis" unicode="&#xeb;" horiz-adv-x="578" 
d="M300 570q60 0 104.5 -17t73.5 -48t43.5 -73t15.5 -92h-421q-2 -15 -3 -30.5t-1 -31.5q0 -57 15.5 -106.5t43 -85.5t65.5 -56.5t83 -20.5q40 0 72.5 14.5t59.5 41.5t48.5 64.5t37.5 82.5l-9 -145q-44 -37 -100 -54.5t-109 -17.5q-63 0 -116 20.5t-91.5 57.5t-59.5 90
t-21 117q0 63 18.5 116t53.5 92t84.5 60.5t112.5 21.5zM118 352h341q-1 44 -12 81t-31 65t-49.5 43.5t-67.5 15.5q-36 0 -66 -15t-53.5 -42.5t-39 -65t-22.5 -82.5zM385 742q23 0 38 -13.5t15 -36.5t-15 -37t-38 -14q-22 0 -37 14t-15 37t15 36.5t37 13.5zM225 742
q23 0 38 -13.5t15 -36.5t-15 -37t-38 -14q-22 0 -37 14t-15 37t15 36.5t37 13.5z" />
    <glyph glyph-name="igrave" unicode="&#xec;" horiz-adv-x="232" 
d="M28 0q16 5 26 11t16 15.5t8 24.5t2 36v369q0 21 -1.5 36.5t-4.5 27.5t-8.5 22t-13.5 20l102 9v-484q0 -21 2.5 -35.5t8.5 -24.5t16 -16t25 -11h-178zM70 801l48 -168h-3l-119 168h74z" />
    <glyph glyph-name="iacute" unicode="&#xed;" horiz-adv-x="232" 
d="M28 0q16 5 26 11t16 15.5t8 24.5t2 36v369q0 21 -1.5 36.5t-4.5 27.5t-8.5 22t-13.5 20l102 9v-484q0 -21 2.5 -35.5t8.5 -24.5t16 -16t25 -11h-178zM112 633l48 168h74l-119 -168h-3z" />
    <glyph glyph-name="icircumflex" unicode="&#xee;" horiz-adv-x="232" 
d="M80 87v369q0 21 -1.5 36.5t-4.5 27.5t-8.5 22t-13.5 20l102 9v-484q0 -21 2.5 -35.5t8.5 -24.5t16 -16t25 -11h-178q16 5 26 11t16 15.5t8 24.5t2 36zM112 796h4l123 -166l-2 -2l-123 96l-122 -96l-2 2z" />
    <glyph glyph-name="idieresis" unicode="&#xef;" horiz-adv-x="232" 
d="M80 87v369q0 21 -1.5 36.5t-4.5 27.5t-8.5 22t-13.5 20l102 9v-484q0 -21 2.5 -35.5t8.5 -24.5t16 -16t25 -11h-178q16 5 26 11t16 15.5t8 24.5t2 36zM195 742q23 0 38 -13.5t15 -36.5t-15 -37t-38 -14q-22 0 -37 14t-15 37t15 36.5t37 13.5zM35 742q23 0 38 -13.5
t15 -36.5t-15 -37t-38 -14q-22 0 -37 14t-15 37t15 36.5t37 13.5z" />
    <glyph glyph-name="eth" unicode="&#xf0;" horiz-adv-x="643" 
d="M31 282q0 63 21 116t58.5 91t89 59.5t113.5 21.5q61 0 110.5 -26.5t80.5 -77.5q-37 151 -148 225l-172 -63l-5 14l161 59q-89 53 -228 67l2 14q77 -7 141.5 -24.5t118.5 -44.5l134 49l5 -14l-121 -44q105 -58 159 -151.5t54 -219.5q0 -82 -21 -145t-59 -106t-90.5 -65.5
t-116.5 -22.5t-116.5 21.5t-90.5 59.5t-59 91t-21 116zM318 9q46 0 84 20.5t65 56.5t42 86t15 110q0 127 -53 200t-153 73q-46 0 -84 -20.5t-65 -56.5t-42 -86t-15 -110t15 -110t42 -86t65 -56.5t84 -20.5z" />
    <glyph glyph-name="ntilde" unicode="&#xf1;" horiz-adv-x="648" 
d="M28 0q16 5 26 11t16 15.5t8 24.5t2 36v369q0 21 -1.5 36.5t-4.5 27.5t-8.5 22t-13.5 20l102 9v-159q25 73 80 115.5t140 42.5q48 0 85 -13.5t62.5 -38.5t39 -59.5t13.5 -75.5v-296q0 -21 2.5 -35.5t8.5 -24.5t16 -16t25 -11h-178q16 5 26 11t16 15.5t8 24.5t2 36v306
q0 75 -36 117.5t-105 42.5q-39 0 -75 -14.5t-64 -42.5t-45.5 -69t-20.5 -94v-246q0 -21 2.5 -35.5t8.5 -24.5t16 -16t25 -11h-178zM293 734q32 0 46.5 -13t23.5 -28t18.5 -28t31.5 -13q26 0 39 21t12 56h10q2 -49 -21 -71.5t-61 -22.5q-32 0 -47 12.5t-24.5 28t-19.5 28
t-31 12.5q-26 0 -38.5 -20.5t-11.5 -55.5h-11q-2 49 22 71.5t62 22.5z" />
    <glyph glyph-name="ograve" unicode="&#xf2;" 
d="M318 570q64 0 116.5 -21t90.5 -59.5t59 -91t21 -115.5v-1q0 -63 -21 -115.5t-59 -91t-90.5 -59.5t-116.5 -21t-116.5 21t-90.5 59.5t-59 91t-21 115.5v1q0 63 21 115.5t59 91t90.5 59.5t116.5 21zM112 283q0 -60 15 -110t42 -86.5t65 -56.5t84 -20t84 20t65 56.5t42 86.5
t15 110t-15 110t-42 86t-65 56t-84 20t-84 -20t-65 -56t-42 -86t-15 -110zM274 801l48 -168h-3l-119 168h74z" />
    <glyph glyph-name="oacute" unicode="&#xf3;" 
d="M318 570q64 0 116.5 -21t90.5 -59.5t59 -91t21 -115.5v-1q0 -63 -21 -115.5t-59 -91t-90.5 -59.5t-116.5 -21t-116.5 21t-90.5 59.5t-59 91t-21 115.5v1q0 63 21 115.5t59 91t90.5 59.5t116.5 21zM112 283q0 -60 15 -110t42 -86.5t65 -56.5t84 -20t84 20t65 56.5t42 86.5
t15 110t-15 110t-42 86t-65 56t-84 20t-84 -20t-65 -56t-42 -86t-15 -110zM364 801h74l-119 -168h-3z" />
    <glyph glyph-name="ocircumflex" unicode="&#xf4;" 
d="M318 570q64 0 116.5 -21t90.5 -59.5t59 -91t21 -115.5v-1q0 -63 -21 -115.5t-59 -91t-90.5 -59.5t-116.5 -21t-116.5 21t-90.5 59.5t-59 91t-21 115.5v1q0 63 21 115.5t59 91t90.5 59.5t116.5 21zM112 283q0 -60 15 -110t42 -86.5t65 -56.5t84 -20t84 20t65 56.5t42 86.5
t15 110t-15 110t-42 86t-65 56t-84 20t-84 -20t-65 -56t-42 -86t-15 -110zM316 796h4l123 -166l-2 -2l-123 96l-122 -96l-2 2z" />
    <glyph glyph-name="otilde" unicode="&#xf5;" 
d="M31 282v1q0 63 21 115.5t59 91t90.5 59.5t116.5 21t116.5 -21t90.5 -59.5t59 -91t21 -115.5v-1q0 -63 -21 -115.5t-59 -91t-90.5 -59.5t-116.5 -21t-116.5 21t-90.5 59.5t-59 91t-21 115.5zM112 283q0 -60 15 -110t42 -86.5t65 -56.5t84 -20t84 20t65 56.5t42 86.5
t15 110t-15 110t-42 86t-65 56t-84 20t-84 -20t-65 -56t-42 -86t-15 -110zM270 734q32 0 46.5 -13t23.5 -28t18.5 -28t31.5 -13q26 0 39 21t12 56h10q2 -49 -21 -71.5t-61 -22.5q-32 0 -47 12.5t-24.5 28t-19.5 28t-31 12.5q-26 0 -38.5 -20.5t-11.5 -55.5h-11
q-2 49 22 71.5t62 22.5z" />
    <glyph glyph-name="odieresis" unicode="&#xf6;" 
d="M31 282v1q0 63 21 115.5t59 91t90.5 59.5t116.5 21t116.5 -21t90.5 -59.5t59 -91t21 -115.5v-1q0 -63 -21 -115.5t-59 -91t-90.5 -59.5t-116.5 -21t-116.5 21t-90.5 59.5t-59 91t-21 115.5zM112 283q0 -60 15 -110t42 -86.5t65 -56.5t84 -20t84 20t65 56.5t42 86.5
t15 110t-15 110t-42 86t-65 56t-84 20t-84 -20t-65 -56t-42 -86t-15 -110zM347 692q0 23 15 36.5t37 13.5q23 0 38 -13.5t15 -36.5t-15 -37t-38 -14q-22 0 -37 14t-15 37zM187 692q0 23 15 36.5t37 13.5q23 0 38 -13.5t15 -36.5t-15 -37t-38 -14q-22 0 -37 14t-15 37z" />
    <glyph glyph-name="divide" unicode="&#xf7;" horiz-adv-x="685" 
d="M75 355h535v-17h-535v17zM309 541q0 14 10 23.5t25 9.5q16 0 26 -9.5t10 -23.5q0 -15 -10 -25t-26 -10q-15 0 -25 10t-10 25zM344 188q16 0 26 -9.5t10 -23.5q0 -15 -10 -25t-26 -10q-15 0 -25 10t-10 25q0 14 10 23.5t25 9.5z" />
    <glyph glyph-name="oslash" unicode="&#xf8;" 
d="M318 570q54 0 99.5 -15t81.5 -43l49 59l9 -8l-48 -58q45 -38 70.5 -95t25.5 -127v-1q0 -63 -21 -115.5t-59 -91t-90.5 -59.5t-116.5 -21q-54 0 -99.5 15t-81.5 43l-49 -59l-9 8l48 58q-45 38 -70.5 95t-25.5 127v1q0 63 21 115.5t59 91t90.5 59.5t116.5 21zM318 10
q46 0 84 20t65 56.5t42 86.5t15 110q0 54 -12.5 100.5t-35.5 81.5l-309 -376q27 -38 65 -58.5t86 -20.5zM112 283q0 -55 12.5 -101.5t35.5 -81.5l309 376q-27 38 -65 58.5t-86 20.5q-46 0 -84 -20t-65 -56t-42 -86t-15 -110z" />
    <glyph glyph-name="ugrave" unicode="&#xf9;" horiz-adv-x="579" 
d="M33 562l102 9v-406q0 -43 9 -72.5t25.5 -48t40 -26.5t51.5 -8q45 0 78 20.5t55 52.5t34 71t13 76v226q0 21 -1.5 36.5t-4.5 27.5t-8.5 22t-13.5 20l102 9v-472q0 -44 7 -64.5t21 -34.5l-98 -3v151q-15 -36 -32.5 -64t-40.5 -48t-53.5 -30.5t-70.5 -10.5q-86 0 -136.5 43
t-50.5 132v286q0 21 -1.5 36.5t-4.5 27.5t-8.5 22t-13.5 20zM160 801h74l48 -168h-3z" />
    <glyph glyph-name="uacute" unicode="&#xfa;" horiz-adv-x="579" 
d="M33 562l102 9v-406q0 -43 9 -72.5t25.5 -48t40 -26.5t51.5 -8q45 0 78 20.5t55 52.5t34 71t13 76v226q0 21 -1.5 36.5t-4.5 27.5t-8.5 22t-13.5 20l102 9v-472q0 -44 7 -64.5t21 -34.5l-98 -3v151q-15 -36 -32.5 -64t-40.5 -48t-53.5 -30.5t-70.5 -10.5q-86 0 -136.5 43
t-50.5 132v286q0 21 -1.5 36.5t-4.5 27.5t-8.5 22t-13.5 20zM276 633l48 168h74l-119 -168h-3z" />
    <glyph glyph-name="ucircumflex" unicode="&#xfb;" horiz-adv-x="579" 
d="M33 562l102 9v-406q0 -43 9 -72.5t25.5 -48t40 -26.5t51.5 -8q45 0 78 20.5t55 52.5t34 71t13 76v226q0 21 -1.5 36.5t-4.5 27.5t-8.5 22t-13.5 20l102 9v-472q0 -44 7 -64.5t21 -34.5l-98 -3v151q-15 -36 -32.5 -64t-40.5 -48t-53.5 -30.5t-70.5 -10.5q-86 0 -136.5 43
t-50.5 132v286q0 21 -1.5 36.5t-4.5 27.5t-8.5 22t-13.5 20zM154 630l122 166h4l123 -166l-2 -2l-123 96l-122 -96z" />
    <glyph glyph-name="udieresis" unicode="&#xfc;" horiz-adv-x="579" 
d="M33 562l102 9v-406q0 -43 9 -72.5t25.5 -48t40 -26.5t51.5 -8q45 0 78 20.5t55 52.5t34 71t13 76v226q0 21 -1.5 36.5t-4.5 27.5t-8.5 22t-13.5 20l102 9v-472q0 -44 7 -64.5t21 -34.5l-98 -3v151q-15 -36 -32.5 -64t-40.5 -48t-53.5 -30.5t-70.5 -10.5q-86 0 -136.5 43
t-50.5 132v286q0 21 -1.5 36.5t-4.5 27.5t-8.5 22t-13.5 20zM307 692q0 23 15 36.5t37 13.5q23 0 38 -13.5t15 -36.5t-15 -37t-38 -14q-22 0 -37 14t-15 37zM147 692q0 23 15 36.5t37 13.5q23 0 38 -13.5t15 -36.5t-15 -37t-38 -14q-22 0 -37 14t-15 37z" />
    <glyph glyph-name="yacute" unicode="&#xfd;" horiz-adv-x="543" 
d="M136 565q-8 -7 -12 -21t10 -49l166 -409l160 407q8 19 7 31.5t-5.5 20.5t-10.5 12.5l-10 7.5h92q-9 -6 -25 -21t-30 -49l-211 -529q-7 -17 -18.5 -39t-29.5 -43t-43 -37t-59 -21l-35 99q38 -20 73 -20t64 22t46 68l-211 509q-13 31 -24 43.5t-19 17.5h125zM295 633
l48 168h74l-119 -168h-3z" />
    <glyph glyph-name="thorn" unicode="&#xfe;" horiz-adv-x="624" 
d="M76 -102v776q0 31 -5 45t-20 26l99 12v-255q18 21 39 34.5t42.5 21t43 10t40.5 2.5q64 0 116 -19.5t89.5 -55.5t58 -86.5t20.5 -112.5q0 -63 -21.5 -118t-59.5 -95.5t-91 -64t-115 -23.5q-95 0 -162 55v-152q0 -21 2.5 -35.5t8.5 -24.5t16 -16t25 -11h-178q16 4 26 10.5
t16 16t8 24.5t2 36zM319 12q47 0 84.5 19.5t64 53t40.5 79.5t14 99q0 62 -14 115t-42.5 92t-70.5 61t-99 22q-36 0 -76 -14.5t-70 -55.5v-358q29 -56 70.5 -84.5t98.5 -28.5z" />
    <glyph glyph-name="ydieresis" unicode="&#xff;" horiz-adv-x="543" 
d="M11 565h125q-8 -7 -12 -21t10 -49l166 -409l160 407q8 19 7 31.5t-5.5 20.5t-10.5 12.5l-10 7.5h92q-9 -6 -25 -21t-30 -49l-211 -529q-7 -17 -18.5 -39t-29.5 -43t-43 -37t-59 -21l-35 99q38 -20 73 -20t64 22t46 68l-211 509q-13 31 -24 43.5t-19 17.5zM378 742
q23 0 38 -13.5t15 -36.5t-15 -37t-38 -14q-22 0 -37 14t-15 37t15 36.5t37 13.5zM166 692q0 23 15 36.5t37 13.5q23 0 38 -13.5t15 -36.5t-15 -37t-38 -14q-22 0 -37 14t-15 37z" />
    <glyph glyph-name="Amacron" unicode="&#x100;" horiz-adv-x="751" 
d="M114 142l257 553h6l293 -626q17 -36 30 -50.5t26 -18.5h-152q7 3 13 8.5t9 16.5t0.5 27t-13.5 40l-82 178h-307l-82 -176q-12 -26 -16 -43t-2.5 -27.5t7 -15.5t11.5 -8h-88q7 2 14 7.5t17 20.5t24 42t35 72zM200 285h294l-147 316zM235 821h278v-16h-278v16z" />
    <glyph glyph-name="amacron" unicode="&#x101;" horiz-adv-x="520" 
d="M275 310l111 27v72q0 75 -29.5 110.5t-89.5 35.5q-28 0 -57 -9.5t-54.5 -34t-47 -66.5t-35.5 -106l-6 167q37 29 91 46t111 17q88 0 139.5 -42t51.5 -123v-317q0 -29 6.5 -51t21.5 -36l-98 -3v132q-10 -25 -25.5 -49t-38 -43t-53.5 -30t-71 -11q-36 0 -67.5 8t-54 24.5
t-35.5 41t-13 57.5q0 45 24.5 76t61.5 52t79 33.5t78 21.5zM218 11q28 0 57 12t53 35.5t40 58.5t18 81v124l-109 -26q-21 -5 -49.5 -15t-54 -28.5t-43 -48.5t-17.5 -76q0 -51 27.5 -84t77.5 -33zM121 677h276v-12h-276v12z" />
    <glyph glyph-name="Abreve" unicode="&#x102;" horiz-adv-x="751" 
d="M24 0q7 2 14 7.5t17 20.5t24 42t35 72l257 553h6l293 -626q17 -36 30 -50.5t26 -18.5h-152q7 3 13 8.5t9 16.5t0.5 27t-13.5 40l-82 178h-307l-82 -176q-12 -26 -16 -43t-2.5 -27.5t7 -15.5t11.5 -8h-88zM200 285h294l-147 316zM271 908h7q4 -39 31 -65t67 -26
q42 0 67 26t29 65h7q-3 -29 -10.5 -54.5t-20.5 -44t-31 -29.5t-42 -11t-42 11t-31 29.5t-20.5 44t-10.5 54.5z" />
    <glyph glyph-name="abreve" unicode="&#x103;" horiz-adv-x="520" 
d="M275 310l111 27v72q0 75 -29.5 110.5t-89.5 35.5q-28 0 -57 -9.5t-54.5 -34t-47 -66.5t-35.5 -106l-6 167q37 29 91 46t111 17q88 0 139.5 -42t51.5 -123v-317q0 -29 6.5 -51t21.5 -36l-98 -3v132q-10 -25 -25.5 -49t-38 -43t-53.5 -30t-71 -11q-36 0 -67.5 8t-54 24.5
t-35.5 41t-13 57.5q0 45 24.5 76t61.5 52t79 33.5t78 21.5zM218 11q28 0 57 12t53 35.5t40 58.5t18 81v124l-109 -26q-21 -5 -49.5 -15t-54 -28.5t-43 -48.5t-17.5 -76q0 -51 27.5 -84t77.5 -33zM155 805h7q4 -39 31 -65t67 -26q42 0 67 26t29 65h7q-3 -29 -10.5 -54.5
t-20.5 -44t-31 -29.5t-42 -11t-42 11t-31 29.5t-20.5 44t-10.5 54.5z" />
    <glyph glyph-name="Aogonek" unicode="&#x104;" horiz-adv-x="751" 
d="M114 142l257 553h6l293 -626q17 -36 30 -50.5t26 -18.5q-31 -17 -54.5 -49t-23.5 -70q0 -26 11 -36t22 -10q20 0 40.5 24.5t31.5 77.5l-5 -89q-11 -8 -30.5 -17.5t-44.5 -9.5q-27 0 -50 15t-23 46q0 19 10.5 37t27 33t37 27.5t39.5 20.5h-140q7 3 13 8.5t9 16.5t0.5 27
t-13.5 40l-82 178h-307l-82 -176q-12 -26 -16 -43t-2.5 -27.5t7 -15.5t11.5 -8h-88q7 2 14 7.5t17 20.5t24 42t35 72zM494 285l-147 316l-147 -316h294z" />
    <glyph glyph-name="aogonek" unicode="&#x105;" horiz-adv-x="520" 
d="M275 310l111 27v72q0 75 -29.5 110.5t-89.5 35.5q-28 0 -57 -9.5t-54.5 -34t-47 -66.5t-35.5 -106l-6 167q37 29 91 46t111 17q88 0 139.5 -42t51.5 -123v-317q0 -29 6.5 -51t21.5 -36q-31 -17 -54.5 -49t-23.5 -70q0 -26 11 -36t22 -10q20 0 40.5 24.5t31.5 77.5l-5 -89
q-11 -8 -30.5 -17.5t-44.5 -9.5q-27 0 -50 15t-23 46q0 19 10.5 37t26.5 33t36.5 27.5t39.5 20.5l-85 -3v132q-10 -25 -25.5 -49t-38 -43t-53.5 -30t-71 -11q-36 0 -67.5 8t-54 24.5t-35.5 41t-13 57.5q0 45 24.5 76t61.5 52t79 33.5t78 21.5zM218 11q28 0 57 12t53 35.5
t40 58.5t18 81v124l-109 -26q-21 -5 -49.5 -15t-54 -28.5t-43 -48.5t-17.5 -76q0 -51 27.5 -84t77.5 -33z" />
    <glyph glyph-name="Cacute" unicode="&#x106;" horiz-adv-x="675" 
d="M375 701q20 0 47.5 -3t58.5 -10.5t63 -19.5t61 -30l16 -231q-28 142 -95.5 210.5t-156.5 68.5q-50 0 -94 -21t-76.5 -63.5t-51 -106t-18.5 -147.5q0 -86 19.5 -150t53.5 -106t80 -62.5t99 -20.5q33 0 66.5 8.5t65 29t59.5 54t49 84.5v-110q-41 -34 -103.5 -57.5
t-134.5 -23.5t-134 27t-107.5 74.5t-71.5 112.5t-26 141q0 75 26.5 139.5t72 111.5t105.5 74t127 27zM438 928h74l-119 -168h-3z" />
    <glyph glyph-name="cacute" unicode="&#x107;" horiz-adv-x="572" 
d="M31 285q0 63 20 115t56 90t86.5 59t111.5 21q65 0 121.5 -22.5t99.5 -56.5l-33 -158q-6 63 -24 106t-43.5 69t-56.5 37t-63 11q-43 0 -78.5 -19.5t-61 -55.5t-40 -86t-14.5 -111q0 -62 15 -113t42 -87t64 -55.5t82 -19.5q76 0 133 57.5t85 166.5l-7 -167
q-23 -21 -50.5 -34.5t-55.5 -21.5t-55.5 -11.5t-50.5 -3.5q-61 0 -113 20.5t-89.5 58.5t-59 91.5t-21.5 119.5zM312 633l48 168h74l-119 -168h-3z" />
    <glyph glyph-name="Ccircumflex" unicode="&#x108;" horiz-adv-x="675" 
d="M375 701q20 0 47.5 -3t58.5 -10.5t63 -19.5t61 -30l16 -231q-28 142 -95.5 210.5t-156.5 68.5q-50 0 -94 -21t-76.5 -63.5t-51 -106t-18.5 -147.5q0 -86 19.5 -150t53.5 -106t80 -62.5t99 -20.5q33 0 66.5 8.5t65 29t59.5 54t49 84.5v-110q-41 -34 -103.5 -57.5
t-134.5 -23.5t-134 27t-107.5 74.5t-71.5 112.5t-26 141q0 75 26.5 139.5t72 111.5t105.5 74t127 27zM389 936h4l123 -166l-2 -2l-123 96l-122 -96l-2 2z" />
    <glyph glyph-name="ccircumflex" unicode="&#x109;" horiz-adv-x="572" 
d="M305 570q65 0 121.5 -22.5t99.5 -56.5l-33 -158q-6 63 -24 106t-43.5 69t-56.5 37t-63 11q-43 0 -78.5 -19.5t-61 -55.5t-40 -86t-14.5 -111q0 -62 15 -113t42 -87t64 -55.5t82 -19.5q76 0 133 57.5t85 166.5l-7 -167q-23 -21 -50.5 -34.5t-55.5 -21.5t-55.5 -11.5
t-50.5 -3.5q-61 0 -113 20.5t-89.5 58.5t-59 91.5t-21.5 119.5q0 63 20 115t56 90t86.5 59t111.5 21zM190 630l122 166h4l123 -166l-2 -2l-123 96l-122 -96z" />
    <glyph glyph-name="Cdotaccent" unicode="&#x10a;" horiz-adv-x="675" 
d="M44 349q0 75 26.5 139.5t72 111.5t105.5 74t127 27q20 0 47.5 -3t58.5 -10.5t63 -19.5t61 -30l16 -231q-28 142 -95.5 210.5t-156.5 68.5q-50 0 -94 -21t-76.5 -63.5t-51 -106t-18.5 -147.5q0 -86 19.5 -150t53.5 -106t80 -62.5t99 -20.5q33 0 66.5 8.5t65 29t59.5 54
t49 84.5v-110q-41 -34 -103.5 -57.5t-134.5 -23.5t-134 27t-107.5 74.5t-71.5 112.5t-26 141zM340 834q0 23 15 36.5t37 13.5q23 0 38 -13.5t15 -36.5t-15 -37t-38 -14q-22 0 -37 14t-15 37z" />
    <glyph glyph-name="cdotaccent" unicode="&#x10b;" horiz-adv-x="572" 
d="M31 285q0 63 20 115t56 90t86.5 59t111.5 21q65 0 121.5 -22.5t99.5 -56.5l-33 -158q-6 63 -24 106t-43.5 69t-56.5 37t-63 11q-43 0 -78.5 -19.5t-61 -55.5t-40 -86t-14.5 -111q0 -62 15 -113t42 -87t64 -55.5t82 -19.5q76 0 133 57.5t85 166.5l-7 -167
q-23 -21 -50.5 -34.5t-55.5 -21.5t-55.5 -11.5t-50.5 -3.5q-61 0 -113 20.5t-89.5 58.5t-59 91.5t-21.5 119.5zM262 694q0 23 15 36.5t37 13.5q23 0 38 -13.5t15 -36.5t-15 -37t-38 -14q-22 0 -37 14t-15 37z" />
    <glyph glyph-name="Ccaron" unicode="&#x10c;" horiz-adv-x="675" 
d="M375 701q20 0 47.5 -3t58.5 -10.5t63 -19.5t61 -30l16 -231q-28 142 -95.5 210.5t-156.5 68.5q-50 0 -94 -21t-76.5 -63.5t-51 -106t-18.5 -147.5q0 -86 19.5 -150t53.5 -106t80 -62.5t99 -20.5q33 0 66.5 8.5t65 29t59.5 54t49 84.5v-110q-41 -34 -103.5 -57.5
t-134.5 -23.5t-134 27t-107.5 74.5t-71.5 112.5t-26 141q0 75 26.5 139.5t72 111.5t105.5 74t127 27zM267 934l2 2l122 -96l123 96l2 -2l-123 -166h-4z" />
    <glyph glyph-name="ccaron" unicode="&#x10d;" horiz-adv-x="572" 
d="M305 570q65 0 121.5 -22.5t99.5 -56.5l-33 -158q-6 63 -24 106t-43.5 69t-56.5 37t-63 11q-43 0 -78.5 -19.5t-61 -55.5t-40 -86t-14.5 -111q0 -62 15 -113t42 -87t64 -55.5t82 -19.5q76 0 133 57.5t85 166.5l-7 -167q-23 -21 -50.5 -34.5t-55.5 -21.5t-55.5 -11.5
t-50.5 -3.5q-61 0 -113 20.5t-89.5 58.5t-59 91.5t-21.5 119.5q0 63 20 115t56 90t86.5 59t111.5 21zM191 794l2 2l122 -96l123 96l2 -2l-123 -166h-4z" />
    <glyph glyph-name="Dcaron" unicode="&#x10e;" horiz-adv-x="718" 
d="M42 0q32 9 45 27.5t13 62.5v519q0 22 -2 36.5t-7 24t-15 15.5t-26 10h275q76 0 140 -24.5t110.5 -69t72.5 -108t26 -141.5t-26 -143t-72.5 -111.5t-110.5 -72t-140 -25.5h-283zM176 678v-661h145q58 0 107 20t84.5 61t55.5 104t20 148t-20 147t-55.5 102t-84.5 59.5
t-107 19.5h-145zM205 934l2 2l122 -96l123 96l2 -2l-123 -166h-4z" />
    <glyph glyph-name="dcaron" unicode="&#x10f;" horiz-adv-x="599" 
d="M26 268q0 67 20.5 122.5t57.5 95.5t87.5 62t110.5 22q47 0 88 -14.5t74 -43.5v162q0 31 -5 45t-20 26l99 12v-659q0 -43 7 -63.5t21 -34.5l-98 -3v77q-31 -42 -75 -60.5t-89 -18.5q-63 0 -114.5 21t-87.5 57.5t-56 86.5t-20 108zM103 309q0 -61 14.5 -115t43 -94.5
t69.5 -64t93 -23.5q43 0 79 21.5t62 59.5v339q-26 63 -69.5 92t-99.5 29q-45 0 -80.5 -17.5t-60 -49.5t-38 -77t-13.5 -100zM586 595l28 164h44l-62 -164h-10z" />
    <glyph glyph-name="Dcroat" unicode="&#x110;" horiz-adv-x="714" 
d="M30 361h66v248q0 22 -2 36.5t-7 24t-15 15.5t-26 10h275q76 0 140 -24.5t110.5 -69t72.5 -108t26 -141.5t-26 -143t-72.5 -111.5t-110.5 -72t-140 -25.5h-283q32 9 45 27.5t13 62.5v255h-66v16zM172 17h145q58 0 107 20t84.5 61t55.5 104t20 148t-20 147t-55.5 102
t-84.5 59.5t-107 19.5h-145v-317h158v-16h-158v-328z" />
    <glyph glyph-name="dcroat" unicode="&#x111;" horiz-adv-x="598" 
d="M26 268q0 67 20.5 122.5t57.5 95.5t87.5 62t110.5 22q47 0 88 -14.5t74 -43.5v120h-121v12h121v30q0 31 -5 45t-20 26l99 12v-113h59v-12h-59v-534q0 -43 7 -63.5t21 -34.5l-98 -3v77q-31 -42 -75 -60.5t-89 -18.5q-63 0 -114.5 21t-87.5 57.5t-56 86.5t-20 108zM323 12
q43 0 79 21.5t62 59.5v339q-26 63 -69.5 92t-99.5 29q-45 0 -80.5 -17.5t-60 -49.5t-38 -77t-13.5 -100q0 -61 14.5 -115t43 -94.5t69.5 -64t93 -23.5z" />
    <glyph glyph-name="Emacron" unicode="&#x112;" horiz-adv-x="582" 
d="M42 0q32 9 45 27.5t13 62.5v519q0 22 -2 36.5t-7 24t-15 15.5t-26 10h447l21 -183q-12 52 -34 84.5t-50.5 50.5t-62 24.5t-70.5 6.5h-125v-296h81q51 0 83.5 6t52 18t28.5 29t14 39l-14 -203q-1 22 -7.5 39.5t-24 29.5t-49.5 18.5t-85 6.5h-79v-348h153q37 0 69 7.5
t58.5 28.5t47 58t32.5 96l-18 -207h-476zM161 821h278v-16h-278v16z" />
    <glyph glyph-name="emacron" unicode="&#x113;" horiz-adv-x="578" 
d="M300 570q60 0 104.5 -17t73.5 -48t43.5 -73t15.5 -92h-421q-2 -15 -3 -30.5t-1 -31.5q0 -57 15.5 -106.5t43 -85.5t65.5 -56.5t83 -20.5q40 0 72.5 14.5t59.5 41.5t48.5 64.5t37.5 82.5l-9 -145q-44 -37 -100 -54.5t-109 -17.5q-63 0 -116 20.5t-91.5 57.5t-59.5 90
t-21 117q0 63 18.5 116t53.5 92t84.5 60.5t112.5 21.5zM118 352h341q-1 44 -12 81t-31 65t-49.5 43.5t-67.5 15.5q-36 0 -66 -15t-53.5 -42.5t-39 -65t-22.5 -82.5zM443 677v-12h-276v12h276z" />
    <glyph glyph-name="Ebreve" unicode="&#x114;" horiz-adv-x="582" 
d="M100 90v519q0 22 -2 36.5t-7 24t-15 15.5t-26 10h447l21 -183q-12 52 -34 84.5t-50.5 50.5t-62 24.5t-70.5 6.5h-125v-296h81q51 0 83.5 6t52 18t28.5 29t14 39l-14 -203q-1 22 -7.5 39.5t-24 29.5t-49.5 18.5t-85 6.5h-79v-348h153q37 0 69 7.5t58.5 28.5t47 58t32.5 96
l-18 -207h-476q32 9 45 27.5t13 62.5zM197 908h7q4 -39 31 -65t67 -26q42 0 67 26t29 65h7q-3 -29 -10.5 -54.5t-20.5 -44t-31 -29.5t-42 -11t-42 11t-31 29.5t-20.5 44t-10.5 54.5z" />
    <glyph glyph-name="ebreve" unicode="&#x115;" horiz-adv-x="578" 
d="M31 280q0 63 18.5 116t53.5 92t84.5 60.5t112.5 21.5q60 0 104.5 -17t73.5 -48t43.5 -73t15.5 -92h-421q-2 -15 -3 -30.5t-1 -31.5q0 -57 15.5 -106.5t43 -85.5t65.5 -56.5t83 -20.5q40 0 72.5 14.5t59.5 41.5t48.5 64.5t37.5 82.5l-9 -145q-44 -37 -100 -54.5
t-109 -17.5q-63 0 -116 20.5t-91.5 57.5t-59.5 90t-21 117zM118 352h341q-1 44 -12 81t-31 65t-49.5 43.5t-67.5 15.5q-36 0 -66 -15t-53.5 -42.5t-39 -65t-22.5 -82.5zM208 805q4 -39 31 -65t67 -26q42 0 67 26t29 65h7q-3 -29 -10.5 -54.5t-20.5 -44t-31 -29.5t-42 -11
t-42 11t-31 29.5t-20.5 44t-10.5 54.5h7z" />
    <glyph glyph-name="Edotaccent" unicode="&#x116;" horiz-adv-x="582" 
d="M100 90v519q0 22 -2 36.5t-7 24t-15 15.5t-26 10h447l21 -183q-12 52 -34 84.5t-50.5 50.5t-62 24.5t-70.5 6.5h-125v-296h81q51 0 83.5 6t52 18t28.5 29t14 39l-14 -203q-1 22 -7.5 39.5t-24 29.5t-49.5 18.5t-85 6.5h-79v-348h153q37 0 69 7.5t58.5 28.5t47 58t32.5 96
l-18 -207h-476q32 9 45 27.5t13 62.5zM300 884q23 0 38 -13.5t15 -36.5t-15 -37t-38 -14q-22 0 -37 14t-15 37t15 36.5t37 13.5z" />
    <glyph glyph-name="edotaccent" unicode="&#x117;" horiz-adv-x="578" 
d="M31 280q0 63 18.5 116t53.5 92t84.5 60.5t112.5 21.5q60 0 104.5 -17t73.5 -48t43.5 -73t15.5 -92h-421q-2 -15 -3 -30.5t-1 -31.5q0 -57 15.5 -106.5t43 -85.5t65.5 -56.5t83 -20.5q40 0 72.5 14.5t59.5 41.5t48.5 64.5t37.5 82.5l-9 -145q-44 -37 -100 -54.5
t-109 -17.5q-63 0 -116 20.5t-91.5 57.5t-59.5 90t-21 117zM118 352h341q-1 44 -12 81t-31 65t-49.5 43.5t-67.5 15.5q-36 0 -66 -15t-53.5 -42.5t-39 -65t-22.5 -82.5zM252 694q0 23 15 36.5t37 13.5q23 0 38 -13.5t15 -36.5t-15 -37t-38 -14q-22 0 -37 14t-15 37z" />
    <glyph glyph-name="Eogonek" unicode="&#x118;" horiz-adv-x="582" 
d="M42 0q32 9 45 27.5t13 62.5v519q0 22 -2 36.5t-7 24t-15 15.5t-26 10h447l21 -183q-12 52 -34 84.5t-50.5 50.5t-62 24.5t-70.5 6.5h-125v-296h81q51 0 83.5 6t52 18t28.5 29t14 39l-14 -203q-1 22 -7.5 39.5t-24 29.5t-49.5 18.5t-85 6.5h-79v-348h153q37 0 69 7.5
t58.5 28.5t47 58t32.5 96l-18 -207q-31 -17 -54.5 -49t-23.5 -70q0 -26 11 -36t22 -10q20 0 40.5 24.5t31.5 77.5l-5 -89q-11 -8 -30.5 -17.5t-44.5 -9.5q-27 0 -50 15t-23 46q0 19 10.5 37t27 33t37 27.5t39.5 20.5h-464z" />
    <glyph glyph-name="eogonek" unicode="&#x119;" horiz-adv-x="574" 
d="M300 570q60 0 104.5 -17t73.5 -48t43.5 -73t15.5 -92h-421q-2 -15 -3 -30.5t-1 -31.5q0 -57 15.5 -106.5t43 -85.5t65.5 -56.5t83 -20.5q40 0 72.5 14.5t59.5 41.5t48.5 64.5t37.5 82.5l-9 -145l-15 -12q-36 -40 -58 -83t-22 -81q0 -26 10.5 -41t29.5 -15q23 0 44 27
t30 75l-5 -89q-11 -8 -30.5 -17.5t-45.5 -9.5q-34 0 -57 18.5t-23 54.5q0 41 28.5 74.5t64.5 65.5q-38 -20 -79.5 -29.5t-80.5 -9.5q-63 0 -116 20.5t-91.5 57.5t-59.5 90t-21 117q0 63 18.5 116t53.5 92t84.5 60.5t112.5 21.5zM118 352h341q-1 44 -12 81t-31 65t-49.5 43.5
t-67.5 15.5q-36 0 -66 -15t-53.5 -42.5t-39 -65t-22.5 -82.5z" />
    <glyph glyph-name="Ecaron" unicode="&#x11a;" horiz-adv-x="582" 
d="M42 0q32 9 45 27.5t13 62.5v519q0 22 -2 36.5t-7 24t-15 15.5t-26 10h447l21 -183q-12 52 -34 84.5t-50.5 50.5t-62 24.5t-70.5 6.5h-125v-296h81q51 0 83.5 6t52 18t28.5 29t14 39l-14 -203q-1 22 -7.5 39.5t-24 29.5t-49.5 18.5t-85 6.5h-79v-348h153q37 0 69 7.5
t58.5 28.5t47 58t32.5 96l-18 -207h-476zM177 936l122 -96l123 96l2 -2l-123 -166h-4l-122 166z" />
    <glyph glyph-name="ecaron" unicode="&#x11b;" horiz-adv-x="578" 
d="M31 280q0 63 18.5 116t53.5 92t84.5 60.5t112.5 21.5q60 0 104.5 -17t73.5 -48t43.5 -73t15.5 -92h-421q-2 -15 -3 -30.5t-1 -31.5q0 -57 15.5 -106.5t43 -85.5t65.5 -56.5t83 -20.5q40 0 72.5 14.5t59.5 41.5t48.5 64.5t37.5 82.5l-9 -145q-44 -37 -100 -54.5
t-109 -17.5q-63 0 -116 20.5t-91.5 57.5t-59.5 90t-21 117zM118 352h341q-1 44 -12 81t-31 65t-49.5 43.5t-67.5 15.5q-36 0 -66 -15t-53.5 -42.5t-39 -65t-22.5 -82.5zM183 796l122 -96l123 96l2 -2l-123 -166h-4l-122 166z" />
    <glyph glyph-name="Gcircumflex" unicode="&#x11c;" horiz-adv-x="715" 
d="M374 701q27 0 57.5 -4t61.5 -12t60.5 -21t52.5 -30l14 -189q-28 114 -94.5 177.5t-156.5 63.5q-50 0 -94 -21t-76.5 -63.5t-51 -106t-18.5 -147.5q0 -86 19 -150t52.5 -106t79.5 -62.5t100 -20.5q20 0 44 4t49 14.5t50 28.5t47 46v208h-25h-32t-44 -0.5t-44 -1t-33 -2.5
l2 25q10 -1 20.5 -2t25.5 -1.5t36.5 -0.5h53.5h116v-330l-73 71q-41 -37 -91.5 -55.5t-102.5 -18.5q-70 0 -131 27t-106.5 74.5t-71.5 112.5t-26 140q0 74 24.5 138.5t68 112t104 75t133.5 27.5zM246 770l122 166h4l123 -166l-2 -2l-123 96l-122 -96z" />
    <glyph glyph-name="gcircumflex" unicode="&#x11d;" horiz-adv-x="564" 
d="M2 -37q0 49 48 75.5t154 31.5q-72 6 -102 29.5t-30 58.5q0 19 8.5 32.5t23 22.5t33.5 13t39 4h14q-56 20 -88 62t-32 100q0 39 15 71t43 55t66.5 36t84.5 13q39 0 72.5 -9t59.5 -26q7 54 36.5 83.5t64.5 29.5q23 0 37.5 -11.5t14.5 -31.5q0 -18 -12.5 -30t-31.5 -12
q-11 0 -20 3.5t-17 8t-15.5 8t-15.5 3.5q-13 0 -21 -12.5t-12 -44.5q32 -23 50 -57.5t18 -76.5q0 -39 -15 -71.5t-42.5 -56t-66 -36.5t-84.5 -13q-22 0 -43 3q-12 1 -21 1.5t-17 0.5q-38 0 -60 -10.5t-22 -29.5q0 -15 12 -24t27.5 -14t30.5 -7l118 -15q58 -7 104 -15.5
t78.5 -22t49.5 -35.5t17 -57q0 -37 -19.5 -67t-55 -51t-85.5 -32.5t-112 -11.5q-52 0 -102 8.5t-89.5 25.5t-63.5 42t-24 59zM65 -40q0 -56 57.5 -87.5t159.5 -31.5q54 0 96 9t71.5 25t44.5 36t15 43q0 34 -28 54.5t-68.5 31.5t-84 14.5t-75.5 3.5q-55 0 -91.5 -6.5t-58 -19
t-30 -31t-8.5 -41.5zM142 404q0 -32 10 -63.5t28.5 -56t45 -40t59.5 -15.5q28 0 52 11t41.5 30.5t27.5 47.5t10 61t-10 64.5t-28.5 55.5t-45 39t-59.5 15q-29 0 -53 -11t-41.5 -31t-27 -47.5t-9.5 -59.5zM256 796h4l123 -166l-2 -2l-123 96l-122 -96l-2 2z" />
    <glyph glyph-name="Gbreve" unicode="&#x11e;" horiz-adv-x="715" 
d="M44 348q0 74 24.5 138.5t68 112t104 75t133.5 27.5q27 0 57.5 -4t61.5 -12t60.5 -21t52.5 -30l14 -189q-28 114 -94.5 177.5t-156.5 63.5q-50 0 -94 -21t-76.5 -63.5t-51 -106t-18.5 -147.5q0 -86 19 -150t52.5 -106t79.5 -62.5t100 -20.5q20 0 44 4t49 14.5t50 28.5
t47 46v208h-25h-32t-44 -0.5t-44 -1t-33 -2.5l2 25q10 -1 20.5 -2t25.5 -1.5t36.5 -0.5h53.5h116v-330l-73 71q-41 -37 -91.5 -55.5t-102.5 -18.5q-70 0 -131 27t-106.5 74.5t-71.5 112.5t-26 140zM275 908q4 -39 31 -65t67 -26q42 0 67 26t29 65h7q-3 -29 -10.5 -54.5
t-20.5 -44t-31 -29.5t-42 -11t-42 11t-31 29.5t-20.5 44t-10.5 54.5h7z" />
    <glyph glyph-name="gbreve" unicode="&#x11f;" horiz-adv-x="564" 
d="M2 -37q0 49 48 75.5t154 31.5q-72 6 -102 29.5t-30 58.5q0 19 8.5 32.5t23 22.5t33.5 13t39 4h14q-56 20 -88 62t-32 100q0 39 15 71t43 55t66.5 36t84.5 13q39 0 72.5 -9t59.5 -26q7 54 36.5 83.5t64.5 29.5q23 0 37.5 -11.5t14.5 -31.5q0 -18 -12.5 -30t-31.5 -12
q-11 0 -20 3.5t-17 8t-15.5 8t-15.5 3.5q-13 0 -21 -12.5t-12 -44.5q32 -23 50 -57.5t18 -76.5q0 -39 -15 -71.5t-42.5 -56t-66 -36.5t-84.5 -13q-22 0 -43 3q-12 1 -21 1.5t-17 0.5q-38 0 -60 -10.5t-22 -29.5q0 -15 12 -24t27.5 -14t30.5 -7l118 -15q58 -7 104 -15.5
t78.5 -22t49.5 -35.5t17 -57q0 -37 -19.5 -67t-55 -51t-85.5 -32.5t-112 -11.5q-52 0 -102 8.5t-89.5 25.5t-63.5 42t-24 59zM65 -40q0 -56 57.5 -87.5t159.5 -31.5q54 0 96 9t71.5 25t44.5 36t15 43q0 34 -28 54.5t-68.5 31.5t-84 14.5t-75.5 3.5q-55 0 -91.5 -6.5t-58 -19
t-30 -31t-8.5 -41.5zM142 404q0 -32 10 -63.5t28.5 -56t45 -40t59.5 -15.5q28 0 52 11t41.5 30.5t27.5 47.5t10 61t-10 64.5t-28.5 55.5t-45 39t-59.5 15q-29 0 -53 -11t-41.5 -31t-27 -47.5t-9.5 -59.5zM155 805h7q4 -39 31 -65t67 -26q42 0 67 26t29 65h7
q-3 -29 -10.5 -54.5t-20.5 -44t-31 -29.5t-42 -11t-42 11t-31 29.5t-20.5 44t-10.5 54.5z" />
    <glyph glyph-name="Gdotaccent" unicode="&#x120;" horiz-adv-x="715" 
d="M374 701q27 0 57.5 -4t61.5 -12t60.5 -21t52.5 -30l14 -189q-28 114 -94.5 177.5t-156.5 63.5q-50 0 -94 -21t-76.5 -63.5t-51 -106t-18.5 -147.5q0 -86 19 -150t52.5 -106t79.5 -62.5t100 -20.5q20 0 44 4t49 14.5t50 28.5t47 46v208h-25h-32t-44 -0.5t-44 -1t-33 -2.5
l2 25q10 -1 20.5 -2t25.5 -1.5t36.5 -0.5h53.5h116v-330l-73 71q-41 -37 -91.5 -55.5t-102.5 -18.5q-70 0 -131 27t-106.5 74.5t-71.5 112.5t-26 140q0 74 24.5 138.5t68 112t104 75t133.5 27.5zM319 834q0 23 15 36.5t37 13.5q23 0 38 -13.5t15 -36.5t-15 -37t-38 -14
q-22 0 -37 14t-15 37z" />
    <glyph glyph-name="gdotaccent" unicode="&#x121;" horiz-adv-x="564" 
d="M2 -37q0 49 48 75.5t154 31.5q-72 6 -102 29.5t-30 58.5q0 19 8.5 32.5t23 22.5t33.5 13t39 4h14q-56 20 -88 62t-32 100q0 39 15 71t43 55t66.5 36t84.5 13q39 0 72.5 -9t59.5 -26q7 54 36.5 83.5t64.5 29.5q23 0 37.5 -11.5t14.5 -31.5q0 -18 -12.5 -30t-31.5 -12
q-11 0 -20 3.5t-17 8t-15.5 8t-15.5 3.5q-13 0 -21 -12.5t-12 -44.5q32 -23 50 -57.5t18 -76.5q0 -39 -15 -71.5t-42.5 -56t-66 -36.5t-84.5 -13q-22 0 -43 3q-12 1 -21 1.5t-17 0.5q-38 0 -60 -10.5t-22 -29.5q0 -15 12 -24t27.5 -14t30.5 -7l118 -15q58 -7 104 -15.5
t78.5 -22t49.5 -35.5t17 -57q0 -37 -19.5 -67t-55 -51t-85.5 -32.5t-112 -11.5q-52 0 -102 8.5t-89.5 25.5t-63.5 42t-24 59zM65 -40q0 -56 57.5 -87.5t159.5 -31.5q54 0 96 9t71.5 25t44.5 36t15 43q0 34 -28 54.5t-68.5 31.5t-84 14.5t-75.5 3.5q-55 0 -91.5 -6.5t-58 -19
t-30 -31t-8.5 -41.5zM285 229q28 0 52 11t41.5 30.5t27.5 47.5t10 61t-10 64.5t-28.5 55.5t-45 39t-59.5 15q-29 0 -53 -11t-41.5 -31t-27 -47.5t-9.5 -59.5t10 -63.5t28.5 -56t45 -40t59.5 -15.5zM206 694q0 23 15 36.5t37 13.5q23 0 38 -13.5t15 -36.5t-15 -37t-38 -14
q-22 0 -37 14t-15 37z" />
    <glyph glyph-name="uni0122" unicode="&#x122;" horiz-adv-x="715" 
d="M374 701q27 0 57.5 -4t61.5 -12t60.5 -21t52.5 -30l14 -189q-28 114 -94.5 177.5t-156.5 63.5q-50 0 -94 -21t-76.5 -63.5t-51 -106t-18.5 -147.5q0 -86 19 -150t52.5 -106t79.5 -62.5t100 -20.5q20 0 44 4t49 14.5t50 28.5t47 46v208h-25h-32t-44 -0.5t-44 -1t-33 -2.5
l2 25q10 -1 20.5 -2t25.5 -1.5t36.5 -0.5h53.5h116v-330l-73 71q-41 -37 -91.5 -55.5t-102.5 -18.5q-70 0 -131 27t-106.5 74.5t-71.5 112.5t-26 140q0 74 24.5 138.5t68 112t104 75t133.5 27.5zM335 -105q0 19 13 32t33 13q21 0 35 -13.5t14 -38.5q0 -46 -22 -71.5
t-62 -27.5l-1 4q47 12 49 58q-3 0 -6 -0.5t-7 -0.5q-20 0 -33 12.5t-13 32.5z" />
    <glyph glyph-name="uni0123" unicode="&#x123;" horiz-adv-x="564" 
d="M2 -37q0 49 48 75.5t154 31.5q-72 6 -102 29.5t-30 58.5q0 19 8.5 32.5t23 22.5t33.5 13t39 4h14q-56 20 -88 62t-32 100q0 39 15 71t43 55t66.5 36t84.5 13q39 0 72.5 -9t59.5 -26q7 54 36.5 83.5t64.5 29.5q23 0 37.5 -11.5t14.5 -31.5q0 -18 -12.5 -30t-31.5 -12
q-11 0 -20 3.5t-17 8t-15.5 8t-15.5 3.5q-13 0 -21 -12.5t-12 -44.5q32 -23 50 -57.5t18 -76.5q0 -39 -15 -71.5t-42.5 -56t-66 -36.5t-84.5 -13q-22 0 -43 3q-12 1 -21 1.5t-17 0.5q-38 0 -60 -10.5t-22 -29.5q0 -15 12 -24t27.5 -14t30.5 -7l118 -15q58 -7 104 -15.5
t78.5 -22t49.5 -35.5t17 -57q0 -37 -19.5 -67t-55 -51t-85.5 -32.5t-112 -11.5q-52 0 -102 8.5t-89.5 25.5t-63.5 42t-24 59zM282 -159q54 0 96 9t71.5 25t44.5 36t15 43q0 34 -28 54.5t-68.5 31.5t-84 14.5t-75.5 3.5q-55 0 -91.5 -6.5t-58 -19t-30 -31t-8.5 -41.5
q0 -56 57.5 -87.5t159.5 -31.5zM142 404q0 -32 10 -63.5t28.5 -56t45 -40t59.5 -15.5q28 0 52 11t41.5 30.5t27.5 47.5t10 61t-10 64.5t-28.5 55.5t-45 39t-59.5 15q-29 0 -53 -11t-41.5 -31t-27 -47.5t-9.5 -59.5zM210 677q0 46 22 71.5t62 27.5l1 -4q-47 -12 -49 -58
q3 0 6 0.5t7 0.5q20 0 33 -12.5t13 -32.5q0 -19 -13 -32t-33 -13q-21 0 -35 13.5t-14 38.5z" />
    <glyph glyph-name="Hcircumflex" unicode="&#x124;" horiz-adv-x="756" 
d="M42 695h183q-16 -5 -26 -11.5t-16 -19.5t-8.5 -33.5t-2.5 -53.5v-185h413v185q0 33 -2.5 54t-8.5 33.5t-16.5 19.5t-26.5 11h183q-16 -5 -26 -11.5t-16 -19.5t-8.5 -33.5t-2.5 -53.5v-459q0 -33 2.5 -53.5t8.5 -33t16 -19.5t26 -12h-183q16 5 26.5 11.5t16.5 19t8.5 33.5
t2.5 54v257h-413v-257q0 -33 2.5 -53.5t8.5 -33t16 -19.5t26 -12h-183q16 5 26.5 11.5t16.5 19t8.5 33.5t2.5 54v459q0 33 -2.5 54t-8.5 33.5t-16.5 19.5t-26.5 11zM253 770l122 166h4l123 -166l-2 -2l-123 96l-122 -96z" />
    <glyph glyph-name="hcircumflex" unicode="&#x125;" horiz-adv-x="647" 
d="M79 87v587q0 31 -5 45t-20 26l99 12v-345q25 73 80 115.5t140 42.5q48 0 85 -13.5t62.5 -38.5t39 -59.5t13.5 -75.5v-296q0 -21 2.5 -35.5t8.5 -24.5t16 -16t25 -11h-178q16 5 26 11t16 15.5t8 24.5t2 36v306q0 75 -36 117.5t-105 42.5q-39 0 -75 -14.5t-64 -42.5
t-45.5 -69t-20.5 -94v-246q0 -21 2.5 -35.5t8.5 -24.5t16 -16t25 -11h-178q16 5 26 11t16 15.5t8 24.5t2 36zM112 987h4l123 -166l-2 -2l-123 96l-122 -96l-2 2z" />
    <glyph glyph-name="Hbar" unicode="&#x126;" horiz-adv-x="795" 
d="M28 550v15h88v12q0 33 -2.5 54t-8.5 33.5t-16.5 19.5t-26.5 11h183q-16 -5 -26 -11.5t-16 -19.5t-8.5 -33.5t-2.5 -53.5v-12h413v12q0 33 -2.5 54t-8.5 33.5t-16.5 19.5t-26.5 11h183q-16 -5 -26 -11.5t-16 -19.5t-8.5 -33.5t-2.5 -53.5v-12h86v-15h-86v-432
q0 -33 2.5 -53.5t8.5 -33t16 -19.5t26 -12h-183q16 5 26.5 11.5t16.5 19t8.5 33.5t2.5 54v257h-413v-257q0 -33 2.5 -53.5t8.5 -33t16 -19.5t26 -12h-183q16 5 26.5 11.5t16.5 19t8.5 33.5t2.5 54v432h-88zM192 392h413v158h-413v-158z" />
    <glyph glyph-name="hbar" unicode="&#x127;" horiz-adv-x="668" 
d="M27 631v14h73v29q0 31 -5 45t-20 26l99 12v-112h158v-14h-158v-219q25 73 80 115.5t140 42.5q48 0 85 -13.5t62.5 -38.5t39 -59.5t13.5 -75.5v-296q0 -21 2.5 -35.5t8.5 -24.5t16 -16t25 -11h-178q16 5 26 11t16 15.5t8 24.5t2 36v306q0 75 -36 117.5t-105 42.5
q-39 0 -75 -14.5t-64 -42.5t-45.5 -69t-20.5 -94v-246q0 -21 2.5 -35.5t8.5 -24.5t16 -16t25 -11h-178q16 5 26 11t16 15.5t8 24.5t2 36v544h-73z" />
    <glyph glyph-name="Itilde" unicode="&#x128;" horiz-adv-x="267" 
d="M42 0q16 5 26.5 11.5t16.5 19t8.5 33.5t2.5 54v459q0 33 -2.5 54t-8.5 33.5t-16.5 19.5t-26.5 11h183q-16 -5 -26 -11.5t-16 -19.5t-8.5 -33.5t-2.5 -53.5v-459q0 -33 2.5 -53.5t8.5 -33t16 -19.5t26 -12h-183zM86 893q32 0 46.5 -13t23.5 -28t18.5 -28t31.5 -13
q26 0 39 21t12 56h10q2 -49 -21 -71.5t-61 -22.5q-32 0 -47 12.5t-24.5 28t-19.5 28t-31 12.5q-26 0 -38.5 -20.5t-11.5 -55.5h-11q-2 49 22 71.5t62 22.5z" />
    <glyph glyph-name="itilde" unicode="&#x129;" horiz-adv-x="232" 
d="M28 0q16 5 26 11t16 15.5t8 24.5t2 36v369q0 21 -1.5 36.5t-4.5 27.5t-8.5 22t-13.5 20l102 9v-484q0 -21 2.5 -35.5t8.5 -24.5t16 -16t25 -11h-178zM66 734q32 0 46.5 -13t23.5 -28t18.5 -28t31.5 -13q26 0 39 21t12 56h10q2 -49 -21 -71.5t-61 -22.5q-32 0 -47 12.5
t-24.5 28t-19.5 28t-31 12.5q-26 0 -38.5 -20.5t-11.5 -55.5h-11q-2 49 22 71.5t62 22.5z" />
    <glyph glyph-name="Imacron" unicode="&#x12a;" horiz-adv-x="267" 
d="M96 118v459q0 33 -2.5 54t-8.5 33.5t-16.5 19.5t-26.5 11h183q-16 -5 -26 -11.5t-16 -19.5t-8.5 -33.5t-2.5 -53.5v-459q0 -33 2.5 -53.5t8.5 -33t16 -19.5t26 -12h-183q16 5 26.5 11.5t16.5 19t8.5 33.5t2.5 54zM-5 821h278v-16h-278v16z" />
    <glyph glyph-name="imacron" unicode="&#x12b;" horiz-adv-x="232" 
d="M80 87v369q0 21 -1.5 36.5t-4.5 27.5t-8.5 22t-13.5 20l102 9v-484q0 -21 2.5 -35.5t8.5 -24.5t16 -16t25 -11h-178q16 5 26 11t16 15.5t8 24.5t2 36zM253 677v-12h-276v12h276z" />
    <glyph glyph-name="Ibreve" unicode="&#x12c;" horiz-adv-x="267" 
d="M42 695h183q-16 -5 -26 -11.5t-16 -19.5t-8.5 -33.5t-2.5 -53.5v-459q0 -33 2.5 -53.5t8.5 -33t16 -19.5t26 -12h-183q16 5 26.5 11.5t16.5 19t8.5 33.5t2.5 54v459q0 33 -2.5 54t-8.5 33.5t-16.5 19.5t-26.5 11zM38 908q4 -39 31 -65t67 -26q42 0 67 26t29 65h7
q-3 -29 -10.5 -54.5t-20.5 -44t-31 -29.5t-42 -11t-42 11t-31 29.5t-20.5 44t-10.5 54.5h7z" />
    <glyph glyph-name="ibreve" unicode="&#x12d;" horiz-adv-x="232" 
d="M28 0q16 5 26 11t16 15.5t8 24.5t2 36v369q0 21 -1.5 36.5t-4.5 27.5t-8.5 22t-13.5 20l102 9v-484q0 -21 2.5 -35.5t8.5 -24.5t16 -16t25 -11h-178zM11 805h7q4 -39 31 -65t67 -26q42 0 67 26t29 65h7q-3 -29 -10.5 -54.5t-20.5 -44t-31 -29.5t-42 -11t-42 11t-31 29.5
t-20.5 44t-10.5 54.5z" />
    <glyph glyph-name="Iogonek" unicode="&#x12e;" horiz-adv-x="267" 
d="M42 0q16 5 26.5 11.5t16.5 19t8.5 33.5t2.5 54v459q0 33 -2.5 54t-8.5 33.5t-16.5 19.5t-26.5 11h183q-16 -5 -26 -11.5t-16 -19.5t-8.5 -33.5t-2.5 -53.5v-459q0 -33 2.5 -53.5t8.5 -33t16 -19.5t26 -12q-31 -17 -54.5 -49t-23.5 -70q0 -26 11 -36t22 -10
q20 0 40.5 24.5t31.5 77.5l-5 -89q-11 -8 -30.5 -17.5t-44.5 -9.5q-27 0 -50 15t-23 46q0 19 10.5 37t27 33t37 27.5t39.5 20.5h-171z" />
    <glyph glyph-name="iogonek" unicode="&#x12f;" horiz-adv-x="232" 
d="M28 0q16 5 26 11t16 15.5t8 24.5t2 36v369q0 21 -1.5 36.5t-4.5 27.5t-8.5 22t-13.5 20l102 9v-484q0 -21 2.5 -35.5t8.5 -24.5t16 -16t25 -11q-31 -17 -54.5 -49t-23.5 -70q0 -26 11 -36t22 -10q20 0 40.5 24.5t31.5 77.5l-5 -89q-11 -8 -30.5 -17.5t-44.5 -9.5
q-27 0 -50 15t-23 46q0 19 10.5 37t27 33t37 27.5t39.5 20.5h-166zM62 694q0 23 15 36.5t37 13.5q23 0 38 -13.5t15 -36.5t-15 -37t-38 -14q-22 0 -37 14t-15 37z" />
    <glyph glyph-name="Idotaccent" unicode="&#x130;" horiz-adv-x="267" 
d="M96 118v459q0 33 -2.5 54t-8.5 33.5t-16.5 19.5t-26.5 11h183q-16 -5 -26 -11.5t-16 -19.5t-8.5 -33.5t-2.5 -53.5v-459q0 -33 2.5 -53.5t8.5 -33t16 -19.5t26 -12h-183q16 5 26.5 11.5t16.5 19t8.5 33.5t2.5 54zM82 834q0 23 15 36.5t37 13.5q23 0 38 -13.5t15 -36.5
t-15 -37t-38 -14q-22 0 -37 14t-15 37z" />
    <glyph glyph-name="dotlessi" unicode="&#x131;" horiz-adv-x="232" 
d="M28 0q16 5 26 11t16 15.5t8 24.5t2 36v369q0 21 -1.5 36.5t-4.5 27.5t-8.5 22t-13.5 20l102 9v-484q0 -21 2.5 -35.5t8.5 -24.5t16 -16t25 -11h-178z" />
    <glyph glyph-name="IJ" unicode="&#x132;" horiz-adv-x="747" 
d="M309 263q11 -136 49 -195.5t109 -59.5q34 0 56 11.5t34.5 36t17.5 63.5t5 93v396q0 44 -11.5 61.5t-41.5 25.5h184q-31 -10 -42.5 -27.5t-11.5 -60.5v-386q0 -33 -3.5 -72.5t-22 -74t-57 -58t-107.5 -23.5q-60 0 -104 20.5t-79 55.5zM42 0q16 5 26.5 11.5t16.5 19
t8.5 33.5t2.5 54v459q0 33 -2.5 54t-8.5 33.5t-16.5 19.5t-26.5 11h183q-16 -5 -26 -11.5t-16 -19.5t-8.5 -33.5t-2.5 -53.5v-459q0 -33 2.5 -53.5t8.5 -33t16 -19.5t26 -12h-183z" />
    <glyph glyph-name="ij" unicode="&#x133;" horiz-adv-x="430" 
d="M234 -188q17 12 28.5 33.5t18.5 51.5t10 67t3 79v413q0 21 -1.5 36.5t-4.5 27.5t-8.5 22t-13.5 20l102 9v-472q0 -132 -32.5 -202t-101.5 -85zM28 0q16 5 26 11t16 15.5t8 24.5t2 36v369q0 21 -1.5 36.5t-4.5 27.5t-8.5 22t-13.5 20l102 9v-484q0 -21 2.5 -35.5
t8.5 -24.5t16 -16t25 -11h-178zM278 694q0 23 15 36.5t37 13.5q23 0 38 -13.5t15 -36.5t-15 -37t-38 -14q-22 0 -37 14t-15 37zM62 694q0 23 15 36.5t37 13.5q23 0 38 -13.5t15 -36.5t-15 -37t-38 -14q-22 0 -37 14t-15 37z" />
    <glyph glyph-name="Jcircumflex" unicode="&#x134;" horiz-adv-x="501" 
d="M38 69l25 194q11 -136 49 -195.5t109 -59.5q34 0 56 11.5t34.5 36t17.5 63.5t5 93v396q0 44 -11.5 61.5t-41.5 25.5h184q-31 -10 -42.5 -27.5t-11.5 -60.5v-386q0 -33 -3.5 -72.5t-22 -74t-57 -58t-107.5 -23.5q-60 0 -104 20.5t-79 55.5zM370 936h4l123 -166l-2 -2
l-123 96l-122 -96l-2 2z" />
    <glyph glyph-name="jcircumflex" unicode="&#x135;" horiz-adv-x="206" 
d="M70 43v413q0 21 -1.5 36.5t-4.5 27.5t-8.5 22t-13.5 20l102 9v-472q0 -132 -32.5 -202t-101.5 -85q17 12 28.5 33.5t18.5 51.5t10 67t3 79zM-18 630l122 166h4l123 -166l-2 -2l-123 96l-122 -96z" />
    <glyph glyph-name="uni0136" unicode="&#x136;" horiz-adv-x="707" 
d="M96 118v459q0 33 -2.5 54t-8.5 33.5t-16.5 19.5t-26.5 11h183q-16 -5 -26 -11.5t-16 -19.5t-8.5 -33.5t-2.5 -53.5v-282l328 300q75 68 58 100h101q-20 -11 -57.5 -38t-102.5 -86l-166 -152q22 -27 48 -59.5t54.5 -68.5t58.5 -73.5t59 -72.5q15 -18 35 -41.5t39 -45.5
t34.5 -38.5t20.5 -19.5h-133q-1 27 -17.5 54.5t-52.5 73.5q-19 25 -43.5 57t-50.5 65.5t-51.5 66t-47.5 59.5l-114 -104v-154q0 -33 2.5 -53.5t8.5 -33t16 -19.5t26 -12h-183q16 5 26.5 11.5t16.5 19t8.5 33.5t2.5 54zM321 -105q0 19 13 32t33 13q21 0 35 -13.5t14 -38.5
q0 -46 -22 -71.5t-62 -27.5l-1 4q47 12 49 58q-3 0 -6 -0.5t-7 -0.5q-20 0 -33 12.5t-13 32.5z" />
    <glyph glyph-name="uni0137" unicode="&#x137;" horiz-adv-x="592" 
d="M79 87v587q0 31 -5 45t-20 26l99 12v-511l256 225q27 23 45 47t16 47h91q-10 -5 -23 -13.5t-31 -22t-42 -33.5t-57 -49l-110 -97l191 -241q28 -35 45 -56t27 -33t14 -16t6 -4h-128q2 3 3 8.5t-3 16t-13.5 27t-28.5 41.5l-164 213l-94 -83v-136q0 -21 2.5 -35.5t8.5 -24.5
t16 -16t25 -11h-178q16 5 26 11t16 15.5t8 24.5t2 36zM245 -105q0 19 13 32t33 13q21 0 35 -13.5t14 -38.5q0 -46 -22 -71.5t-62 -27.5l-1 4q47 12 49 58q-3 0 -6 -0.5t-7 -0.5q-20 0 -33 12.5t-13 32.5z" />
    <glyph glyph-name="kgreenlandic" unicode="&#x138;" horiz-adv-x="602" 
d="M28 0q16 5 26 11t16 15.5t8 24.5t2 36v369q0 21 -1.5 36.5t-4.5 27.5t-8.5 22t-13.5 20l102 9v-333l265 233q27 23 45 47t16 47h91q-10 -5 -23 -13.5t-31 -22t-42 -33.5t-57 -49l-112 -98l193 -240q28 -35 45.5 -56t27 -33t13.5 -16t6 -4h-128q2 3 3 8.5t-3 16t-13.5 27
t-28.5 41.5l-164 213l-103 -91v-128q0 -21 2.5 -35.5t8.5 -24.5t16 -16t25 -11h-178z" />
    <glyph glyph-name="Lacute" unicode="&#x139;" horiz-adv-x="541" 
d="M226 695q-16 -5 -26 -11.5t-16 -16t-9 -24.5t-3 -36v-590h169q37 0 62.5 7t44 25.5t32 51t25.5 84.5l-20 -185h-443q32 9 43 27t11 61v519q0 22 -2.5 36.5t-8.5 24.5t-16.5 16.5t-26.5 10.5h184zM134 760l48 168h74l-119 -168h-3z" />
    <glyph glyph-name="lacute" unicode="&#x13a;" horiz-adv-x="231" 
d="M27 0q16 5 26 11t16 15.5t8 24.5t2 36v587q0 31 -5 45t-20 26l99 12v-670q0 -21 2.5 -35.5t8.5 -24.5t16 -16t25 -11h-178zM113 811l48 168h74l-119 -168h-3z" />
    <glyph glyph-name="uni013B" unicode="&#x13b;" horiz-adv-x="541" 
d="M226 695q-16 -5 -26 -11.5t-16 -16t-9 -24.5t-3 -36v-590h169q37 0 62.5 7t44 25.5t32 51t25.5 84.5l-20 -185h-443q32 9 43 27t11 61v519q0 22 -2.5 36.5t-8.5 24.5t-16.5 16.5t-26.5 10.5h184zM219 -105q0 19 13 32t33 13q21 0 35 -13.5t14 -38.5q0 -46 -22 -71.5
t-62 -27.5l-1 4q47 12 49 58q-3 0 -6 -0.5t-7 -0.5q-20 0 -33 12.5t-13 32.5z" />
    <glyph glyph-name="uni013C" unicode="&#x13c;" horiz-adv-x="231" 
d="M27 0q16 5 26 11t16 15.5t8 24.5t2 36v587q0 31 -5 45t-20 26l99 12v-670q0 -21 2.5 -35.5t8.5 -24.5t16 -16t25 -11h-178zM115 -60q21 0 35 -13.5t14 -38.5q0 -46 -22 -71.5t-62 -27.5l-1 4q47 12 49 58q-3 0 -6 -0.5t-7 -0.5q-20 0 -33 12.5t-13 32.5q0 19 13 32t33 13
z" />
    <glyph glyph-name="Lcaron" unicode="&#x13d;" horiz-adv-x="541" 
d="M42 695h184q-16 -5 -26 -11.5t-16 -16t-9 -24.5t-3 -36v-590h169q37 0 62.5 7t44 25.5t32 51t25.5 84.5l-20 -185h-443q32 9 43 27t11 61v519q0 22 -2.5 36.5t-8.5 24.5t-16.5 16.5t-26.5 10.5zM11 934l2 2l122 -96l123 96l2 -2l-123 -166h-4z" />
    <glyph glyph-name="lcaron" unicode="&#x13e;" horiz-adv-x="231" 
d="M27 0q16 5 26 11t16 15.5t8 24.5t2 36v587q0 31 -5 45t-20 26l99 12v-670q0 -21 2.5 -35.5t8.5 -24.5t16 -16t25 -11h-178zM-9 975l2 2l122 -96l123 96l2 -2l-123 -166h-4z" />
    <glyph glyph-name="Ldot" unicode="&#x13f;" horiz-adv-x="594" 
d="M226 695q-16 -5 -26 -11.5t-16 -16t-9 -24.5t-3 -36v-590h169q37 0 62.5 7t44 25.5t32 51t25.5 84.5l-20 -185h-443q32 9 43 27t11 61v519q0 22 -2.5 36.5t-8.5 24.5t-16.5 16.5t-26.5 10.5h184zM531 402q17 0 28 -10.5t11 -26.5q0 -17 -11 -27.5t-28 -10.5t-28 10.5
t-11 27.5q0 16 11 26.5t28 10.5z" />
    <glyph glyph-name="ldot" unicode="&#x140;" horiz-adv-x="331" 
d="M27 0q16 5 26 11t16 15.5t8 24.5t2 36v587q0 31 -5 45t-20 26l99 12v-670q0 -21 2.5 -35.5t8.5 -24.5t16 -16t25 -11h-178zM228 298q0 23 15.5 38t41.5 15q25 0 40.5 -15t15.5 -38q0 -24 -15.5 -40t-40.5 -16q-26 0 -41.5 16t-15.5 40z" />
    <glyph glyph-name="Lslash" unicode="&#x141;" horiz-adv-x="578" 
d="M27 304l106 56v247q0 22 -2.5 36.5t-8.5 24.5t-16.5 16.5t-26.5 10.5h184q-16 -5 -26 -11.5t-16 -16t-9 -24.5t-3 -36v-207l222 117l8 -15l-230 -121v-364h169q37 0 62.5 7t44 25.5t32 51t25.5 84.5l-20 -185h-443q32 9 43 27t11 61v253l-100 -52z" />
    <glyph glyph-name="lslash" unicode="&#x142;" horiz-adv-x="309" 
d="M10 396l102 65v213q0 31 -5 45t-20 26l99 12v-255l110 68l8 -13l-118 -75v-395q0 -21 2.5 -35.5t8.5 -24.5t16 -16t25 -11h-178q16 5 26 11t16 15.5t8 24.5t2 36v357l-95 -60z" />
    <glyph glyph-name="Nacute" unicode="&#x143;" horiz-adv-x="742" 
d="M42 695h96l494 -574v486q0 22 -2.5 36.5t-8.5 24.5t-16.5 16.5t-26.5 10.5h125q-31 -10 -42.5 -27.5t-11.5 -60.5v-607h-7l-529 615v-527q0 -43 11.5 -60.5t42.5 -27.5h-125q32 9 43 27t11 61v519q0 22 -2.5 36.5t-8.5 24.5t-16.5 16.5t-26.5 10.5zM432 928h74l-119 -168
h-3z" />
    <glyph glyph-name="nacute" unicode="&#x144;" horiz-adv-x="648" 
d="M80 87v369q0 21 -1.5 36.5t-4.5 27.5t-8.5 22t-13.5 20l102 9v-159q25 73 80 115.5t140 42.5q48 0 85 -13.5t62.5 -38.5t39 -59.5t13.5 -75.5v-296q0 -21 2.5 -35.5t8.5 -24.5t16 -16t25 -11h-178q16 5 26 11t16 15.5t8 24.5t2 36v306q0 75 -36 117.5t-105 42.5
q-39 0 -75 -14.5t-64 -42.5t-45.5 -69t-20.5 -94v-246q0 -21 2.5 -35.5t8.5 -24.5t16 -16t25 -11h-178q16 5 26 11t16 15.5t8 24.5t2 36zM387 801h74l-119 -168h-3z" />
    <glyph glyph-name="uni0145" unicode="&#x145;" horiz-adv-x="742" 
d="M42 695h96l494 -574v486q0 22 -2.5 36.5t-8.5 24.5t-16.5 16.5t-26.5 10.5h125q-31 -10 -42.5 -27.5t-11.5 -60.5v-607h-7l-529 615v-527q0 -43 11.5 -60.5t42.5 -27.5h-125q32 9 43 27t11 61v519q0 22 -2.5 36.5t-8.5 24.5t-16.5 16.5t-26.5 10.5zM350 -60
q21 0 35 -13.5t14 -38.5q0 -46 -22 -71.5t-62 -27.5l-1 4q47 12 49 58q-3 0 -6 -0.5t-7 -0.5q-20 0 -33 12.5t-13 32.5q0 19 13 32t33 13z" />
    <glyph glyph-name="uni0146" unicode="&#x146;" horiz-adv-x="648" 
d="M28 0q16 5 26 11t16 15.5t8 24.5t2 36v369q0 21 -1.5 36.5t-4.5 27.5t-8.5 22t-13.5 20l102 9v-159q25 73 80 115.5t140 42.5q48 0 85 -13.5t62.5 -38.5t39 -59.5t13.5 -75.5v-296q0 -21 2.5 -35.5t8.5 -24.5t16 -16t25 -11h-178q16 5 26 11t16 15.5t8 24.5t2 36v306
q0 75 -36 117.5t-105 42.5q-39 0 -75 -14.5t-64 -42.5t-45.5 -69t-20.5 -94v-246q0 -21 2.5 -35.5t8.5 -24.5t16 -16t25 -11h-178zM296 -105q0 19 13 32t33 13q21 0 35 -13.5t14 -38.5q0 -46 -22 -71.5t-62 -27.5l-1 4q47 12 49 58q-3 0 -6 -0.5t-7 -0.5q-20 0 -33 12.5
t-13 32.5z" />
    <glyph glyph-name="Ncaron" unicode="&#x147;" horiz-adv-x="742" 
d="M42 695h96l494 -574v486q0 22 -2.5 36.5t-8.5 24.5t-16.5 16.5t-26.5 10.5h125q-31 -10 -42.5 -27.5t-11.5 -60.5v-607h-7l-529 615v-527q0 -43 11.5 -60.5t42.5 -27.5h-125q32 9 43 27t11 61v519q0 22 -2.5 36.5t-8.5 24.5t-16.5 16.5t-26.5 10.5zM263 936l122 -96
l123 96l2 -2l-123 -166h-4l-122 166z" />
    <glyph glyph-name="ncaron" unicode="&#x148;" horiz-adv-x="648" 
d="M28 0q16 5 26 11t16 15.5t8 24.5t2 36v369q0 21 -1.5 36.5t-4.5 27.5t-8.5 22t-13.5 20l102 9v-159q25 73 80 115.5t140 42.5q48 0 85 -13.5t62.5 -38.5t39 -59.5t13.5 -75.5v-296q0 -21 2.5 -35.5t8.5 -24.5t16 -16t25 -11h-178q16 5 26 11t16 15.5t8 24.5t2 36v306
q0 75 -36 117.5t-105 42.5q-39 0 -75 -14.5t-64 -42.5t-45.5 -69t-20.5 -94v-246q0 -21 2.5 -35.5t8.5 -24.5t16 -16t25 -11h-178zM218 794l2 2l122 -96l123 96l2 -2l-123 -166h-4z" />
    <glyph glyph-name="napostrophe" unicode="&#x149;" horiz-adv-x="720" 
d="M100 0q16 5 26 11t16 15.5t8 24.5t2 36v369q0 21 -1.5 36.5t-4.5 27.5t-8.5 22t-13.5 20l102 9v-159q25 73 80 115.5t140 42.5q48 0 85 -13.5t62.5 -38.5t39 -59.5t13.5 -75.5v-296q0 -21 2.5 -35.5t8.5 -24.5t16 -16t25 -11h-178q16 5 26 11t16 15.5t8 24.5t2 36v306
q0 75 -36 117.5t-105 42.5q-39 0 -75 -14.5t-64 -42.5t-45.5 -69t-20.5 -94v-246q0 -21 2.5 -35.5t8.5 -24.5t16 -16t25 -11h-178zM-5 680q0 16 11 26.5t28 10.5t28 -11t11 -29q0 -45 -20 -72.5t-50 -39.5l-1 1q18 17 30 35.5t12 41.5q-3 -1 -10 -1q-17 0 -28 10.5t-11 27.5
z" />
    <glyph glyph-name="Eng" unicode="&#x14a;" horiz-adv-x="733" 
d="M31 695h96l494 -574v486q0 22 -2.5 36.5t-8.5 24.5t-16.5 16.5t-26.5 10.5h125q-31 -10 -42.5 -27.5t-11.5 -60.5v-607q0 -27 -7 -55.5t-20 -53.5t-31.5 -42.5t-41.5 -22.5l-18 91q20 -9 37 -9q26 0 43.5 19t17.5 48q0 24 -11 44.5t-29 41.5l-476 554v-527
q0 -43 11.5 -60.5t42.5 -27.5h-125q32 9 43 27t11 61v519q0 22 -2.5 36.5t-8.5 24.5t-16.5 16.5t-26.5 10.5z" />
    <glyph glyph-name="eng" unicode="&#x14b;" horiz-adv-x="644" 
d="M80 87v369q0 21 -1.5 36.5t-4.5 27.5t-8.5 22t-13.5 20l102 9v-159q25 73 80 115.5t140 42.5q48 0 85 -13.5t62.5 -38.5t39 -59.5t13.5 -75.5v-284q0 -132 -32.5 -202t-101.5 -85q17 12 28.5 33.5t18.5 51.5t10 67t3 79v350q0 75 -36 118.5t-105 43.5q-39 0 -75 -15
t-64 -43.5t-45.5 -69.5t-20.5 -94v-246q0 -21 2.5 -35.5t8.5 -24.5t16 -16t25 -11h-178q16 5 26 11t16 15.5t8 24.5t2 36z" />
    <glyph glyph-name="Omacron" unicode="&#x14c;" horiz-adv-x="758" 
d="M379 702q73 0 134.5 -27t106 -74.5t69.5 -112.5t25 -140t-25 -140t-69.5 -112.5t-106 -74.5t-134.5 -27t-134.5 27t-106 74.5t-69.5 112.5t-25 140t25 140t69.5 112.5t106 74.5t134.5 27zM379 9q56 0 102 21t79 63.5t51 106t18 148.5t-18 148.5t-51 106t-79 63.5t-102 21
t-102 -21t-79 -63.5t-51 -106t-18 -148.5t18 -148.5t51 -106t79 -63.5t102 -21zM241 821h278v-16h-278v16z" />
    <glyph glyph-name="omacron" unicode="&#x14d;" 
d="M318 570q64 0 116.5 -21t90.5 -59.5t59 -91t21 -115.5v-1q0 -63 -21 -115.5t-59 -91t-90.5 -59.5t-116.5 -21t-116.5 21t-90.5 59.5t-59 91t-21 115.5v1q0 63 21 115.5t59 91t90.5 59.5t116.5 21zM112 283q0 -60 15 -110t42 -86.5t65 -56.5t84 -20t84 20t65 56.5t42 86.5
t15 110t-15 110t-42 86t-65 56t-84 20t-84 -20t-65 -56t-42 -86t-15 -110zM181 677h276v-12h-276v12z" />
    <glyph glyph-name="Obreve" unicode="&#x14e;" horiz-adv-x="758" 
d="M44 348q0 75 25 140t69.5 112.5t106 74.5t134.5 27t134.5 -27t106 -74.5t69.5 -112.5t25 -140t-25 -140t-69.5 -112.5t-106 -74.5t-134.5 -27t-134.5 27t-106 74.5t-69.5 112.5t-25 140zM129 348q0 -85 18 -148.5t51 -106t79 -63.5t102 -21t102 21t79 63.5t51 106
t18 148.5t-18 148.5t-51 106t-79 63.5t-102 21t-102 -21t-79 -63.5t-51 -106t-18 -148.5zM284 908q4 -39 31 -65t67 -26q42 0 67 26t29 65h7q-3 -29 -10.5 -54.5t-20.5 -44t-31 -29.5t-42 -11t-42 11t-31 29.5t-20.5 44t-10.5 54.5h7z" />
    <glyph glyph-name="obreve" unicode="&#x14f;" 
d="M318 570q64 0 116.5 -21t90.5 -59.5t59 -91t21 -115.5v-1q0 -63 -21 -115.5t-59 -91t-90.5 -59.5t-116.5 -21t-116.5 21t-90.5 59.5t-59 91t-21 115.5v1q0 63 21 115.5t59 91t90.5 59.5t116.5 21zM318 10q46 0 84 20t65 56.5t42 86.5t15 110t-15 110t-42 86t-65 56
t-84 20t-84 -20t-65 -56t-42 -86t-15 -110t15 -110t42 -86.5t65 -56.5t84 -20zM222 805q4 -39 31 -65t67 -26q42 0 67 26t29 65h7q-3 -29 -10.5 -54.5t-20.5 -44t-31 -29.5t-42 -11t-42 11t-31 29.5t-20.5 44t-10.5 54.5h7z" />
    <glyph glyph-name="Ohungarumlaut" unicode="&#x150;" horiz-adv-x="758" 
d="M379 702q73 0 134.5 -27t106 -74.5t69.5 -112.5t25 -140t-25 -140t-69.5 -112.5t-106 -74.5t-134.5 -27t-134.5 27t-106 74.5t-69.5 112.5t-25 140t25 140t69.5 112.5t106 74.5t134.5 27zM379 9q56 0 102 21t79 63.5t51 106t18 148.5t-18 148.5t-51 106t-79 63.5t-102 21
t-102 -21t-79 -63.5t-51 -106t-18 -148.5t18 -148.5t51 -106t79 -63.5t102 -21zM532 916h77l-208 -163h-3zM359 753l36 163h63l-96 -163h-3z" />
    <glyph glyph-name="ohungarumlaut" unicode="&#x151;" 
d="M318 570q64 0 116.5 -21t90.5 -59.5t59 -91t21 -115.5v-1q0 -63 -21 -115.5t-59 -91t-90.5 -59.5t-116.5 -21t-116.5 21t-90.5 59.5t-59 91t-21 115.5v1q0 63 21 115.5t59 91t90.5 59.5t116.5 21zM112 283q0 -60 15 -110t42 -86.5t65 -56.5t84 -20t84 20t65 56.5t42 86.5
t15 110t-15 110t-42 86t-65 56t-84 20t-84 -20t-65 -56t-42 -86t-15 -110zM471 786h77l-208 -163h-3zM334 786h63l-96 -163h-3z" />
    <glyph glyph-name="OE" unicode="&#x152;" horiz-adv-x="923" 
d="M375 702q20 0 40.5 -2t33.5 -5h389l21 -183q-12 52 -34 84.5t-50.5 50.5t-62 24.5t-70.5 6.5h-107v-296h63q48 0 80 6t52 18t30.5 29t15.5 39l-14 -203q-1 22 -9.5 39.5t-28 29.5t-51.5 18.5t-81 6.5h-57v-348h135q37 0 69 7.5t58.5 28.5t47 58t32.5 96l-18 -207h-415
q-31 -6 -66 -6q-72 0 -133.5 27t-106 74.5t-69.5 112.5t-25 140t25 140t69.5 112.5t105 74.5t131.5 27zM382 9q29 0 44.5 5.5t23 15.5t8.5 25.5t1 34.5v519q0 22 -1 37t-7.5 24t-20.5 13t-40 4q-125 0 -193 -84.5t-68 -252.5q0 -85 18 -149t51 -107t80 -64t104 -21z" />
    <glyph glyph-name="oe" unicode="&#x153;" horiz-adv-x="1053" 
d="M31 282q0 63 21 116t58.5 91.5t89.5 59.5t115 21q81 0 143 -33.5t96 -93.5q30 59 87 93t137 34q59 0 102.5 -17t72.5 -48t43.5 -73t15.5 -92h-415q-2 -15 -3 -30.5t-1 -31.5q0 -57 15 -106.5t42 -85.5t64.5 -56.5t82.5 -20.5q39 0 71 14.5t58.5 41.5t48 64.5t37.5 82.5
l-9 -145q-44 -37 -99.5 -54.5t-106.5 -17.5q-83 0 -146 34t-96 95q-34 -60 -96 -94.5t-144 -34.5q-63 0 -115 21t-89.5 59.5t-58.5 91t-21 115.5zM315 10q46 0 83.5 20t64 56.5t41 86.5t14.5 110t-14.5 110t-41 86t-64 56t-83.5 20q-45 0 -82.5 -20t-64 -56t-41.5 -86
t-15 -110t15 -110t41.5 -86.5t64 -56.5t82.5 -20zM934 352q-1 44 -12 81t-31 65t-48.5 43.5t-65.5 15.5q-36 0 -66 -15.5t-52.5 -42.5t-38 -64.5t-22.5 -82.5h336z" />
    <glyph glyph-name="Racute" unicode="&#x154;" horiz-adv-x="652" 
d="M42 695h243q48 0 93.5 -9t81 -29.5t57 -53.5t21.5 -81q0 -42 -16.5 -74.5t-44.5 -56t-64 -37.5t-75 -20l163 -196q15 -17 34.5 -39.5t38.5 -43.5t34 -36.5t20 -18.5h-134q0 14 -4.5 27.5t-13.5 27.5t-22 31t-30 38l-166 206h-86v-242q0 -43 11.5 -60.5t42.5 -27.5h-184
q32 9 43 27t11 61v519q0 22 -2.5 36.5t-8.5 24.5t-16.5 16.5t-26.5 10.5zM172 346h101q88 0 137.5 44.5t49.5 127.5q0 46 -16 77t-43 49.5t-62.5 26.5t-75.5 8h-91v-333zM291 760l48 168h74l-119 -168h-3z" />
    <glyph glyph-name="racute" unicode="&#x155;" horiz-adv-x="395" 
d="M28 0q16 5 26 11t16 15.5t8 24.5t2 36v369q0 21 -1.5 36.5t-4.5 27.5t-8.5 22t-13.5 20l101 9v-134q12 28 27 52t35 42t46.5 28t60.5 10q32 0 57 -7l-1 -96q-9 11 -21.5 23t-26.5 22t-29 16.5t-31 6.5q-20 0 -37 -10t-31.5 -26.5t-26.5 -39t-21 -47.5v-324
q0 -21 2.5 -35.5t8.5 -24.5t16 -16t25 -11h-178zM262 801h74l-119 -168h-3z" />
    <glyph glyph-name="uni0156" unicode="&#x156;" horiz-adv-x="652" 
d="M42 695h243q48 0 93.5 -9t81 -29.5t57 -53.5t21.5 -81q0 -42 -16.5 -74.5t-44.5 -56t-64 -37.5t-75 -20l163 -196q15 -17 34.5 -39.5t38.5 -43.5t34 -36.5t20 -18.5h-134q0 14 -4.5 27.5t-13.5 27.5t-22 31t-30 38l-166 206h-86v-242q0 -43 11.5 -60.5t42.5 -27.5h-184
q32 9 43 27t11 61v519q0 22 -2.5 36.5t-8.5 24.5t-16.5 16.5t-26.5 10.5zM172 346h101q88 0 137.5 44.5t49.5 127.5q0 46 -16 77t-43 49.5t-62.5 26.5t-75.5 8h-91v-333zM306 -105q0 19 13 32t33 13q21 0 35 -13.5t14 -38.5q0 -46 -22 -71.5t-62 -27.5l-1 4q47 12 49 58
q-3 0 -6 -0.5t-7 -0.5q-20 0 -33 12.5t-13 32.5z" />
    <glyph glyph-name="uni0157" unicode="&#x157;" horiz-adv-x="395" 
d="M28 0q16 5 26 11t16 15.5t8 24.5t2 36v369q0 21 -1.5 36.5t-4.5 27.5t-8.5 22t-13.5 20l101 9v-134q12 28 27 52t35 42t46.5 28t60.5 10q32 0 57 -7l-1 -96q-9 11 -21.5 23t-26.5 22t-29 16.5t-31 6.5q-20 0 -37 -10t-31.5 -26.5t-26.5 -39t-21 -47.5v-324
q0 -21 2.5 -35.5t8.5 -24.5t16 -16t25 -11h-178zM116 -60q21 0 35 -13.5t14 -38.5q0 -46 -22 -71.5t-62 -27.5l-1 4q47 12 49 58q-3 0 -6 -0.5t-7 -0.5q-20 0 -33 12.5t-13 32.5q0 19 13 32t33 13z" />
    <glyph glyph-name="Rcaron" unicode="&#x158;" horiz-adv-x="652" 
d="M42 695h243q48 0 93.5 -9t81 -29.5t57 -53.5t21.5 -81q0 -42 -16.5 -74.5t-44.5 -56t-64 -37.5t-75 -20l163 -196q15 -17 34.5 -39.5t38.5 -43.5t34 -36.5t20 -18.5h-134q0 14 -4.5 27.5t-13.5 27.5t-22 31t-30 38l-166 206h-86v-242q0 -43 11.5 -60.5t42.5 -27.5h-184
q32 9 43 27t11 61v519q0 22 -2.5 36.5t-8.5 24.5t-16.5 16.5t-26.5 10.5zM273 346q88 0 137.5 44.5t49.5 127.5q0 46 -16 77t-43 49.5t-62.5 26.5t-75.5 8h-91v-333h101zM170 936l122 -96l123 96l2 -2l-123 -166h-4l-122 166z" />
    <glyph glyph-name="rcaron" unicode="&#x159;" horiz-adv-x="395" 
d="M28 0q16 5 26 11t16 15.5t8 24.5t2 36v369q0 21 -1.5 36.5t-4.5 27.5t-8.5 22t-13.5 20l101 9v-134q12 28 27 52t35 42t46.5 28t60.5 10q32 0 57 -7l-1 -96q-9 11 -21.5 23t-26.5 22t-29 16.5t-31 6.5q-20 0 -37 -10t-31.5 -26.5t-26.5 -39t-21 -47.5v-324
q0 -21 2.5 -35.5t8.5 -24.5t16 -16t25 -11h-178zM93 794l2 2l122 -96l123 96l2 -2l-123 -166h-4z" />
    <glyph glyph-name="Sacute" unicode="&#x15a;" horiz-adv-x="555" 
d="M62 259q12 -119 69 -184.5t157 -65.5q40 0 72 11.5t54 32t33.5 47.5t11.5 57q0 38 -16 64t-37.5 44t-45 28.5t-38.5 16.5l-97 37q-19 7 -46 19.5t-52.5 33.5t-43.5 52t-18 76q0 36 13 68t39 56t64 37.5t89 13.5q46 0 101.5 -13.5t98.5 -41.5l7 -191q-17 110 -67.5 170.5
t-138.5 60.5q-35 0 -65 -9.5t-51.5 -27t-33.5 -41t-12 -50.5q0 -31 14.5 -53t35 -38t43.5 -26t40 -16l103 -39q76 -29 121 -75.5t45 -120.5q0 -42 -15.5 -78t-44.5 -62.5t-71 -42t-95 -15.5q-70 0 -134.5 20t-104.5 59zM271 760l48 168h74l-119 -168h-3z" />
    <glyph glyph-name="sacute" unicode="&#x15b;" horiz-adv-x="476" 
d="M50 242q6 -68 22.5 -113t41 -71.5t56 -37.5t67.5 -11q75 0 110.5 36t35.5 88q0 30 -11 50.5t-26.5 34t-33.5 21t-33 12.5l-107 36q-16 5 -36 15.5t-38 27.5t-30.5 41.5t-12.5 57.5q0 66 49 104t130 38q55 0 100.5 -17t78.5 -46l-7 -135q-25 98 -65.5 141t-108.5 43
q-54 0 -90 -25.5t-36 -78.5q0 -24 10 -40t24.5 -26.5t31.5 -17t32 -11.5l97 -32q19 -6 43.5 -17t46.5 -29.5t37 -46t15 -67.5q0 -37 -14 -68t-41 -54t-66.5 -36t-91.5 -13q-57 0 -109.5 15t-86.5 43zM289 801h74l-119 -168h-3z" />
    <glyph glyph-name="Scircumflex" unicode="&#x15c;" horiz-adv-x="555" 
d="M62 259q12 -119 69 -184.5t157 -65.5q40 0 72 11.5t54 32t33.5 47.5t11.5 57q0 38 -16 64t-37.5 44t-45 28.5t-38.5 16.5l-97 37q-19 7 -46 19.5t-52.5 33.5t-43.5 52t-18 76q0 36 13 68t39 56t64 37.5t89 13.5q46 0 101.5 -13.5t98.5 -41.5l7 -191q-17 110 -67.5 170.5
t-138.5 60.5q-35 0 -65 -9.5t-51.5 -27t-33.5 -41t-12 -50.5q0 -31 14.5 -53t35 -38t43.5 -26t40 -16l103 -39q76 -29 121 -75.5t45 -120.5q0 -42 -15.5 -78t-44.5 -62.5t-71 -42t-95 -15.5q-70 0 -134.5 20t-104.5 59zM148 770l122 166h4l123 -166l-2 -2l-123 96l-122 -96z
" />
    <glyph glyph-name="scircumflex" unicode="&#x15d;" horiz-adv-x="476" 
d="M50 242q6 -68 22.5 -113t41 -71.5t56 -37.5t67.5 -11q75 0 110.5 36t35.5 88q0 30 -11 50.5t-26.5 34t-33.5 21t-33 12.5l-107 36q-16 5 -36 15.5t-38 27.5t-30.5 41.5t-12.5 57.5q0 66 49 104t130 38q55 0 100.5 -17t78.5 -46l-7 -135q-25 98 -65.5 141t-108.5 43
q-54 0 -90 -25.5t-36 -78.5q0 -24 10 -40t24.5 -26.5t31.5 -17t32 -11.5l97 -32q19 -6 43.5 -17t46.5 -29.5t37 -46t15 -67.5q0 -37 -14 -68t-41 -54t-66.5 -36t-91.5 -13q-57 0 -109.5 15t-86.5 43zM241 796h4l123 -166l-2 -2l-123 96l-122 -96l-2 2z" />
    <glyph glyph-name="Scedilla" unicode="&#x15e;" horiz-adv-x="555" 
d="M62 259q12 -119 69 -184.5t157 -65.5q40 0 72 11.5t54 32t33.5 47.5t11.5 57q0 38 -16 64t-37.5 44t-45 28.5t-38.5 16.5l-97 37q-19 7 -46 19.5t-52.5 33.5t-43.5 52t-18 76q0 36 13 68t39 56t64 37.5t89 13.5q46 0 101.5 -13.5t98.5 -41.5l7 -191q-17 110 -67.5 170.5
t-138.5 60.5q-35 0 -65 -9.5t-51.5 -27t-33.5 -41t-12 -50.5q0 -31 14.5 -53t35 -38t43.5 -26t40 -16l103 -39q76 -29 121 -75.5t45 -120.5q0 -42 -15.5 -78t-44.5 -62.5t-71 -42t-95 -15.5h-10l-13 -42q18 4 35.5 2.5t31 -7.5t21.5 -17.5t8 -27.5q0 -33 -24 -51t-58 -18
q-20 0 -37 8t-25 19l4 46q5 -24 21.5 -42.5t42.5 -18.5q11 0 21.5 8t10.5 28q0 10 -3.5 21.5t-11 20.5t-19.5 13.5t-29 1.5l9 57q-63 3 -120.5 23t-93.5 55z" />
    <glyph glyph-name="scedilla" unicode="&#x15f;" horiz-adv-x="476" 
d="M50 242q6 -68 22.5 -113t41 -71.5t56 -37.5t67.5 -11q75 0 110.5 36t35.5 88q0 30 -11 50.5t-26.5 34t-33.5 21t-33 12.5l-107 36q-16 5 -36 15.5t-38 27.5t-30.5 41.5t-12.5 57.5q0 66 49 104t130 38q55 0 100.5 -17t78.5 -46l-7 -135q-25 98 -65.5 141t-108.5 43
q-54 0 -90 -25.5t-36 -78.5q0 -24 10 -40t24.5 -26.5t31.5 -17t32 -11.5l97 -32q19 -6 43.5 -17t46.5 -29.5t37 -46t15 -67.5q0 -36 -13.5 -67t-39.5 -53.5t-64.5 -36t-88.5 -14.5l-13 -43q18 4 35.5 2.5t31 -7.5t21.5 -17.5t8 -27.5q0 -33 -24 -51t-58 -18q-20 0 -37 8
t-25 19l4 46q5 -24 21.5 -42.5t42.5 -18.5q11 0 21.5 8t10.5 28q0 10 -3.5 21.5t-11 20.5t-19.5 13.5t-29 1.5l9 57q-54 1 -105 16t-83 42z" />
    <glyph glyph-name="Scaron" unicode="&#x160;" horiz-adv-x="555" 
d="M62 259q12 -119 69 -184.5t157 -65.5q40 0 72 11.5t54 32t33.5 47.5t11.5 57q0 38 -16 64t-37.5 44t-45 28.5t-38.5 16.5l-97 37q-19 7 -46 19.5t-52.5 33.5t-43.5 52t-18 76q0 36 13 68t39 56t64 37.5t89 13.5q46 0 101.5 -13.5t98.5 -41.5l7 -191q-17 110 -67.5 170.5
t-138.5 60.5q-35 0 -65 -9.5t-51.5 -27t-33.5 -41t-12 -50.5q0 -31 14.5 -53t35 -38t43.5 -26t40 -16l103 -39q76 -29 121 -75.5t45 -120.5q0 -42 -15.5 -78t-44.5 -62.5t-71 -42t-95 -15.5q-70 0 -134.5 20t-104.5 59zM150 936l122 -96l123 96l2 -2l-123 -166h-4l-122 166z
" />
    <glyph glyph-name="scaron" unicode="&#x161;" horiz-adv-x="476" 
d="M50 242q6 -68 22.5 -113t41 -71.5t56 -37.5t67.5 -11q75 0 110.5 36t35.5 88q0 30 -11 50.5t-26.5 34t-33.5 21t-33 12.5l-107 36q-16 5 -36 15.5t-38 27.5t-30.5 41.5t-12.5 57.5q0 66 49 104t130 38q55 0 100.5 -17t78.5 -46l-7 -135q-25 98 -65.5 141t-108.5 43
q-54 0 -90 -25.5t-36 -78.5q0 -24 10 -40t24.5 -26.5t31.5 -17t32 -11.5l97 -32q19 -6 43.5 -17t46.5 -29.5t37 -46t15 -67.5q0 -37 -14 -68t-41 -54t-66.5 -36t-91.5 -13q-57 0 -109.5 15t-86.5 43zM122 796l122 -96l123 96l2 -2l-123 -166h-4l-122 166z" />
    <glyph glyph-name="uni0162" unicode="&#x162;" horiz-adv-x="647" 
d="M54 695h541l12 -235q-10 71 -24 113.5t-33.5 66t-46.5 31t-64 7.5h-77v-590q0 -21 2.5 -36t8.5 -24.5t16 -16t25 -11.5h-86l-15 -48q18 4 35.5 2.5t31 -7.5t21.5 -17.5t8 -27.5q0 -33 -24 -51t-58 -18q-20 0 -37 8t-25 19l4 46q5 -24 21.5 -42.5t42.5 -18.5q11 0 21.5 8
t10.5 28q0 10 -3.5 21.5t-11 20.5t-19.5 13.5t-29 1.5l10 62h-80q16 5 26.5 11t16.5 16t8.5 24.5t2.5 36.5v590h-76q-37 0 -64 -7.5t-47 -31t-34 -66t-25 -113.5z" />
    <glyph glyph-name="uni0163" unicode="&#x163;" horiz-adv-x="375" 
d="M123 565l69 139v-139h164v-11h-164v-430q0 -33 4.5 -55t12.5 -35t20.5 -18t28.5 -5q29 0 49 16.5t37 46.5l13 -9q-20 -32 -43.5 -50.5t-68.5 -18.5h-12l-14 -44q18 4 35.5 2.5t31 -7.5t21.5 -17.5t8 -27.5q0 -33 -24 -51t-58 -18q-20 0 -37 8t-25 19l4 46
q5 -24 21.5 -42.5t42.5 -18.5q11 0 21.5 8t10.5 28q0 10 -3.5 21.5t-11 20.5t-19.5 13.5t-29 1.5l10 60q-55 8 -77.5 47.5t-22.5 105.5v403h-98v11h103z" />
    <glyph glyph-name="Tcaron" unicode="&#x164;" horiz-adv-x="647" 
d="M54 695h541l12 -235q-10 71 -24 113.5t-33.5 66t-46.5 31t-64 7.5h-77v-590q0 -21 2.5 -36t8.5 -24.5t16 -16t25 -11.5h-182q16 5 26.5 11t16.5 16t8.5 24.5t2.5 36.5v590h-76q-37 0 -64 -7.5t-47 -31t-34 -66t-25 -113.5zM199 936l122 -96l123 96l2 -2l-123 -166h-4
l-122 166z" />
    <glyph glyph-name="tcaron" unicode="&#x165;" horiz-adv-x="375" 
d="M20 565h103l69 139v-139h164v-11h-164v-430q0 -33 4.5 -55t12.5 -35t20.5 -18t28.5 -5q29 0 49 16.5t37 46.5l13 -9q-20 -32 -43.5 -50.5t-68.5 -18.5q-70 0 -98.5 40.5t-28.5 114.5v403h-98v11zM266 759h44l-62 -164h-10z" />
    <glyph glyph-name="Tbar" unicode="&#x166;" horiz-adv-x="647" 
d="M40 460l14 235h541l12 -235q-10 71 -24 113.5t-33.5 66t-46.5 31t-64 7.5h-77v-317h174v-15h-174v-258q0 -43 11.5 -60.5t42.5 -27.5h-184q32 9 43 27t11 61v258h-175v15h175v317h-76q-37 0 -64 -7.5t-47 -31t-34 -66t-25 -113.5z" />
    <glyph glyph-name="tbar" unicode="&#x167;" horiz-adv-x="375" 
d="M20 565h103l69 139v-139h164v-11h-164v-165h129v-11h-129v-254q0 -33 4.5 -55t12.5 -35t20.5 -18t28.5 -5q29 0 49 16.5t37 46.5l13 -9q-20 -32 -43.5 -50.5t-68.5 -18.5q-70 0 -98.5 40.5t-28.5 114.5v227h-91v11h91v165h-98v11z" />
    <glyph glyph-name="Utilde" unicode="&#x168;" horiz-adv-x="678" 
d="M36 695h184q-31 -10 -42.5 -27.5t-11.5 -60.5v-345q0 -119 48.5 -185.5t136.5 -66.5q104 0 162 70t58 196v331q0 22 -2.5 36.5t-8.5 24.5t-16.5 16.5t-26.5 10.5h126q-31 -10 -42.5 -27.5t-11.5 -60.5v-328q0 -135 -63 -209.5t-175 -74.5q-126 0 -193.5 63.5t-67.5 187.5
v361q0 22 -2.5 36.5t-8.5 24.5t-16.5 16.5t-26.5 10.5zM306 893q32 0 46.5 -13t23.5 -28t18.5 -28t31.5 -13q26 0 39 21t12 56h10q2 -49 -21 -71.5t-61 -22.5q-32 0 -47 12.5t-24.5 28t-19.5 28t-31 12.5q-26 0 -38.5 -20.5t-11.5 -55.5h-11q-2 49 22 71.5t62 22.5z" />
    <glyph glyph-name="utilde" unicode="&#x169;" horiz-adv-x="579" 
d="M33 562l102 9v-406q0 -43 9 -72.5t25.5 -48t40 -26.5t51.5 -8q45 0 78 20.5t55 52.5t34 71t13 76v226q0 21 -1.5 36.5t-4.5 27.5t-8.5 22t-13.5 20l102 9v-472q0 -44 7 -64.5t21 -34.5l-98 -3v151q-15 -36 -32.5 -64t-40.5 -48t-53.5 -30.5t-70.5 -10.5q-86 0 -136.5 43
t-50.5 132v286q0 21 -1.5 36.5t-4.5 27.5t-8.5 22t-13.5 20zM230 734q32 0 46.5 -13t23.5 -28t18.5 -28t31.5 -13q26 0 39 21t12 56h10q2 -49 -21 -71.5t-61 -22.5q-32 0 -47 12.5t-24.5 28t-19.5 28t-31 12.5q-26 0 -38.5 -20.5t-11.5 -55.5h-11q-2 49 22 71.5t62 22.5z
" />
    <glyph glyph-name="Umacron" unicode="&#x16a;" horiz-adv-x="678" 
d="M220 695q-31 -10 -42.5 -27.5t-11.5 -60.5v-345q0 -119 48.5 -185.5t136.5 -66.5q104 0 162 70t58 196v331q0 22 -2.5 36.5t-8.5 24.5t-16.5 16.5t-26.5 10.5h126q-31 -10 -42.5 -27.5t-11.5 -60.5v-328q0 -135 -63 -209.5t-175 -74.5q-126 0 -193.5 63.5t-67.5 187.5
v361q0 22 -2.5 36.5t-8.5 24.5t-16.5 16.5t-26.5 10.5h184zM493 821v-16h-278v16h278z" />
    <glyph glyph-name="umacron" unicode="&#x16b;" horiz-adv-x="579" 
d="M33 562l102 9v-406q0 -43 9 -72.5t25.5 -48t40 -26.5t51.5 -8q45 0 78 20.5t55 52.5t34 71t13 76v226q0 21 -1.5 36.5t-4.5 27.5t-8.5 22t-13.5 20l102 9v-472q0 -44 7 -64.5t21 -34.5l-98 -3v151q-15 -36 -32.5 -64t-40.5 -48t-53.5 -30.5t-70.5 -10.5q-86 0 -136.5 43
t-50.5 132v286q0 21 -1.5 36.5t-4.5 27.5t-8.5 22t-13.5 20zM141 665v12h276v-12h-276z" />
    <glyph glyph-name="Ubreve" unicode="&#x16c;" horiz-adv-x="678" 
d="M36 695h184q-31 -10 -42.5 -27.5t-11.5 -60.5v-345q0 -119 48.5 -185.5t136.5 -66.5q104 0 162 70t58 196v331q0 22 -2.5 36.5t-8.5 24.5t-16.5 16.5t-26.5 10.5h126q-31 -10 -42.5 -27.5t-11.5 -60.5v-328q0 -135 -63 -209.5t-175 -74.5q-126 0 -193.5 63.5t-67.5 187.5
v361q0 22 -2.5 36.5t-8.5 24.5t-16.5 16.5t-26.5 10.5zM258 908q4 -39 31 -65t67 -26q42 0 67 26t29 65h7q-3 -29 -10.5 -54.5t-20.5 -44t-31 -29.5t-42 -11t-42 11t-31 29.5t-20.5 44t-10.5 54.5h7z" />
    <glyph glyph-name="ubreve" unicode="&#x16d;" horiz-adv-x="579" 
d="M33 562l102 9v-406q0 -43 9 -72.5t25.5 -48t40 -26.5t51.5 -8q45 0 78 20.5t55 52.5t34 71t13 76v226q0 21 -1.5 36.5t-4.5 27.5t-8.5 22t-13.5 20l102 9v-472q0 -44 7 -64.5t21 -34.5l-98 -3v151q-15 -36 -32.5 -64t-40.5 -48t-53.5 -30.5t-70.5 -10.5q-86 0 -136.5 43
t-50.5 132v286q0 21 -1.5 36.5t-4.5 27.5t-8.5 22t-13.5 20zM182 805q4 -39 31 -65t67 -26q42 0 67 26t29 65h7q-3 -29 -10.5 -54.5t-20.5 -44t-31 -29.5t-42 -11t-42 11t-31 29.5t-20.5 44t-10.5 54.5h7z" />
    <glyph glyph-name="Uring" unicode="&#x16e;" horiz-adv-x="678" 
d="M36 695h184q-31 -10 -42.5 -27.5t-11.5 -60.5v-345q0 -119 48.5 -185.5t136.5 -66.5q104 0 162 70t58 196v331q0 22 -2.5 36.5t-8.5 24.5t-16.5 16.5t-26.5 10.5h126q-31 -10 -42.5 -27.5t-11.5 -60.5v-328q0 -135 -63 -209.5t-175 -74.5q-126 0 -193.5 63.5t-67.5 187.5
v361q0 22 -2.5 36.5t-8.5 24.5t-16.5 16.5t-26.5 10.5zM251 838q0 44 29 71.5t74 27.5t73.5 -27.5t28.5 -71.5q0 -45 -28.5 -72t-73.5 -27t-74 28t-29 71zM267 838q0 -38 24.5 -62.5t62.5 -24.5t62 24.5t24 62.5t-24 62.5t-62 24.5t-62.5 -24.5t-24.5 -62.5z" />
    <glyph glyph-name="uring" unicode="&#x16f;" horiz-adv-x="579" 
d="M33 562l102 9v-406q0 -43 9 -72.5t25.5 -48t40 -26.5t51.5 -8q45 0 78 20.5t55 52.5t34 71t13 76v226q0 21 -1.5 36.5t-4.5 27.5t-8.5 22t-13.5 20l102 9v-472q0 -44 7 -64.5t21 -34.5l-98 -3v151q-15 -36 -32.5 -64t-40.5 -48t-53.5 -30.5t-70.5 -10.5q-86 0 -136.5 43
t-50.5 132v286q0 21 -1.5 36.5t-4.5 27.5t-8.5 22t-13.5 20zM176 708q0 44 29 71.5t74 27.5t73.5 -27.5t28.5 -71.5q0 -45 -28.5 -72t-73.5 -27t-74 28t-29 71zM279 621q38 0 62 24.5t24 62.5t-24 62.5t-62 24.5t-62.5 -24.5t-24.5 -62.5t24.5 -62.5t62.5 -24.5z" />
    <glyph glyph-name="Uhungarumlaut" unicode="&#x170;" horiz-adv-x="678" 
d="M220 695q-31 -10 -42.5 -27.5t-11.5 -60.5v-345q0 -119 48.5 -185.5t136.5 -66.5q104 0 162 70t58 196v331q0 22 -2.5 36.5t-8.5 24.5t-16.5 16.5t-26.5 10.5h126q-31 -10 -42.5 -27.5t-11.5 -60.5v-328q0 -135 -63 -209.5t-175 -74.5q-126 0 -193.5 63.5t-67.5 187.5
v361q0 22 -2.5 36.5t-8.5 24.5t-16.5 16.5t-26.5 10.5h184zM372 753l134 163h77l-208 -163h-3zM369 916h63l-96 -163h-3z" />
    <glyph glyph-name="uhungarumlaut" unicode="&#x171;" horiz-adv-x="579" 
d="M33 562l102 9v-406q0 -43 9 -72.5t25.5 -48t40 -26.5t51.5 -8q45 0 78 20.5t55 52.5t34 71t13 76v226q0 21 -1.5 36.5t-4.5 27.5t-8.5 22t-13.5 20l102 9v-472q0 -44 7 -64.5t21 -34.5l-98 -3v151q-15 -36 -32.5 -64t-40.5 -48t-53.5 -30.5t-70.5 -10.5q-86 0 -136.5 43
t-50.5 132v286q0 21 -1.5 36.5t-4.5 27.5t-8.5 22t-13.5 20zM431 786h77l-208 -163h-3zM294 786h63l-96 -163h-3z" />
    <glyph glyph-name="Uogonek" unicode="&#x172;" horiz-adv-x="678" 
d="M220 695q-31 -10 -42.5 -27.5t-11.5 -60.5v-345q0 -119 48.5 -185.5t136.5 -66.5q104 0 162 70t58 196v331q0 22 -2.5 36.5t-8.5 24.5t-16.5 16.5t-26.5 10.5h126q-31 -10 -42.5 -27.5t-11.5 -60.5v-328q0 -118 -48 -190t-136 -89q-31 -17 -54.5 -49t-23.5 -70
q0 -26 11 -36t22 -10q20 0 40.5 24.5t31.5 77.5l-5 -89q-11 -8 -30.5 -17.5t-44.5 -9.5q-27 0 -50 15t-23 46q0 19 9.5 36t25 31.5t34.5 26.5t38 21q-8 -1 -17 -1.5t-18 -0.5q-126 0 -193.5 63.5t-67.5 187.5v361q0 22 -2.5 36.5t-8.5 24.5t-16.5 16.5t-26.5 10.5h184z" />
    <glyph glyph-name="uogonek" unicode="&#x173;" horiz-adv-x="579" 
d="M135 571v-406q0 -43 9 -72.5t25.5 -48t40 -26.5t51.5 -8q45 0 78 20.5t55 52.5t34 71t13 76v226q0 21 -1.5 36.5t-4.5 27.5t-8.5 22t-13.5 20l102 9v-472q0 -44 7 -64.5t21 -34.5q-31 -17 -54.5 -49t-23.5 -70q0 -26 11 -36t22 -10q20 0 40.5 24.5t31.5 77.5l-5 -89
q-11 -8 -30.5 -17.5t-44.5 -9.5q-27 0 -50 15t-23 46q0 19 10.5 37t26.5 33t36.5 27.5t39.5 20.5l-85 -3v151q-15 -36 -32.5 -64t-40.5 -48t-53.5 -30.5t-70.5 -10.5q-86 0 -136.5 43t-50.5 132v286q0 21 -1.5 36.5t-4.5 27.5t-8.5 22t-13.5 20z" />
    <glyph glyph-name="Wcircumflex" unicode="&#x174;" horiz-adv-x="938" 
d="M170 695q-14 -5 -20.5 -25t6.5 -62l150 -480l146 467l-3 7h5l29 93h5l204 -569l134 437q12 38 16 62.5t2.5 39t-7.5 21t-14 9.5h89q-7 -2 -13.5 -8.5t-14.5 -21.5t-17.5 -40t-21.5 -65l-172 -560h-5l-207 570l-178 -570h-5l-196 605q-15 46 -28.5 65.5t-28.5 24.5h145z
M358 770l122 166h4l123 -166l-2 -2l-123 96l-122 -96z" />
    <glyph glyph-name="wcircumflex" unicode="&#x175;" horiz-adv-x="806" 
d="M137 565q-9 -7 -14.5 -20t5.5 -42l140 -390l142 453h8l182 -459l109 335q13 41 15 64t-2.5 35.5t-11.5 16.5t-12 7h98q-15 -8 -30 -24.5t-29 -60.5l-156 -480h-12l-179 452l-142 -452h-12l-173 477q-17 45 -29 64t-22 24h125zM281 630l122 166h4l123 -166l-2 -2l-123 96
l-122 -96z" />
    <glyph glyph-name="Ycircumflex" unicode="&#x176;" horiz-adv-x="684" 
d="M24 695h144q-4 -3 -7.5 -9t-4.5 -14.5t3 -20t14 -27.5l197 -301l172 257q23 35 30.5 55.5t7.5 32.5t-5 17.5t-8 9.5h93q-13 -4 -32.5 -24t-45.5 -58l-203 -302v-223q0 -43 11.5 -60.5t42.5 -27.5h-184q32 9 43 27t11 61v214l-192 292q-33 51 -53 72.5t-34 28.5zM235 770
l122 166h4l123 -166l-2 -2l-123 96l-122 -96z" />
    <glyph glyph-name="ycircumflex" unicode="&#x177;" horiz-adv-x="543" 
d="M11 565h125q-8 -7 -12 -21t10 -49l166 -409l160 407q8 19 7 31.5t-5.5 20.5t-10.5 12.5l-10 7.5h92q-9 -6 -25 -21t-30 -49l-211 -529q-7 -17 -18.5 -39t-29.5 -43t-43 -37t-59 -21l-35 99q38 -20 73 -20t64 22t46 68l-211 509q-13 31 -24 43.5t-19 17.5zM173 630
l122 166h4l123 -166l-2 -2l-123 96l-122 -96z" />
    <glyph glyph-name="Ydieresis" unicode="&#x178;" horiz-adv-x="684" 
d="M168 695q-4 -3 -7.5 -9t-4.5 -14.5t3 -20t14 -27.5l197 -301l172 257q23 35 30.5 55.5t7.5 32.5t-5 17.5t-8 9.5h93q-13 -4 -32.5 -24t-45.5 -58l-203 -302v-223q0 -43 11.5 -60.5t42.5 -27.5h-184q32 9 43 27t11 61v214l-192 292q-33 51 -53 72.5t-34 28.5h144zM439 884
q23 0 38 -13.5t15 -36.5t-15 -37t-38 -14q-22 0 -37 14t-15 37t15 36.5t37 13.5zM227 834q0 23 15 36.5t37 13.5q23 0 38 -13.5t15 -36.5t-15 -37t-38 -14q-22 0 -37 14t-15 37z" />
    <glyph glyph-name="Zacute" unicode="&#x179;" horiz-adv-x="576" 
d="M442 678h-172q-48 0 -82 -7.5t-58.5 -31t-41.5 -66t-30 -113.5l19 235h457l-409 -678h210q44 0 76 8.5t54 34.5t36 73t23 125l-9 -258h-482zM302 760l48 168h74l-119 -168h-3z" />
    <glyph glyph-name="zacute" unicode="&#x17a;" horiz-adv-x="505" 
d="M378 554h-140q-33 0 -63.5 -4.5t-56.5 -22.5t-46 -55t-32 -102l15 195h409l-354 -554h175q33 0 61 7.5t51 32t42 72t33 126.5l-17 -249h-431zM258 633l48 168h74l-119 -168h-3z" />
    <glyph glyph-name="Zdotaccent" unicode="&#x17b;" horiz-adv-x="576" 
d="M33 0l409 678h-172q-48 0 -82 -7.5t-58.5 -31t-41.5 -66t-30 -113.5l19 235h457l-409 -678h210q44 0 76 8.5t54 34.5t36 73t23 125l-9 -258h-482zM252 834q0 23 15 36.5t37 13.5q23 0 38 -13.5t15 -36.5t-15 -37t-38 -14q-22 0 -37 14t-15 37z" />
    <glyph glyph-name="zdotaccent" unicode="&#x17c;" horiz-adv-x="505" 
d="M24 0l354 554h-140q-33 0 -63.5 -4.5t-56.5 -22.5t-46 -55t-32 -102l15 195h409l-354 -554h175q33 0 61 7.5t51 32t42 72t33 126.5l-17 -249h-431zM208 694q0 23 15 36.5t37 13.5q23 0 38 -13.5t15 -36.5t-15 -37t-38 -14q-22 0 -37 14t-15 37z" />
    <glyph glyph-name="Zcaron" unicode="&#x17d;" horiz-adv-x="576" 
d="M442 678h-172q-48 0 -82 -7.5t-58.5 -31t-41.5 -66t-30 -113.5l19 235h457l-409 -678h210q44 0 76 8.5t54 34.5t36 73t23 125l-9 -258h-482zM181 936l122 -96l123 96l2 -2l-123 -166h-4l-122 166z" />
    <glyph glyph-name="zcaron" unicode="&#x17e;" horiz-adv-x="505" 
d="M378 554h-140q-33 0 -63.5 -4.5t-56.5 -22.5t-46 -55t-32 -102l15 195h409l-354 -554h175q33 0 61 7.5t51 32t42 72t33 126.5l-17 -249h-431zM139 796l122 -96l123 96l2 -2l-123 -166h-4l-122 166z" />
    <glyph glyph-name="uni018F" unicode="&#x18f;" horiz-adv-x="703" 
d="M44 354h85l445 -2q0 77 -18 139t-49.5 105.5t-74.5 66.5t-93 23q-43 0 -83 -15.5t-74.5 -45t-62 -72.5t-44.5 -97l13 162q46 37 112.5 60t138.5 23q68 0 126 -26t101.5 -72.5t68 -111t24.5 -141.5q0 -78 -23.5 -143t-65.5 -112.5t-100 -73.5t-128 -26q-66 0 -120.5 26.5
t-94 74t-61.5 113.5t-22 145zM129 336q2 -72 18.5 -131.5t44.5 -103t66.5 -67.5t83.5 -24q50 0 91.5 24t72.5 67t48.5 103t19.5 132h-445z" />
    <glyph glyph-name="uni019D" unicode="&#x19d;" horiz-adv-x="728" 
d="M-22 -83q19 -11 36 -11q14 0 25.5 8.5t20.5 29.5t14 55.5t5 86.5v521q0 22 -2.5 36.5t-8.5 24.5t-16.5 16.5t-26.5 10.5h96l494 -577v489q0 22 -2.5 36.5t-8.5 24.5t-16.5 16.5t-26.5 10.5h125q-31 -10 -42.5 -27.5t-11.5 -60.5v-607h-7l-529 615v-543q0 -121 -27 -178.5
t-73 -67.5z" />
    <glyph glyph-name="uni01CD" unicode="&#x1cd;" horiz-adv-x="751" 
d="M24 0q7 2 14 7.5t17 20.5t24 42t35 72l257 553h6l293 -626q17 -36 30 -50.5t26 -18.5h-152q7 3 13 8.5t9 16.5t0.5 27t-13.5 40l-82 178h-307l-82 -176q-12 -26 -16 -43t-2.5 -27.5t7 -15.5t11.5 -8h-88zM494 285l-147 316l-147 -316h294zM249 934l2 2l122 -96l123 96
l2 -2l-123 -166h-4z" />
    <glyph glyph-name="uni01CE" unicode="&#x1ce;" horiz-adv-x="520" 
d="M275 310l111 27v72q0 75 -29.5 110.5t-89.5 35.5q-28 0 -57 -9.5t-54.5 -34t-47 -66.5t-35.5 -106l-6 167q37 29 91 46t111 17q88 0 139.5 -42t51.5 -123v-317q0 -29 6.5 -51t21.5 -36l-98 -3v132q-10 -25 -25.5 -49t-38 -43t-53.5 -30t-71 -11q-36 0 -67.5 8t-54 24.5
t-35.5 41t-13 57.5q0 45 24.5 76t61.5 52t79 33.5t78 21.5zM218 11q28 0 57 12t53 35.5t40 58.5t18 81v124l-109 -26q-21 -5 -49.5 -15t-54 -28.5t-43 -48.5t-17.5 -76q0 -51 27.5 -84t77.5 -33zM135 794l2 2l122 -96l123 96l2 -2l-123 -166h-4z" />
    <glyph glyph-name="uni01CF" unicode="&#x1cf;" horiz-adv-x="267" 
d="M42 0q16 5 26.5 11.5t16.5 19t8.5 33.5t2.5 54v459q0 33 -2.5 54t-8.5 33.5t-16.5 19.5t-26.5 11h183q-16 -5 -26 -11.5t-16 -19.5t-8.5 -33.5t-2.5 -53.5v-459q0 -33 2.5 -53.5t8.5 -33t16 -19.5t26 -12h-183zM11 936l122 -96l123 96l2 -2l-123 -166h-4l-122 166z" />
    <glyph glyph-name="uni01D0" unicode="&#x1d0;" horiz-adv-x="232" 
d="M28 0q16 5 26 11t16 15.5t8 24.5t2 36v369q0 21 -1.5 36.5t-4.5 27.5t-8.5 22t-13.5 20l102 9v-484q0 -21 2.5 -35.5t8.5 -24.5t16 -16t25 -11h-178zM-9 794l2 2l122 -96l123 96l2 -2l-123 -166h-4z" />
    <glyph glyph-name="uni01D1" unicode="&#x1d1;" horiz-adv-x="758" 
d="M379 702q73 0 134.5 -27t106 -74.5t69.5 -112.5t25 -140t-25 -140t-69.5 -112.5t-106 -74.5t-134.5 -27t-134.5 27t-106 74.5t-69.5 112.5t-25 140t25 140t69.5 112.5t106 74.5t134.5 27zM129 348q0 -85 18 -148.5t51 -106t79 -63.5t102 -21t102 21t79 63.5t51 106
t18 148.5t-18 148.5t-51 106t-79 63.5t-102 21t-102 -21t-79 -63.5t-51 -106t-18 -148.5zM257 936l122 -96l123 96l2 -2l-123 -166h-4l-122 166z" />
    <glyph glyph-name="uni01D2" unicode="&#x1d2;" 
d="M318 570q64 0 116.5 -21t90.5 -59.5t59 -91t21 -115.5v-1q0 -63 -21 -115.5t-59 -91t-90.5 -59.5t-116.5 -21t-116.5 21t-90.5 59.5t-59 91t-21 115.5v1q0 63 21 115.5t59 91t90.5 59.5t116.5 21zM112 283q0 -60 15 -110t42 -86.5t65 -56.5t84 -20t84 20t65 56.5t42 86.5
t15 110t-15 110t-42 86t-65 56t-84 20t-84 -20t-65 -56t-42 -86t-15 -110zM197 796l122 -96l123 96l2 -2l-123 -166h-4l-122 166z" />
    <glyph glyph-name="uni01D3" unicode="&#x1d3;" horiz-adv-x="678" 
d="M220 695q-31 -10 -42.5 -27.5t-11.5 -60.5v-345q0 -119 48.5 -185.5t136.5 -66.5q104 0 162 70t58 196v331q0 22 -2.5 36.5t-8.5 24.5t-16.5 16.5t-26.5 10.5h126q-31 -10 -42.5 -27.5t-11.5 -60.5v-328q0 -135 -63 -209.5t-175 -74.5q-126 0 -193.5 63.5t-67.5 187.5
v361q0 22 -2.5 36.5t-8.5 24.5t-16.5 16.5t-26.5 10.5h184zM231 936l122 -96l123 96l2 -2l-123 -166h-4l-122 166z" />
    <glyph glyph-name="uni01D4" unicode="&#x1d4;" horiz-adv-x="579" 
d="M33 562l102 9v-406q0 -43 9 -72.5t25.5 -48t40 -26.5t51.5 -8q45 0 78 20.5t55 52.5t34 71t13 76v226q0 21 -1.5 36.5t-4.5 27.5t-8.5 22t-13.5 20l102 9v-472q0 -44 7 -64.5t21 -34.5l-98 -3v151q-15 -36 -32.5 -64t-40.5 -48t-53.5 -30.5t-70.5 -10.5q-86 0 -136.5 43
t-50.5 132v286q0 21 -1.5 36.5t-4.5 27.5t-8.5 22t-13.5 20zM155 794l2 2l122 -96l123 96l2 -2l-123 -166h-4z" />
    <glyph glyph-name="uni01D5" unicode="&#x1d5;" horiz-adv-x="678" 
d="M220 695q-31 -10 -42.5 -27.5t-11.5 -60.5v-345q0 -119 48.5 -185.5t136.5 -66.5q104 0 162 70t58 196v331q0 22 -2.5 36.5t-8.5 24.5t-16.5 16.5t-26.5 10.5h126q-31 -10 -42.5 -27.5t-11.5 -60.5v-328q0 -135 -63 -209.5t-175 -74.5q-126 0 -193.5 63.5t-67.5 187.5
v361q0 22 -2.5 36.5t-8.5 24.5t-16.5 16.5t-26.5 10.5h184zM221 834q0 23 15 36.5t37 13.5q23 0 38 -13.5t15 -36.5t-15 -37t-38 -14q-22 0 -37 14t-15 37zM433 884q23 0 38 -13.5t15 -36.5t-15 -37t-38 -14q-22 0 -37 14t-15 37t15 36.5t37 13.5zM215 969h278v-16h-278v16z
" />
    <glyph glyph-name="uni01D6" unicode="&#x1d6;" horiz-adv-x="579" 
d="M33 562l102 9v-406q0 -43 9 -72.5t25.5 -48t40 -26.5t51.5 -8q45 0 78 20.5t55 52.5t34 71t13 76v226q0 21 -1.5 36.5t-4.5 27.5t-8.5 22t-13.5 20l102 9v-472q0 -44 7 -64.5t21 -34.5l-98 -3v151q-15 -36 -32.5 -64t-40.5 -48t-53.5 -30.5t-70.5 -10.5q-86 0 -136.5 43
t-50.5 132v286q0 21 -1.5 36.5t-4.5 27.5t-8.5 22t-13.5 20zM199 742q23 0 38 -13.5t15 -36.5t-15 -37t-38 -14q-22 0 -37 14t-15 37t15 36.5t37 13.5zM359 742q23 0 38 -13.5t15 -36.5t-15 -37t-38 -14q-22 0 -37 14t-15 37t15 36.5t37 13.5zM141 831h276v-12h-276v12z" />
    <glyph glyph-name="uni01D7" unicode="&#x1d7;" horiz-adv-x="678" 
d="M36 695h184q-31 -10 -42.5 -27.5t-11.5 -60.5v-345q0 -119 48.5 -185.5t136.5 -66.5q104 0 162 70t58 196v331q0 22 -2.5 36.5t-8.5 24.5t-16.5 16.5t-26.5 10.5h126q-31 -10 -42.5 -27.5t-11.5 -60.5v-328q0 -135 -63 -209.5t-175 -74.5q-126 0 -193.5 63.5t-67.5 187.5
v361q0 22 -2.5 36.5t-8.5 24.5t-16.5 16.5t-26.5 10.5zM221 834q0 23 15 36.5t37 13.5q23 0 38 -13.5t15 -36.5t-15 -37t-38 -14q-22 0 -37 14t-15 37zM381 834q0 23 15 36.5t37 13.5q23 0 38 -13.5t15 -36.5t-15 -37t-38 -14q-22 0 -37 14t-15 37zM352 908l48 168h74
l-119 -168h-3z" />
    <glyph glyph-name="uni01D8" unicode="&#x1d8;" horiz-adv-x="579" 
d="M33 562l102 9v-406q0 -43 9 -72.5t25.5 -48t40 -26.5t51.5 -8q45 0 78 20.5t55 52.5t34 71t13 76v226q0 21 -1.5 36.5t-4.5 27.5t-8.5 22t-13.5 20l102 9v-472q0 -44 7 -64.5t21 -34.5l-98 -3v151q-15 -36 -32.5 -64t-40.5 -48t-53.5 -30.5t-70.5 -10.5q-86 0 -136.5 43
t-50.5 132v286q0 21 -1.5 36.5t-4.5 27.5t-8.5 22t-13.5 20zM147 692q0 23 15 36.5t37 13.5q23 0 38 -13.5t15 -36.5t-15 -37t-38 -14q-22 0 -37 14t-15 37zM307 692q0 23 15 36.5t37 13.5q23 0 38 -13.5t15 -36.5t-15 -37t-38 -14q-22 0 -37 14t-15 37zM276 787l48 168h74
l-119 -168h-3z" />
    <glyph glyph-name="uni01D9" unicode="&#x1d9;" horiz-adv-x="678" 
d="M220 695q-31 -10 -42.5 -27.5t-11.5 -60.5v-345q0 -119 48.5 -185.5t136.5 -66.5q104 0 162 70t58 196v331q0 22 -2.5 36.5t-8.5 24.5t-16.5 16.5t-26.5 10.5h126q-31 -10 -42.5 -27.5t-11.5 -60.5v-328q0 -135 -63 -209.5t-175 -74.5q-126 0 -193.5 63.5t-67.5 187.5
v361q0 22 -2.5 36.5t-8.5 24.5t-16.5 16.5t-26.5 10.5h184zM229 1082l2 2l122 -96l123 96l2 -2l-123 -166h-4zM433 884q23 0 38 -13.5t15 -36.5t-15 -37t-38 -14q-22 0 -37 14t-15 37t15 36.5t37 13.5zM221 834q0 23 15 36.5t37 13.5q23 0 38 -13.5t15 -36.5t-15 -37
t-38 -14q-22 0 -37 14t-15 37z" />
    <glyph glyph-name="uni01DA" unicode="&#x1da;" horiz-adv-x="579" 
d="M33 562l102 9v-406q0 -43 9 -72.5t25.5 -48t40 -26.5t51.5 -8q45 0 78 20.5t55 52.5t34 71t13 76v226q0 21 -1.5 36.5t-4.5 27.5t-8.5 22t-13.5 20l102 9v-472q0 -44 7 -64.5t21 -34.5l-98 -3v151q-15 -36 -32.5 -64t-40.5 -48t-53.5 -30.5t-70.5 -10.5q-86 0 -136.5 43
t-50.5 132v286q0 21 -1.5 36.5t-4.5 27.5t-8.5 22t-13.5 20zM157 950l122 -96l123 96l2 -2l-123 -166h-4l-122 166zM307 692q0 23 15 36.5t37 13.5q23 0 38 -13.5t15 -36.5t-15 -37t-38 -14q-22 0 -37 14t-15 37zM147 692q0 23 15 36.5t37 13.5q23 0 38 -13.5t15 -36.5
t-15 -37t-38 -14q-22 0 -37 14t-15 37z" />
    <glyph glyph-name="uni01DB" unicode="&#x1db;" horiz-adv-x="678" 
d="M36 695h184q-31 -10 -42.5 -27.5t-11.5 -60.5v-345q0 -119 48.5 -185.5t136.5 -66.5q104 0 162 70t58 196v331q0 22 -2.5 36.5t-8.5 24.5t-16.5 16.5t-26.5 10.5h126q-31 -10 -42.5 -27.5t-11.5 -60.5v-328q0 -135 -63 -209.5t-175 -74.5q-126 0 -193.5 63.5t-67.5 187.5
v361q0 22 -2.5 36.5t-8.5 24.5t-16.5 16.5t-26.5 10.5zM221 834q0 23 15 36.5t37 13.5q23 0 38 -13.5t15 -36.5t-15 -37t-38 -14q-22 0 -37 14t-15 37zM433 884q23 0 38 -13.5t15 -36.5t-15 -37t-38 -14q-22 0 -37 14t-15 37t15 36.5t37 13.5zM234 1076h74l48 -168h-3z" />
    <glyph glyph-name="uni01DC" unicode="&#x1dc;" horiz-adv-x="579" 
d="M33 562l102 9v-406q0 -43 9 -72.5t25.5 -48t40 -26.5t51.5 -8q45 0 78 20.5t55 52.5t34 71t13 76v226q0 21 -1.5 36.5t-4.5 27.5t-8.5 22t-13.5 20l102 9v-472q0 -44 7 -64.5t21 -34.5l-98 -3v151q-15 -36 -32.5 -64t-40.5 -48t-53.5 -30.5t-70.5 -10.5q-86 0 -136.5 43
t-50.5 132v286q0 21 -1.5 36.5t-4.5 27.5t-8.5 22t-13.5 20zM147 692q0 23 15 36.5t37 13.5q23 0 38 -13.5t15 -36.5t-15 -37t-38 -14q-22 0 -37 14t-15 37zM359 742q23 0 38 -13.5t15 -36.5t-15 -37t-38 -14q-22 0 -37 14t-15 37t15 36.5t37 13.5zM234 955l48 -168h-3
l-119 168h74z" />
    <glyph glyph-name="uni01DE" unicode="&#x1de;" horiz-adv-x="751" 
d="M24 0q7 2 14 7.5t17 20.5t24 42t35 72l257 553h6l293 -626q17 -36 30 -50.5t26 -18.5h-152q7 3 13 8.5t9 16.5t0.5 27t-13.5 40l-82 178h-307l-82 -176q-12 -26 -16 -43t-2.5 -27.5t7 -15.5t11.5 -8h-88zM200 285h294l-147 316zM241 834q0 23 15 36.5t37 13.5
q23 0 38 -13.5t15 -36.5t-15 -37t-38 -14q-22 0 -37 14t-15 37zM453 884q23 0 38 -13.5t15 -36.5t-15 -37t-38 -14q-22 0 -37 14t-15 37t15 36.5t37 13.5zM513 969v-16h-278v16h278z" />
    <glyph glyph-name="uni01DF" unicode="&#x1df;" horiz-adv-x="520" 
d="M275 310l111 27v72q0 75 -29.5 110.5t-89.5 35.5q-28 0 -57 -9.5t-54.5 -34t-47 -66.5t-35.5 -106l-6 167q37 29 91 46t111 17q88 0 139.5 -42t51.5 -123v-317q0 -29 6.5 -51t21.5 -36l-98 -3v132q-10 -25 -25.5 -49t-38 -43t-53.5 -30t-71 -11q-36 0 -67.5 8t-54 24.5
t-35.5 41t-13 57.5q0 45 24.5 76t61.5 52t79 33.5t78 21.5zM113 128q0 -51 27.5 -84t77.5 -33q28 0 57 12t53 35.5t40 58.5t18 81v124l-109 -26q-21 -5 -49.5 -15t-54 -28.5t-43 -48.5t-17.5 -76zM127 692q0 23 15 36.5t37 13.5q23 0 38 -13.5t15 -36.5t-15 -37t-38 -14
q-22 0 -37 14t-15 37zM339 742q23 0 38 -13.5t15 -36.5t-15 -37t-38 -14q-22 0 -37 14t-15 37t15 36.5t37 13.5zM121 819v12h276v-12h-276z" />
    <glyph glyph-name="uni01E0" unicode="&#x1e0;" horiz-adv-x="751" 
d="M24 0q7 2 14 7.5t17 20.5t24 42t35 72l257 553h6l293 -626q17 -36 30 -50.5t26 -18.5h-152q7 3 13 8.5t9 16.5t0.5 27t-13.5 40l-82 178h-307l-82 -176q-12 -26 -16 -43t-2.5 -27.5t7 -15.5t11.5 -8h-88zM494 285l-147 316l-147 -316h294zM374 884q23 0 38 -13.5
t15 -36.5t-15 -37t-38 -14q-22 0 -37 14t-15 37t15 36.5t37 13.5zM513 969v-16h-278v16h278z" />
    <glyph glyph-name="uni01E1" unicode="&#x1e1;" horiz-adv-x="520" 
d="M275 310l111 27v72q0 75 -29.5 110.5t-89.5 35.5q-28 0 -57 -9.5t-54.5 -34t-47 -66.5t-35.5 -106l-6 167q37 29 91 46t111 17q88 0 139.5 -42t51.5 -123v-317q0 -29 6.5 -51t21.5 -36l-98 -3v132q-10 -25 -25.5 -49t-38 -43t-53.5 -30t-71 -11q-36 0 -67.5 8t-54 24.5
t-35.5 41t-13 57.5q0 45 24.5 76t61.5 52t79 33.5t78 21.5zM113 128q0 -51 27.5 -84t77.5 -33q28 0 57 12t53 35.5t40 58.5t18 81v124l-109 -26q-21 -5 -49.5 -15t-54 -28.5t-43 -48.5t-17.5 -76zM258 744q23 0 38 -13.5t15 -36.5t-15 -37t-38 -14q-22 0 -37 14t-15 37
t15 36.5t37 13.5zM397 831v-12h-276v12h276z" />
    <glyph glyph-name="uni01E2" unicode="&#x1e2;" horiz-adv-x="841" 
d="M114 142l244 553h398l21 -183q-12 52 -34 84.5t-50.5 50.5t-62 24.5t-70.5 6.5h-138l22 -296h72q48 0 80 6t52 18t30.5 29t15.5 39l-14 -203q-1 22 -9.5 39.5t-28 29.5t-51.5 18.5t-81 6.5h-64l26 -348h116q37 0 69 7.5t58.5 28.5t47 58t32.5 96l-18 -207h-437
q30 9 44 27.5t11 62.5l-13 172h-196l-74 -168q-12 -26 -15.5 -43t-2 -27.5t6.5 -15.5t11 -8h-88q7 2 14.5 7.5t17.5 20.5t24 42t34 72zM193 277h188l-28 366zM532 821v-16h-278v16h278z" />
    <glyph glyph-name="uni01E3" unicode="&#x1e3;" horiz-adv-x="923" 
d="M32 128q0 46 25 77.5t62 53t79 34t76 20.5l113 27v69q0 75 -29.5 110.5t-87.5 35.5q-28 0 -57 -9.5t-55 -34t-48 -67t-37 -108.5l-3 162q38 35 91 53t110 18q66 0 111.5 -26t65.5 -80q29 51 78 79t123 28q107 0 169 -60t64 -172h-417q-2 -14 -3 -29.5t-1 -28.5
q0 -58 15.5 -108t42.5 -86t65 -56.5t83 -20.5q40 0 72.5 15.5t58.5 42.5t47 63t37 76l-10 -143q-45 -35 -100 -51.5t-106 -16.5q-48 0 -90 12t-75.5 34t-58.5 53t-39 68q-29 -83 -79.5 -124.5t-125.5 -41.5q-34 0 -64.5 8.5t-53 25t-35.5 41.5t-13 57zM119 131q0 -52 25 -86
t75 -34q30 0 59.5 14t53 43t38.5 74t16 107l1 76l-111 -26q-157 -37 -157 -168zM804 350q-1 44 -12 82t-30.5 66t-48.5 43.5t-66 15.5q-36 0 -66 -15.5t-53 -43t-39 -65.5t-23 -83h338zM586 677v-12h-276v12h276z" />
    <glyph glyph-name="Gcaron" unicode="&#x1e6;" horiz-adv-x="715" 
d="M374 701q27 0 57.5 -4t61.5 -12t60.5 -21t52.5 -30l14 -189q-28 114 -94.5 177.5t-156.5 63.5q-50 0 -94 -21t-76.5 -63.5t-51 -106t-18.5 -147.5q0 -86 19 -150t52.5 -106t79.5 -62.5t100 -20.5q20 0 44 4t49 14.5t50 28.5t47 46v208h-25h-32t-44 -0.5t-44 -1t-33 -2.5
l2 25q10 -1 20.5 -2t25.5 -1.5t36.5 -0.5h53.5h116v-330l-73 71q-41 -37 -91.5 -55.5t-102.5 -18.5q-70 0 -131 27t-106.5 74.5t-71.5 112.5t-26 140q0 74 24.5 138.5t68 112t104 75t133.5 27.5zM246 934l2 2l122 -96l123 96l2 -2l-123 -166h-4z" />
    <glyph glyph-name="gcaron" unicode="&#x1e7;" horiz-adv-x="564" 
d="M2 -37q0 49 48 75.5t154 31.5q-72 6 -102 29.5t-30 58.5q0 19 8.5 32.5t23 22.5t33.5 13t39 4h14q-56 20 -88 62t-32 100q0 39 15 71t43 55t66.5 36t84.5 13q39 0 72.5 -9t59.5 -26q7 54 36.5 83.5t64.5 29.5q23 0 37.5 -11.5t14.5 -31.5q0 -18 -12.5 -30t-31.5 -12
q-11 0 -20 3.5t-17 8t-15.5 8t-15.5 3.5q-13 0 -21 -12.5t-12 -44.5q32 -23 50 -57.5t18 -76.5q0 -39 -15 -71.5t-42.5 -56t-66 -36.5t-84.5 -13q-22 0 -43 3q-12 1 -21 1.5t-17 0.5q-38 0 -60 -10.5t-22 -29.5q0 -15 12 -24t27.5 -14t30.5 -7l118 -15q58 -7 104 -15.5
t78.5 -22t49.5 -35.5t17 -57q0 -37 -19.5 -67t-55 -51t-85.5 -32.5t-112 -11.5q-52 0 -102 8.5t-89.5 25.5t-63.5 42t-24 59zM65 -40q0 -56 57.5 -87.5t159.5 -31.5q54 0 96 9t71.5 25t44.5 36t15 43q0 34 -28 54.5t-68.5 31.5t-84 14.5t-75.5 3.5q-55 0 -91.5 -6.5t-58 -19
t-30 -31t-8.5 -41.5zM142 404q0 -32 10 -63.5t28.5 -56t45 -40t59.5 -15.5q28 0 52 11t41.5 30.5t27.5 47.5t10 61t-10 64.5t-28.5 55.5t-45 39t-59.5 15q-29 0 -53 -11t-41.5 -31t-27 -47.5t-9.5 -59.5zM137 796l122 -96l123 96l2 -2l-123 -166h-4l-122 166z" />
    <glyph glyph-name="uni01E8" unicode="&#x1e8;" horiz-adv-x="707" 
d="M42 695h183q-16 -5 -26 -11.5t-16 -19.5t-8.5 -33.5t-2.5 -53.5v-282l328 300q75 68 58 100h101q-20 -11 -57.5 -38t-102.5 -86l-166 -152q22 -27 48 -59.5t54.5 -68.5t58.5 -73.5t59 -72.5q15 -18 35 -41.5t39 -45.5t34.5 -38.5t20.5 -19.5h-133q-1 27 -17.5 54.5
t-52.5 73.5q-19 25 -43.5 57t-50.5 65.5t-51.5 66t-47.5 59.5l-114 -104v-154q0 -33 2.5 -53.5t8.5 -33t16 -19.5t26 -12h-183q16 5 26.5 11.5t16.5 19t8.5 33.5t2.5 54v459q0 33 -2.5 54t-8.5 33.5t-16.5 19.5t-26.5 11zM244 936l122 -96l123 96l2 -2l-123 -166h-4
l-122 166z" />
    <glyph glyph-name="uni01E9" unicode="&#x1e9;" horiz-adv-x="592" 
d="M79 87v587q0 31 -5 45t-20 26l99 12v-511l256 225q27 23 45 47t16 47h91q-10 -5 -23 -13.5t-31 -22t-42 -33.5t-57 -49l-110 -97l191 -241q28 -35 45 -56t27 -33t14 -16t6 -4h-128q2 3 3 8.5t-3 16t-13.5 27t-28.5 41.5l-164 213l-94 -83v-136q0 -21 2.5 -35.5t8.5 -24.5
t16 -16t25 -11h-178q16 5 26 11t16 15.5t8 24.5t2 36zM168 1051l122 -96l123 96l2 -2l-123 -166h-4l-122 166z" />
    <glyph glyph-name="uni01EA" unicode="&#x1ea;" horiz-adv-x="758" 
d="M44 348q0 75 25 140t69.5 112.5t106 74.5t134.5 27t134.5 -27t106 -74.5t69.5 -112.5t25 -140q0 -67 -19.5 -125.5t-55.5 -104t-85.5 -76.5t-109.5 -42q-31 -17 -54.5 -49t-23.5 -70q0 -26 11 -36t22 -10q20 0 40.5 24.5t31.5 77.5l-5 -89q-11 -8 -30.5 -17.5t-44.5 -9.5
q-27 0 -50 15t-23 46q0 19 9.5 36t25 31.5t34.5 26.5t38 21q-22 -3 -46 -3q-73 0 -134.5 27t-106 74.5t-69.5 112.5t-25 140zM129 348q0 -85 18 -148.5t51 -106t79 -63.5t102 -21t102 21t79 63.5t51 106t18 148.5t-18 148.5t-51 106t-79 63.5t-102 21t-102 -21t-79 -63.5
t-51 -106t-18 -148.5z" />
    <glyph glyph-name="uni01EB" unicode="&#x1eb;" 
d="M31 283q0 63 21 115.5t59 91t90.5 59.5t116.5 21t116.5 -21t90.5 -59.5t59 -91t21 -115.5v-1q0 -55 -16 -102.5t-45.5 -84t-71 -61t-92.5 -33.5l2 -1q-31 -17 -54.5 -49t-23.5 -70q0 -26 11 -36t22 -10q20 0 40.5 24.5t31.5 77.5l-5 -89q-11 -8 -30.5 -17.5t-44.5 -9.5
q-27 0 -50 15t-23 46q0 19 10 36.5t26 32.5t35.5 27t38.5 20q-22 -3 -48 -3q-64 0 -116.5 21t-90.5 59.5t-59 91t-21 115.5v1zM318 10q46 0 84 20t65 56.5t42 86.5t15 110t-15 110t-42 86t-65 56t-84 20t-84 -20t-65 -56t-42 -86t-15 -110t15 -110t42 -86.5t65 -56.5t84 -20
z" />
    <glyph glyph-name="uni01EC" unicode="&#x1ec;" horiz-adv-x="758" 
d="M44 348q0 75 25 140t69.5 112.5t106 74.5t134.5 27t134.5 -27t106 -74.5t69.5 -112.5t25 -140q0 -67 -19.5 -125.5t-55.5 -104t-85.5 -76.5t-109.5 -42q-31 -17 -54.5 -49t-23.5 -70q0 -26 11 -36t22 -10q20 0 40.5 24.5t31.5 77.5l-5 -89q-11 -8 -30.5 -17.5t-44.5 -9.5
q-27 0 -50 15t-23 46q0 19 9.5 36t25 31.5t34.5 26.5t38 21q-22 -3 -46 -3q-73 0 -134.5 27t-106 74.5t-69.5 112.5t-25 140zM379 9q56 0 102 21t79 63.5t51 106t18 148.5t-18 148.5t-51 106t-79 63.5t-102 21t-102 -21t-79 -63.5t-51 -106t-18 -148.5t18 -148.5t51 -106
t79 -63.5t102 -21zM519 821v-16h-278v16h278z" />
    <glyph glyph-name="uni01ED" unicode="&#x1ed;" 
d="M31 282v1q0 63 21 115.5t59 91t90.5 59.5t116.5 21t116.5 -21t90.5 -59.5t59 -91t21 -115.5v-1q0 -55 -16 -102.5t-45.5 -84t-71 -61t-92.5 -33.5l2 -1q-31 -17 -54.5 -49t-23.5 -70q0 -26 11 -36t22 -10q20 0 40.5 24.5t31.5 77.5l-5 -89q-11 -8 -30.5 -17.5t-44.5 -9.5
q-27 0 -50 15t-23 46q0 19 10 36.5t26 32.5t35.5 27t38.5 20q-22 -3 -48 -3q-64 0 -116.5 21t-90.5 59.5t-59 91t-21 115.5zM112 283q0 -60 15 -110t42 -86.5t65 -56.5t84 -20t84 20t65 56.5t42 86.5t15 110t-15 110t-42 86t-65 56t-84 20t-84 -20t-65 -56t-42 -86t-15 -110
zM457 677v-12h-276v12h276z" />
    <glyph glyph-name="uni01F0" unicode="&#x1f0;" horiz-adv-x="206" 
d="M10 -188q17 12 28.5 33.5t18.5 51.5t10 67t3 79v413q0 21 -1.5 36.5t-4.5 27.5t-8.5 22t-13.5 20l102 9v-472q0 -132 -32.5 -202t-101.5 -85zM-15 796l122 -96l123 96l2 -2l-123 -166h-4l-122 166z" />
    <glyph glyph-name="uni01F4" unicode="&#x1f4;" horiz-adv-x="715" 
d="M374 701q27 0 57.5 -4t61.5 -12t60.5 -21t52.5 -30l14 -189q-28 114 -94.5 177.5t-156.5 63.5q-50 0 -94 -21t-76.5 -63.5t-51 -106t-18.5 -147.5q0 -86 19 -150t52.5 -106t79.5 -62.5t100 -20.5q20 0 44 4t49 14.5t50 28.5t47 46v208h-25h-32t-44 -0.5t-44 -1t-33 -2.5
l2 25q10 -1 20.5 -2t25.5 -1.5t36.5 -0.5h53.5h116v-330l-73 71q-41 -37 -91.5 -55.5t-102.5 -18.5q-70 0 -131 27t-106.5 74.5t-71.5 112.5t-26 140q0 74 24.5 138.5t68 112t104 75t133.5 27.5zM417 928h74l-119 -168h-3z" />
    <glyph glyph-name="uni01F5" unicode="&#x1f5;" horiz-adv-x="564" 
d="M2 -37q0 49 48 75.5t154 31.5q-72 6 -102 29.5t-30 58.5q0 19 8.5 32.5t23 22.5t33.5 13t39 4h14q-56 20 -88 62t-32 100q0 39 15 71t43 55t66.5 36t84.5 13q39 0 72.5 -9t59.5 -26q7 54 36.5 83.5t64.5 29.5q23 0 37.5 -11.5t14.5 -31.5q0 -18 -12.5 -30t-31.5 -12
q-11 0 -20 3.5t-17 8t-15.5 8t-15.5 3.5q-13 0 -21 -12.5t-12 -44.5q32 -23 50 -57.5t18 -76.5q0 -39 -15 -71.5t-42.5 -56t-66 -36.5t-84.5 -13q-22 0 -43 3q-12 1 -21 1.5t-17 0.5q-38 0 -60 -10.5t-22 -29.5q0 -15 12 -24t27.5 -14t30.5 -7l118 -15q58 -7 104 -15.5
t78.5 -22t49.5 -35.5t17 -57q0 -37 -19.5 -67t-55 -51t-85.5 -32.5t-112 -11.5q-52 0 -102 8.5t-89.5 25.5t-63.5 42t-24 59zM282 -159q54 0 96 9t71.5 25t44.5 36t15 43q0 34 -28 54.5t-68.5 31.5t-84 14.5t-75.5 3.5q-55 0 -91.5 -6.5t-58 -19t-30 -31t-8.5 -41.5
q0 -56 57.5 -87.5t159.5 -31.5zM285 229q28 0 52 11t41.5 30.5t27.5 47.5t10 61t-10 64.5t-28.5 55.5t-45 39t-59.5 15q-29 0 -53 -11t-41.5 -31t-27 -47.5t-9.5 -59.5t10 -63.5t28.5 -56t45 -40t59.5 -15.5zM304 801h74l-119 -168h-3z" />
    <glyph glyph-name="uni01F8" unicode="&#x1f8;" horiz-adv-x="742" 
d="M42 695h96l494 -574v486q0 22 -2.5 36.5t-8.5 24.5t-16.5 16.5t-26.5 10.5h125q-31 -10 -42.5 -27.5t-11.5 -60.5v-607h-7l-529 615v-527q0 -43 11.5 -60.5t42.5 -27.5h-125q32 9 43 27t11 61v519q0 22 -2.5 36.5t-8.5 24.5t-16.5 16.5t-26.5 10.5zM340 928l48 -168h-3
l-119 168h74z" />
    <glyph glyph-name="uni01F9" unicode="&#x1f9;" horiz-adv-x="648" 
d="M80 87v369q0 21 -1.5 36.5t-4.5 27.5t-8.5 22t-13.5 20l102 9v-159q25 73 80 115.5t140 42.5q48 0 85 -13.5t62.5 -38.5t39 -59.5t13.5 -75.5v-296q0 -21 2.5 -35.5t8.5 -24.5t16 -16t25 -11h-178q16 5 26 11t16 15.5t8 24.5t2 36v306q0 75 -36 117.5t-105 42.5
q-39 0 -75 -14.5t-64 -42.5t-45.5 -69t-20.5 -94v-246q0 -21 2.5 -35.5t8.5 -24.5t16 -16t25 -11h-178q16 5 26 11t16 15.5t8 24.5t2 36zM223 801h74l48 -168h-3z" />
    <glyph glyph-name="Aringacute" unicode="&#x1fa;" horiz-adv-x="751" 
d="M24 0q7 2 14 7.5t17 20.5t24 42t35 72l257 553h6l293 -626q17 -36 30 -50.5t26 -18.5h-152q7 3 13 8.5t9 16.5t0.5 27t-13.5 40l-82 178h-307l-82 -176q-12 -26 -16 -43t-2.5 -27.5t7 -15.5t11.5 -8h-88zM200 285h294l-147 316zM271 838q0 44 29 71.5t74 27.5
q32 0 58 -16l45 158h74l-114 -161q18 -13 28.5 -33.5t10.5 -46.5q0 -45 -28.5 -72t-73.5 -27t-74 28t-29 71zM374 751q38 0 62 24.5t24 62.5t-24 62.5t-62 24.5t-62.5 -24.5t-24.5 -62.5t24.5 -62.5t62.5 -24.5z" />
    <glyph glyph-name="aringacute" unicode="&#x1fb;" horiz-adv-x="520" 
d="M275 310l111 27v72q0 75 -29.5 110.5t-89.5 35.5q-28 0 -57 -9.5t-54.5 -34t-47 -66.5t-35.5 -106l-6 167q37 29 91 46t111 17q88 0 139.5 -42t51.5 -123v-317q0 -29 6.5 -51t21.5 -36l-98 -3v132q-10 -25 -25.5 -49t-38 -43t-53.5 -30t-71 -11q-36 0 -67.5 8t-54 24.5
t-35.5 41t-13 57.5q0 45 24.5 76t61.5 52t79 33.5t78 21.5zM218 11q28 0 57 12t53 35.5t40 58.5t18 81v124l-109 -26q-21 -5 -49.5 -15t-54 -28.5t-43 -48.5t-17.5 -76q0 -51 27.5 -84t77.5 -33zM156 708q0 44 29 71.5t74 27.5t73.5 -27.5t28.5 -71.5q0 -45 -28.5 -72
t-73.5 -27t-74 28t-29 71zM259 621q38 0 62 24.5t24 62.5t-24 62.5t-62 24.5t-62.5 -24.5t-24.5 -62.5t24.5 -62.5t62.5 -24.5zM304 999h74l-119 -168h-3z" />
    <glyph glyph-name="AEacute" unicode="&#x1fc;" horiz-adv-x="841" 
d="M114 142l244 553h398l21 -183q-12 52 -34 84.5t-50.5 50.5t-62 24.5t-70.5 6.5h-138l22 -296h72q48 0 80 6t52 18t30.5 29t15.5 39l-14 -203q-1 22 -9.5 39.5t-28 29.5t-51.5 18.5t-81 6.5h-64l26 -348h116q37 0 69 7.5t58.5 28.5t47 58t32.5 96l-18 -207h-437
q30 9 44 27.5t11 62.5l-13 172h-196l-74 -168q-12 -26 -15.5 -43t-2 -27.5t6.5 -15.5t11 -8h-88q7 2 14.5 7.5t17.5 20.5t24 42t34 72zM193 277h188l-28 366zM391 760l48 168h74l-119 -168h-3z" />
    <glyph glyph-name="aeacute" unicode="&#x1fd;" horiz-adv-x="923" 
d="M32 128q0 46 25 77.5t62 53t79 34t76 20.5l113 27v69q0 75 -29.5 110.5t-87.5 35.5q-28 0 -57 -9.5t-55 -34t-48 -67t-37 -108.5l-3 162q38 35 91 53t110 18q66 0 111.5 -26t65.5 -80q29 51 78 79t123 28q107 0 169 -60t64 -172h-417q-2 -14 -3 -29.5t-1 -28.5
q0 -58 15.5 -108t42.5 -86t65 -56.5t83 -20.5q40 0 72.5 15.5t58.5 42.5t47 63t37 76l-10 -143q-45 -35 -100 -51.5t-106 -16.5q-48 0 -90 12t-75.5 34t-58.5 53t-39 68q-29 -83 -79.5 -124.5t-125.5 -41.5q-34 0 -64.5 8.5t-53 25t-35.5 41.5t-13 57zM119 131q0 -52 25 -86
t75 -34q30 0 59.5 14t53 43t38.5 74t16 107l1 76l-111 -26q-157 -37 -157 -168zM466 350h338q-1 44 -12 82t-30.5 66t-48.5 43.5t-66 15.5q-36 0 -66 -15.5t-53 -43t-39 -65.5t-23 -83zM445 633l48 168h74l-119 -168h-3z" />
    <glyph glyph-name="Oslashacute" unicode="&#x1fe;" horiz-adv-x="758" 
d="M379 702q66 0 123 -22.5t101 -62.5l69 84l10 -7l-71 -86q49 -48 76 -114.5t27 -145.5q0 -75 -25 -140t-69.5 -112.5t-106 -74.5t-134.5 -27q-63 0 -116 20t-96 55l-61 -74l-10 7l62 75q-54 48 -84 117.5t-30 153.5q0 75 25 140t69.5 112.5t106 74.5t134.5 27zM186 111
l388 471q-33 53 -82.5 79t-112.5 26q-56 0 -102 -21t-79 -63.5t-51 -106t-18 -148.5q0 -77 15 -136t42 -101zM193 101q33 -46 80.5 -69t105.5 -23q56 0 102 21t79 63.5t51 106t18 148.5q0 71 -12.5 126t-35.5 97zM426 928h74l-119 -168h-3z" />
    <glyph glyph-name="oslashacute" unicode="&#x1ff;" 
d="M318 570q54 0 99.5 -15t81.5 -43l49 59l9 -8l-48 -58q45 -38 70.5 -95t25.5 -127v-1q0 -63 -21 -115.5t-59 -91t-90.5 -59.5t-116.5 -21q-54 0 -99.5 15t-81.5 43l-49 -59l-9 8l48 58q-45 38 -70.5 95t-25.5 127v1q0 63 21 115.5t59 91t90.5 59.5t116.5 21zM318 10
q46 0 84 20t65 56.5t42 86.5t15 110q0 54 -12.5 100.5t-35.5 81.5l-309 -376q27 -38 65 -58.5t86 -20.5zM112 283q0 -55 12.5 -101.5t35.5 -81.5l309 376q-27 38 -65 58.5t-86 20.5q-46 0 -84 -20t-65 -56t-42 -86t-15 -110zM364 801h74l-119 -168h-3z" />
    <glyph glyph-name="uni0200" unicode="&#x200;" horiz-adv-x="751" 
d="M114 142l257 553h6l293 -626q17 -36 30 -50.5t26 -18.5h-152q7 3 13 8.5t9 16.5t0.5 27t-13.5 40l-82 178h-307l-82 -176q-12 -26 -16 -43t-2.5 -27.5t7 -15.5t11.5 -8h-88q7 2 14 7.5t17 20.5t24 42t35 72zM494 285l-147 316l-147 -316h294zM222 916l134 -163h-3
l-208 163h77zM359 916l36 -163h-3l-96 163h63z" />
    <glyph glyph-name="uni0201" unicode="&#x201;" horiz-adv-x="520" 
d="M275 310l111 27v72q0 75 -29.5 110.5t-89.5 35.5q-28 0 -57 -9.5t-54.5 -34t-47 -66.5t-35.5 -106l-6 167q37 29 91 46t111 17q88 0 139.5 -42t51.5 -123v-317q0 -29 6.5 -51t21.5 -36l-98 -3v132q-10 -25 -25.5 -49t-38 -43t-53.5 -30t-71 -11q-36 0 -67.5 8t-54 24.5
t-35.5 41t-13 57.5q0 45 24.5 76t61.5 52t79 33.5t78 21.5zM218 11q28 0 57 12t53 35.5t40 58.5t18 81v124l-109 -26q-21 -5 -49.5 -15t-54 -28.5t-43 -48.5t-17.5 -76q0 -51 27.5 -84t77.5 -33zM107 786l134 -163h-3l-208 163h77zM181 786h63l36 -163h-3z" />
    <glyph glyph-name="uni0202" unicode="&#x202;" horiz-adv-x="751" 
d="M114 142l257 553h6l293 -626q17 -36 30 -50.5t26 -18.5h-152q7 3 13 8.5t9 16.5t0.5 27t-13.5 40l-82 178h-307l-82 -176q-12 -26 -16 -43t-2.5 -27.5t7 -15.5t11.5 -8h-88q7 2 14 7.5t17 20.5t24 42t35 72zM494 285l-147 316l-147 -316h294zM374 913q24 0 42 -11
t31 -29.5t20.5 -44t10.5 -54.5h-7q-4 39 -29 65t-67 26q-40 0 -67 -26t-31 -65h-7q3 29 10.5 54.5t20.5 44t31 29.5t42 11z" />
    <glyph glyph-name="uni0203" unicode="&#x203;" horiz-adv-x="520" 
d="M275 310l111 27v72q0 75 -29.5 110.5t-89.5 35.5q-28 0 -57 -9.5t-54.5 -34t-47 -66.5t-35.5 -106l-6 167q37 29 91 46t111 17q88 0 139.5 -42t51.5 -123v-317q0 -29 6.5 -51t21.5 -36l-98 -3v132q-10 -25 -25.5 -49t-38 -43t-53.5 -30t-71 -11q-36 0 -67.5 8t-54 24.5
t-35.5 41t-13 57.5q0 45 24.5 76t61.5 52t79 33.5t78 21.5zM218 11q28 0 57 12t53 35.5t40 58.5t18 81v124l-109 -26q-21 -5 -49.5 -15t-54 -28.5t-43 -48.5t-17.5 -76q0 -51 27.5 -84t77.5 -33zM259 783q24 0 42 -11t31 -29.5t20.5 -44t10.5 -54.5h-7q-4 39 -29 65t-67 26
q-40 0 -67 -26t-31 -65h-7q3 29 10.5 54.5t20.5 44t31 29.5t42 11z" />
    <glyph glyph-name="uni0204" unicode="&#x204;" horiz-adv-x="582" 
d="M42 0q32 9 45 27.5t13 62.5v519q0 22 -2 36.5t-7 24t-15 15.5t-26 10h447l21 -183q-12 52 -34 84.5t-50.5 50.5t-62 24.5t-70.5 6.5h-125v-296h81q51 0 83.5 6t52 18t28.5 29t14 39l-14 -203q-1 22 -7.5 39.5t-24 29.5t-49.5 18.5t-85 6.5h-79v-348h153q37 0 69 7.5
t58.5 28.5t47 58t32.5 96l-18 -207h-476zM71 916h77l134 -163h-3zM285 916l36 -163h-3l-96 163h63z" />
    <glyph glyph-name="uni0205" unicode="&#x205;" horiz-adv-x="578" 
d="M300 570q60 0 104.5 -17t73.5 -48t43.5 -73t15.5 -92h-421q-2 -15 -3 -30.5t-1 -31.5q0 -57 15.5 -106.5t43 -85.5t65.5 -56.5t83 -20.5q40 0 72.5 14.5t59.5 41.5t48.5 64.5t37.5 82.5l-9 -145q-44 -37 -100 -54.5t-109 -17.5q-63 0 -116 20.5t-91.5 57.5t-59.5 90
t-21 117q0 63 18.5 116t53.5 92t84.5 60.5t112.5 21.5zM459 352q-1 44 -12 81t-31 65t-49.5 43.5t-67.5 15.5q-36 0 -66 -15t-53.5 -42.5t-39 -65t-22.5 -82.5h341zM76 786h77l134 -163h-3zM290 786l36 -163h-3l-96 163h63z" />
    <glyph glyph-name="uni0206" unicode="&#x206;" horiz-adv-x="582" 
d="M42 0q32 9 45 27.5t13 62.5v519q0 22 -2 36.5t-7 24t-15 15.5t-26 10h447l21 -183q-12 52 -34 84.5t-50.5 50.5t-62 24.5t-70.5 6.5h-125v-296h81q51 0 83.5 6t52 18t28.5 29t14 39l-14 -203q-1 22 -7.5 39.5t-24 29.5t-49.5 18.5t-85 6.5h-79v-348h153q37 0 69 7.5
t58.5 28.5t47 58t32.5 96l-18 -207h-476zM196 774q3 29 10.5 54.5t20.5 44t31 29.5t42 11t42 -11t31 -29.5t20.5 -44t10.5 -54.5h-7q-4 39 -29 65t-67 26q-40 0 -67 -26t-31 -65h-7z" />
    <glyph glyph-name="uni0207" unicode="&#x207;" horiz-adv-x="578" 
d="M31 280q0 63 18.5 116t53.5 92t84.5 60.5t112.5 21.5q60 0 104.5 -17t73.5 -48t43.5 -73t15.5 -92h-421q-2 -15 -3 -30.5t-1 -31.5q0 -57 15.5 -106.5t43 -85.5t65.5 -56.5t83 -20.5q40 0 72.5 14.5t59.5 41.5t48.5 64.5t37.5 82.5l-9 -145q-44 -37 -100 -54.5
t-109 -17.5q-63 0 -116 20.5t-91.5 57.5t-59.5 90t-21 117zM118 352h341q-1 44 -12 81t-31 65t-49.5 43.5t-67.5 15.5q-36 0 -66 -15t-53.5 -42.5t-39 -65t-22.5 -82.5zM201 644q3 29 10.5 54.5t20.5 44t31 29.5t42 11t42 -11t31 -29.5t20.5 -44t10.5 -54.5h-7q-4 39 -29 65
t-67 26q-40 0 -67 -26t-31 -65h-7z" />
    <glyph glyph-name="uni0208" unicode="&#x208;" horiz-adv-x="267" 
d="M42 0q16 5 26.5 11.5t16.5 19t8.5 33.5t2.5 54v459q0 33 -2.5 54t-8.5 33.5t-16.5 19.5t-26.5 11h183q-16 -5 -26 -11.5t-16 -19.5t-8.5 -33.5t-2.5 -53.5v-459q0 -33 2.5 -53.5t8.5 -33t16 -19.5t26 -12h-183zM-18 916l134 -163h-3l-208 163h77zM56 916h63l36 -163h-3z
" />
    <glyph glyph-name="uni0209" unicode="&#x209;" horiz-adv-x="232" 
d="M28 0q16 5 26 11t16 15.5t8 24.5t2 36v369q0 21 -1.5 36.5t-4.5 27.5t-8.5 22t-13.5 20l102 9v-484q0 -21 2.5 -35.5t8.5 -24.5t16 -16t25 -11h-178zM-114 786h77l134 -163h-3zM37 786h63l36 -163h-3z" />
    <glyph glyph-name="uni020A" unicode="&#x20a;" horiz-adv-x="267" 
d="M42 0q16 5 26.5 11.5t16.5 19t8.5 33.5t2.5 54v459q0 33 -2.5 54t-8.5 33.5t-16.5 19.5t-26.5 11h183q-16 -5 -26 -11.5t-16 -19.5t-8.5 -33.5t-2.5 -53.5v-459q0 -33 2.5 -53.5t8.5 -33t16 -19.5t26 -12h-183zM134 913q24 0 42 -11t31 -29.5t20.5 -44t10.5 -54.5h-7
q-4 39 -29 65t-67 26q-40 0 -67 -26t-31 -65h-7q3 29 10.5 54.5t20.5 44t31 29.5t42 11z" />
    <glyph glyph-name="uni020B" unicode="&#x20b;" horiz-adv-x="232" 
d="M28 0q16 5 26 11t16 15.5t8 24.5t2 36v369q0 21 -1.5 36.5t-4.5 27.5t-8.5 22t-13.5 20l102 9v-484q0 -21 2.5 -35.5t8.5 -24.5t16 -16t25 -11h-178zM11 644q3 29 10.5 54.5t20.5 44t31 29.5t42 11t42 -11t31 -29.5t20.5 -44t10.5 -54.5h-7q-4 39 -29 65t-67 26
q-40 0 -67 -26t-31 -65h-7z" />
    <glyph glyph-name="uni020C" unicode="&#x20c;" horiz-adv-x="758" 
d="M44 348q0 75 25 140t69.5 112.5t106 74.5t134.5 27t134.5 -27t106 -74.5t69.5 -112.5t25 -140t-25 -140t-69.5 -112.5t-106 -74.5t-134.5 -27t-134.5 27t-106 74.5t-69.5 112.5t-25 140zM379 9q56 0 102 21t79 63.5t51 106t18 148.5t-18 148.5t-51 106t-79 63.5t-102 21
t-102 -21t-79 -63.5t-51 -106t-18 -148.5t18 -148.5t51 -106t79 -63.5t102 -21zM228 916l134 -163h-3l-208 163h77zM302 916h63l36 -163h-3z" />
    <glyph glyph-name="uni020D" unicode="&#x20d;" 
d="M318 570q64 0 116.5 -21t90.5 -59.5t59 -91t21 -115.5v-1q0 -63 -21 -115.5t-59 -91t-90.5 -59.5t-116.5 -21t-116.5 21t-90.5 59.5t-59 91t-21 115.5v1q0 63 21 115.5t59 91t90.5 59.5t116.5 21zM318 10q46 0 84 20t65 56.5t42 86.5t15 110t-15 110t-42 86t-65 56
t-84 20t-84 -20t-65 -56t-42 -86t-15 -110t15 -110t42 -86.5t65 -56.5t84 -20zM90 786h77l134 -163h-3zM304 786l36 -163h-3l-96 163h63z" />
    <glyph glyph-name="uni020E" unicode="&#x20e;" horiz-adv-x="758" 
d="M44 348q0 75 25 140t69.5 112.5t106 74.5t134.5 27t134.5 -27t106 -74.5t69.5 -112.5t25 -140t-25 -140t-69.5 -112.5t-106 -74.5t-134.5 -27t-134.5 27t-106 74.5t-69.5 112.5t-25 140zM129 348q0 -85 18 -148.5t51 -106t79 -63.5t102 -21t102 21t79 63.5t51 106
t18 148.5t-18 148.5t-51 106t-79 63.5t-102 21t-102 -21t-79 -63.5t-51 -106t-18 -148.5zM276 774q3 29 10.5 54.5t20.5 44t31 29.5t42 11t42 -11t31 -29.5t20.5 -44t10.5 -54.5h-7q-4 39 -29 65t-67 26q-40 0 -67 -26t-31 -65h-7z" />
    <glyph glyph-name="uni020F" unicode="&#x20f;" 
d="M318 570q64 0 116.5 -21t90.5 -59.5t59 -91t21 -115.5v-1q0 -63 -21 -115.5t-59 -91t-90.5 -59.5t-116.5 -21t-116.5 21t-90.5 59.5t-59 91t-21 115.5v1q0 63 21 115.5t59 91t90.5 59.5t116.5 21zM318 10q46 0 84 20t65 56.5t42 86.5t15 110t-15 110t-42 86t-65 56
t-84 20t-84 -20t-65 -56t-42 -86t-15 -110t15 -110t42 -86.5t65 -56.5t84 -20zM215 644q3 29 10.5 54.5t20.5 44t31 29.5t42 11t42 -11t31 -29.5t20.5 -44t10.5 -54.5h-7q-4 39 -29 65t-67 26q-40 0 -67 -26t-31 -65h-7z" />
    <glyph glyph-name="uni0210" unicode="&#x210;" horiz-adv-x="652" 
d="M96 88v519q0 22 -2.5 36.5t-8.5 24.5t-16.5 16.5t-26.5 10.5h243q48 0 93.5 -9t81 -29.5t57 -53.5t21.5 -81q0 -42 -16.5 -74.5t-44.5 -56t-64 -37.5t-75 -20l163 -196q15 -17 34.5 -39.5t38.5 -43.5t34 -36.5t20 -18.5h-134q0 14 -4.5 27.5t-13.5 27.5t-22 31t-30 38
l-166 206h-86v-242q0 -43 11.5 -60.5t42.5 -27.5h-184q32 9 43 27t11 61zM172 346h101q88 0 137.5 44.5t49.5 127.5q0 46 -16 77t-43 49.5t-62.5 26.5t-75.5 8h-91v-333zM141 916l134 -163h-3l-208 163h77zM215 916h63l36 -163h-3z" />
    <glyph glyph-name="uni0211" unicode="&#x211;" horiz-adv-x="395" 
d="M80 87v369q0 21 -1.5 36.5t-4.5 27.5t-8.5 22t-13.5 20l101 9v-134q12 28 27 52t35 42t46.5 28t60.5 10q32 0 57 -7l-1 -96q-9 11 -21.5 23t-26.5 22t-29 16.5t-31 6.5q-20 0 -37 -10t-31.5 -26.5t-26.5 -39t-21 -47.5v-324q0 -21 2.5 -35.5t8.5 -24.5t16 -16t25 -11
h-178q16 5 26 11t16 15.5t8 24.5t2 36zM-12 786h77l134 -163h-3zM202 786l36 -163h-3l-96 163h63z" />
    <glyph glyph-name="uni0212" unicode="&#x212;" horiz-adv-x="652" 
d="M42 695h243q48 0 93.5 -9t81 -29.5t57 -53.5t21.5 -81q0 -42 -16.5 -74.5t-44.5 -56t-64 -37.5t-75 -20l163 -196q15 -17 34.5 -39.5t38.5 -43.5t34 -36.5t20 -18.5h-134q0 14 -4.5 27.5t-13.5 27.5t-22 31t-30 38l-166 206h-86v-242q0 -43 11.5 -60.5t42.5 -27.5h-184
q32 9 43 27t11 61v519q0 22 -2.5 36.5t-8.5 24.5t-16.5 16.5t-26.5 10.5zM172 346h101q88 0 137.5 44.5t49.5 127.5q0 46 -16 77t-43 49.5t-62.5 26.5t-75.5 8h-91v-333zM293 913q24 0 42 -11t31 -29.5t20.5 -44t10.5 -54.5h-7q-4 39 -29 65t-67 26q-40 0 -67 -26t-31 -65
h-7q3 29 10.5 54.5t20.5 44t31 29.5t42 11z" />
    <glyph glyph-name="uni0213" unicode="&#x213;" horiz-adv-x="395" 
d="M80 87v369q0 21 -1.5 36.5t-4.5 27.5t-8.5 22t-13.5 20l101 9v-134q12 28 27 52t35 42t46.5 28t60.5 10q32 0 57 -7l-1 -96q-9 11 -21.5 23t-26.5 22t-29 16.5t-31 6.5q-20 0 -37 -10t-31.5 -26.5t-26.5 -39t-21 -47.5v-324q0 -21 2.5 -35.5t8.5 -24.5t16 -16t25 -11
h-178q16 5 26 11t16 15.5t8 24.5t2 36zM113 644q3 29 10.5 54.5t20.5 44t31 29.5t42 11t42 -11t31 -29.5t20.5 -44t10.5 -54.5h-7q-4 39 -29 65t-67 26q-40 0 -67 -26t-31 -65h-7z" />
    <glyph glyph-name="uni0214" unicode="&#x214;" horiz-adv-x="678" 
d="M220 695q-31 -10 -42.5 -27.5t-11.5 -60.5v-345q0 -119 48.5 -185.5t136.5 -66.5q104 0 162 70t58 196v331q0 22 -2.5 36.5t-8.5 24.5t-16.5 16.5t-26.5 10.5h126q-31 -10 -42.5 -27.5t-11.5 -60.5v-328q0 -135 -63 -209.5t-175 -74.5q-126 0 -193.5 63.5t-67.5 187.5
v361q0 22 -2.5 36.5t-8.5 24.5t-16.5 16.5t-26.5 10.5h184zM202 916l134 -163h-3l-208 163h77zM276 916h63l36 -163h-3z" />
    <glyph glyph-name="uni0215" unicode="&#x215;" horiz-adv-x="579" 
d="M135 571v-406q0 -43 9 -72.5t25.5 -48t40 -26.5t51.5 -8q45 0 78 20.5t55 52.5t34 71t13 76v226q0 21 -1.5 36.5t-4.5 27.5t-8.5 22t-13.5 20l102 9v-472q0 -44 7 -64.5t21 -34.5l-98 -3v151q-15 -36 -32.5 -64t-40.5 -48t-53.5 -30.5t-70.5 -10.5q-86 0 -136.5 43
t-50.5 132v286q0 21 -1.5 36.5t-4.5 27.5t-8.5 22t-13.5 20zM50 786h77l134 -163h-3zM264 786l36 -163h-3l-96 163h63z" />
    <glyph glyph-name="uni0216" unicode="&#x216;" horiz-adv-x="678" 
d="M36 695h184q-31 -10 -42.5 -27.5t-11.5 -60.5v-345q0 -119 48.5 -185.5t136.5 -66.5q104 0 162 70t58 196v331q0 22 -2.5 36.5t-8.5 24.5t-16.5 16.5t-26.5 10.5h126q-31 -10 -42.5 -27.5t-11.5 -60.5v-328q0 -135 -63 -209.5t-175 -74.5q-126 0 -193.5 63.5t-67.5 187.5
v361q0 22 -2.5 36.5t-8.5 24.5t-16.5 16.5t-26.5 10.5zM250 774q3 29 10.5 54.5t20.5 44t31 29.5t42 11t42 -11t31 -29.5t20.5 -44t10.5 -54.5h-7q-4 39 -29 65t-67 26q-40 0 -67 -26t-31 -65h-7z" />
    <glyph glyph-name="uni0217" unicode="&#x217;" horiz-adv-x="579" 
d="M135 571v-406q0 -43 9 -72.5t25.5 -48t40 -26.5t51.5 -8q45 0 78 20.5t55 52.5t34 71t13 76v226q0 21 -1.5 36.5t-4.5 27.5t-8.5 22t-13.5 20l102 9v-472q0 -44 7 -64.5t21 -34.5l-98 -3v151q-15 -36 -32.5 -64t-40.5 -48t-53.5 -30.5t-70.5 -10.5q-86 0 -136.5 43
t-50.5 132v286q0 21 -1.5 36.5t-4.5 27.5t-8.5 22t-13.5 20zM279 783q24 0 42 -11t31 -29.5t20.5 -44t10.5 -54.5h-7q-4 39 -29 65t-67 26q-40 0 -67 -26t-31 -65h-7q3 29 10.5 54.5t20.5 44t31 29.5t42 11z" />
    <glyph glyph-name="uni0218" unicode="&#x218;" horiz-adv-x="555" 
d="M62 259q12 -119 69 -184.5t157 -65.5q40 0 72 11.5t54 32t33.5 47.5t11.5 57q0 38 -16 64t-37.5 44t-45 28.5t-38.5 16.5l-97 37q-19 7 -46 19.5t-52.5 33.5t-43.5 52t-18 76q0 36 13 68t39 56t64 37.5t89 13.5q46 0 101.5 -13.5t98.5 -41.5l7 -191q-17 110 -67.5 170.5
t-138.5 60.5q-35 0 -65 -9.5t-51.5 -27t-33.5 -41t-12 -50.5q0 -31 14.5 -53t35 -38t43.5 -26t40 -16l103 -39q76 -29 121 -75.5t45 -120.5q0 -42 -15.5 -78t-44.5 -62.5t-71 -42t-95 -15.5q-70 0 -134.5 20t-104.5 59zM225 -105q0 19 13 32t33 13q21 0 35 -13.5t14 -38.5
q0 -46 -22 -71.5t-62 -27.5l-1 4q47 12 49 58q-3 0 -6 -0.5t-7 -0.5q-20 0 -33 12.5t-13 32.5z" />
    <glyph glyph-name="uni0219" unicode="&#x219;" horiz-adv-x="476" 
d="M50 242q6 -68 22.5 -113t41 -71.5t56 -37.5t67.5 -11q75 0 110.5 36t35.5 88q0 30 -11 50.5t-26.5 34t-33.5 21t-33 12.5l-107 36q-16 5 -36 15.5t-38 27.5t-30.5 41.5t-12.5 57.5q0 66 49 104t130 38q55 0 100.5 -17t78.5 -46l-7 -135q-25 98 -65.5 141t-108.5 43
q-54 0 -90 -25.5t-36 -78.5q0 -24 10 -40t24.5 -26.5t31.5 -17t32 -11.5l97 -32q19 -6 43.5 -17t46.5 -29.5t37 -46t15 -67.5q0 -37 -14 -68t-41 -54t-66.5 -36t-91.5 -13q-57 0 -109.5 15t-86.5 43zM187 -105q0 19 13 32t33 13q21 0 35 -13.5t14 -38.5q0 -46 -22 -71.5
t-62 -27.5l-1 4q47 12 49 58q-3 0 -6 -0.5t-7 -0.5q-20 0 -33 12.5t-13 32.5z" />
    <glyph glyph-name="uni021A" unicode="&#x21a;" horiz-adv-x="647" 
d="M40 460l14 235h541l12 -235q-10 71 -24 113.5t-33.5 66t-46.5 31t-64 7.5h-77v-590q0 -21 2.5 -36t8.5 -24.5t16 -16t25 -11.5h-182q16 5 26.5 11t16.5 16t8.5 24.5t2.5 36.5v590h-76q-37 0 -64 -7.5t-47 -31t-34 -66t-25 -113.5zM322 -60q21 0 35 -13.5t14 -38.5
q0 -46 -22 -71.5t-62 -27.5l-1 4q47 12 49 58q-3 0 -6 -0.5t-7 -0.5q-20 0 -33 12.5t-13 32.5q0 19 13 32t33 13z" />
    <glyph glyph-name="uni021B" unicode="&#x21b;" horiz-adv-x="375" 
d="M20 565h103l69 139v-139h164v-11h-164v-430q0 -33 4.5 -55t12.5 -35t20.5 -18t28.5 -5q29 0 49 16.5t37 46.5l13 -9q-20 -32 -43.5 -50.5t-68.5 -18.5q-70 0 -98.5 40.5t-28.5 114.5v403h-98v11zM182 -105q0 19 13 32t33 13q21 0 35 -13.5t14 -38.5q0 -46 -22 -71.5
t-62 -27.5l-1 4q47 12 49 58q-3 0 -6 -0.5t-7 -0.5q-20 0 -33 12.5t-13 32.5z" />
    <glyph glyph-name="uni021E" unicode="&#x21e;" horiz-adv-x="756" 
d="M42 695h183q-16 -5 -26 -11.5t-16 -19.5t-8.5 -33.5t-2.5 -53.5v-185h413v185q0 33 -2.5 54t-8.5 33.5t-16.5 19.5t-26.5 11h183q-16 -5 -26 -11.5t-16 -19.5t-8.5 -33.5t-2.5 -53.5v-459q0 -33 2.5 -53.5t8.5 -33t16 -19.5t26 -12h-183q16 5 26.5 11.5t16.5 19t8.5 33.5
t2.5 54v257h-413v-257q0 -33 2.5 -53.5t8.5 -33t16 -19.5t26 -12h-183q16 5 26.5 11.5t16.5 19t8.5 33.5t2.5 54v459q0 33 -2.5 54t-8.5 33.5t-16.5 19.5t-26.5 11zM253 934l2 2l122 -96l123 96l2 -2l-123 -166h-4z" />
    <glyph glyph-name="uni021F" unicode="&#x21f;" horiz-adv-x="647" 
d="M79 87v587q0 31 -5 45t-20 26l99 12v-345q25 73 80 115.5t140 42.5q48 0 85 -13.5t62.5 -38.5t39 -59.5t13.5 -75.5v-296q0 -21 2.5 -35.5t8.5 -24.5t16 -16t25 -11h-178q16 5 26 11t16 15.5t8 24.5t2 36v306q0 75 -36 117.5t-105 42.5q-39 0 -75 -14.5t-64 -42.5
t-45.5 -69t-20.5 -94v-246q0 -21 2.5 -35.5t8.5 -24.5t16 -16t25 -11h-178q16 5 26 11t16 15.5t8 24.5t2 36zM-10 985l2 2l122 -96l123 96l2 -2l-123 -166h-4z" />
    <glyph glyph-name="uni0226" unicode="&#x226;" horiz-adv-x="751" 
d="M24 0q7 2 14 7.5t17 20.5t24 42t35 72l257 553h6l293 -626q17 -36 30 -50.5t26 -18.5h-152q7 3 13 8.5t9 16.5t0.5 27t-13.5 40l-82 178h-307l-82 -176q-12 -26 -16 -43t-2.5 -27.5t7 -15.5t11.5 -8h-88zM200 285h294l-147 316zM374 884q23 0 38 -13.5t15 -36.5t-15 -37
t-38 -14q-22 0 -37 14t-15 37t15 36.5t37 13.5z" />
    <glyph glyph-name="uni0227" unicode="&#x227;" horiz-adv-x="520" 
d="M32 127q0 45 24.5 76t61.5 52t79 33.5t78 21.5l111 27v72q0 75 -29.5 110.5t-89.5 35.5q-28 0 -57 -9.5t-54.5 -34t-47 -66.5t-35.5 -106l-6 167q37 29 91 46t111 17q88 0 139.5 -42t51.5 -123v-317q0 -29 6.5 -51t21.5 -36l-98 -3v132q-10 -25 -25.5 -49t-38 -43
t-53.5 -30t-71 -11q-36 0 -67.5 8t-54 24.5t-35.5 41t-13 57.5zM113 128q0 -51 27.5 -84t77.5 -33q28 0 57 12t53 35.5t40 58.5t18 81v124l-109 -26q-21 -5 -49.5 -15t-54 -28.5t-43 -48.5t-17.5 -76zM206 694q0 23 15 36.5t37 13.5q23 0 38 -13.5t15 -36.5t-15 -37t-38 -14
q-22 0 -37 14t-15 37z" />
    <glyph glyph-name="uni0228" unicode="&#x228;" horiz-adv-x="582" 
d="M100 90v519q0 22 -2 36.5t-7 24t-15 15.5t-26 10h447l21 -183q-12 52 -34 84.5t-50.5 50.5t-62 24.5t-70.5 6.5h-125v-296h81q51 0 83.5 6t52 18t28.5 29t14 39l-14 -203q-1 22 -7.5 39.5t-24 29.5t-49.5 18.5t-85 6.5h-79v-348h153q37 0 69 7.5t58.5 28.5t47 58t32.5 96
l-18 -207h-212l-15 -48q18 4 35.5 2.5t31 -7.5t21.5 -17.5t8 -27.5q0 -33 -24 -51t-58 -18q-20 0 -37 8t-25 19l4 46q5 -24 21.5 -42.5t42.5 -18.5q11 0 21.5 8t10.5 28q0 10 -3.5 21.5t-11 20.5t-19.5 13.5t-29 1.5l10 62h-248q32 9 45 27.5t13 62.5z" />
    <glyph glyph-name="uni0229" unicode="&#x229;" horiz-adv-x="578" 
d="M31 280q0 63 18.5 116t53.5 92t84.5 60.5t112.5 21.5q60 0 104.5 -17t73.5 -48t43.5 -73t15.5 -92h-421q-2 -15 -3 -30.5t-1 -31.5q0 -57 15.5 -106.5t43 -85.5t65.5 -56.5t83 -20.5q40 0 72.5 14.5t59.5 41.5t48.5 64.5t37.5 82.5l-9 -145q-43 -36 -98.5 -53.5
t-108.5 -18.5l-13 -43q18 4 35.5 2.5t31 -7.5t21.5 -17.5t8 -27.5q0 -33 -24 -51t-58 -18q-20 0 -37 8t-25 19l4 46q5 -24 21.5 -42.5t42.5 -18.5q11 0 21.5 8t10.5 28q0 10 -3.5 21.5t-11 20.5t-19.5 13.5t-29 1.5l9 57q-61 2 -111.5 23.5t-87 58.5t-56.5 88.5t-20 114.5z
M118 352h341q-1 44 -12 81t-31 65t-49.5 43.5t-67.5 15.5q-36 0 -66 -15t-53.5 -42.5t-39 -65t-22.5 -82.5z" />
    <glyph glyph-name="uni022A" unicode="&#x22a;" horiz-adv-x="758" 
d="M379 702q73 0 134.5 -27t106 -74.5t69.5 -112.5t25 -140t-25 -140t-69.5 -112.5t-106 -74.5t-134.5 -27t-134.5 27t-106 74.5t-69.5 112.5t-25 140t25 140t69.5 112.5t106 74.5t134.5 27zM129 348q0 -85 18 -148.5t51 -106t79 -63.5t102 -21t102 21t79 63.5t51 106
t18 148.5t-18 148.5t-51 106t-79 63.5t-102 21t-102 -21t-79 -63.5t-51 -106t-18 -148.5zM299 884q23 0 38 -13.5t15 -36.5t-15 -37t-38 -14q-22 0 -37 14t-15 37t15 36.5t37 13.5zM407 834q0 23 15 36.5t37 13.5q23 0 38 -13.5t15 -36.5t-15 -37t-38 -14q-22 0 -37 14
t-15 37zM519 969v-16h-278v16h278z" />
    <glyph glyph-name="uni022B" unicode="&#x22b;" 
d="M31 283q0 63 21 115.5t59 91t90.5 59.5t116.5 21t116.5 -21t90.5 -59.5t59 -91t21 -115.5v-1q0 -63 -21 -115.5t-59 -91t-90.5 -59.5t-116.5 -21t-116.5 21t-90.5 59.5t-59 91t-21 115.5v1zM112 283q0 -60 15 -110t42 -86.5t65 -56.5t84 -20t84 20t65 56.5t42 86.5
t15 110t-15 110t-42 86t-65 56t-84 20t-84 -20t-65 -56t-42 -86t-15 -110zM239 742q23 0 38 -13.5t15 -36.5t-15 -37t-38 -14q-22 0 -37 14t-15 37t15 36.5t37 13.5zM399 742q23 0 38 -13.5t15 -36.5t-15 -37t-38 -14q-22 0 -37 14t-15 37t15 36.5t37 13.5zM181 819v12h276
v-12h-276z" />
    <glyph glyph-name="uni022C" unicode="&#x22c;" horiz-adv-x="758" 
d="M379 702q73 0 134.5 -27t106 -74.5t69.5 -112.5t25 -140t-25 -140t-69.5 -112.5t-106 -74.5t-134.5 -27t-134.5 27t-106 74.5t-69.5 112.5t-25 140t25 140t69.5 112.5t106 74.5t134.5 27zM129 348q0 -85 18 -148.5t51 -106t79 -63.5t102 -21t102 21t79 63.5t51 106
t18 148.5t-18 148.5t-51 106t-79 63.5t-102 21t-102 -21t-79 -63.5t-51 -106t-18 -148.5zM332 893q32 0 46.5 -13t23.5 -28t18.5 -28t31.5 -13q26 0 39 21t12 56h10q2 -49 -21 -71.5t-61 -22.5q-32 0 -47 12.5t-24.5 28t-19.5 28t-31 12.5q-26 0 -38.5 -20.5t-11.5 -55.5
h-11q-2 49 22 71.5t62 22.5zM241 994v16h278v-16h-278z" />
    <glyph glyph-name="uni022D" unicode="&#x22d;" 
d="M31 282v1q0 63 21 115.5t59 91t90.5 59.5t116.5 21t116.5 -21t90.5 -59.5t59 -91t21 -115.5v-1q0 -63 -21 -115.5t-59 -91t-90.5 -59.5t-116.5 -21t-116.5 21t-90.5 59.5t-59 91t-21 115.5zM318 10q46 0 84 20t65 56.5t42 86.5t15 110t-15 110t-42 86t-65 56t-84 20
t-84 -20t-65 -56t-42 -86t-15 -110t15 -110t42 -86.5t65 -56.5t84 -20zM270 734q32 0 46.5 -13t23.5 -28t18.5 -28t31.5 -13q26 0 39 21t12 56h10q2 -49 -21 -71.5t-61 -22.5q-32 0 -47 12.5t-24.5 28t-19.5 28t-31 12.5q-26 0 -38.5 -20.5t-11.5 -55.5h-11q-2 49 22 71.5
t62 22.5zM457 799v-12h-276v12h276z" />
    <glyph glyph-name="uni022E" unicode="&#x22e;" horiz-adv-x="758" 
d="M44 348q0 75 25 140t69.5 112.5t106 74.5t134.5 27t134.5 -27t106 -74.5t69.5 -112.5t25 -140t-25 -140t-69.5 -112.5t-106 -74.5t-134.5 -27t-134.5 27t-106 74.5t-69.5 112.5t-25 140zM129 348q0 -85 18 -148.5t51 -106t79 -63.5t102 -21t102 21t79 63.5t51 106
t18 148.5t-18 148.5t-51 106t-79 63.5t-102 21t-102 -21t-79 -63.5t-51 -106t-18 -148.5zM380 884q23 0 38 -13.5t15 -36.5t-15 -37t-38 -14q-22 0 -37 14t-15 37t15 36.5t37 13.5z" />
    <glyph glyph-name="uni022F" unicode="&#x22f;" 
d="M318 570q64 0 116.5 -21t90.5 -59.5t59 -91t21 -115.5v-1q0 -63 -21 -115.5t-59 -91t-90.5 -59.5t-116.5 -21t-116.5 21t-90.5 59.5t-59 91t-21 115.5v1q0 63 21 115.5t59 91t90.5 59.5t116.5 21zM318 10q46 0 84 20t65 56.5t42 86.5t15 110t-15 110t-42 86t-65 56
t-84 20t-84 -20t-65 -56t-42 -86t-15 -110t15 -110t42 -86.5t65 -56.5t84 -20zM266 694q0 23 15 36.5t37 13.5q23 0 38 -13.5t15 -36.5t-15 -37t-38 -14q-22 0 -37 14t-15 37z" />
    <glyph glyph-name="uni0230" unicode="&#x230;" horiz-adv-x="758" 
d="M44 348q0 75 25 140t69.5 112.5t106 74.5t134.5 27t134.5 -27t106 -74.5t69.5 -112.5t25 -140t-25 -140t-69.5 -112.5t-106 -74.5t-134.5 -27t-134.5 27t-106 74.5t-69.5 112.5t-25 140zM129 348q0 -85 18 -148.5t51 -106t79 -63.5t102 -21t102 21t79 63.5t51 106
t18 148.5t-18 148.5t-51 106t-79 63.5t-102 21t-102 -21t-79 -63.5t-51 -106t-18 -148.5zM328 834q0 23 15 36.5t37 13.5q23 0 38 -13.5t15 -36.5t-15 -37t-38 -14q-22 0 -37 14t-15 37zM241 953v16h278v-16h-278z" />
    <glyph glyph-name="uni0231" unicode="&#x231;" 
d="M31 282v1q0 63 21 115.5t59 91t90.5 59.5t116.5 21t116.5 -21t90.5 -59.5t59 -91t21 -115.5v-1q0 -63 -21 -115.5t-59 -91t-90.5 -59.5t-116.5 -21t-116.5 21t-90.5 59.5t-59 91t-21 115.5zM318 10q46 0 84 20t65 56.5t42 86.5t15 110t-15 110t-42 86t-65 56t-84 20
t-84 -20t-65 -56t-42 -86t-15 -110t15 -110t42 -86.5t65 -56.5t84 -20zM318 744q23 0 38 -13.5t15 -36.5t-15 -37t-38 -14q-22 0 -37 14t-15 37t15 36.5t37 13.5zM181 819v12h276v-12h-276z" />
    <glyph glyph-name="uni0232" unicode="&#x232;" horiz-adv-x="684" 
d="M24 695h144q-4 -3 -7.5 -9t-4.5 -14.5t3 -20t14 -27.5l197 -301l172 257q23 35 30.5 55.5t7.5 32.5t-5 17.5t-8 9.5h93q-13 -4 -32.5 -24t-45.5 -58l-203 -302v-223q0 -43 11.5 -60.5t42.5 -27.5h-184q32 9 43 27t11 61v214l-192 292q-33 51 -53 72.5t-34 28.5zM499 821
v-16h-278v16h278z" />
    <glyph glyph-name="uni0233" unicode="&#x233;" horiz-adv-x="543" 
d="M136 565q-8 -7 -12 -21t10 -49l166 -409l160 407q8 19 7 31.5t-5.5 20.5t-10.5 12.5l-10 7.5h92q-9 -6 -25 -21t-30 -49l-211 -529q-7 -17 -18.5 -39t-29.5 -43t-43 -37t-59 -21l-35 99q38 -20 73 -20t64 22t46 68l-211 509q-13 31 -24 43.5t-19 17.5h125zM160 665v12
h276v-12h-276z" />
    <glyph glyph-name="uni0237" unicode="&#x237;" horiz-adv-x="206" 
d="M10 -188q17 12 28.5 33.5t18.5 51.5t10 67t3 79v413q0 21 -1.5 36.5t-4.5 27.5t-8.5 22t-13.5 20l102 9v-472q0 -132 -32.5 -202t-101.5 -85z" />
    <glyph glyph-name="uni0259" unicode="&#x259;" horiz-adv-x="578" 
d="M41 225h421q2 15 3 30.5t1 31.5q0 57 -15.5 106.5t-43 85.5t-65.5 56.5t-83 20.5q-79 0 -132 -56t-86 -147l9 145q44 37 100 54.5t109 17.5q63 0 116 -20.5t91.5 -57.5t59.5 -89.5t21 -117.5q0 -63 -18.5 -116t-53.5 -92t-84.5 -60.5t-112.5 -21.5q-60 0 -104.5 17
t-73.5 48t-43.5 73t-15.5 92zM279 8q36 0 66 15t53.5 42.5t39 65t22.5 82.5h-341q1 -43 12 -80.5t31.5 -65.5t49.5 -43.5t67 -15.5z" />
    <glyph glyph-name="uni0272" unicode="&#x272;" horiz-adv-x="638" 
d="M70 43v413q0 21 -1.5 36.5t-4.5 27.5t-8.5 22t-13.5 20l102 9v-159q25 73 80 115.5t140 42.5q48 0 85 -13.5t62.5 -38.5t39 -59.5t13.5 -75.5v-296q0 -21 2.5 -35.5t8.5 -24.5t16 -16t25 -11h-178q16 5 26 11t16 15.5t8 24.5t2 36v306q0 75 -36 117.5t-105 42.5
q-39 0 -75 -14.5t-64 -42.5t-45.5 -69t-20.5 -94v-234q0 -132 -32.5 -202t-101.5 -85q17 12 28.5 33.5t18.5 51.5t10 67t3 79z" />
    <glyph glyph-name="uni02BC" unicode="&#x2bc;" horiz-adv-x="600" 
 />
    <glyph glyph-name="gravecomb" unicode="&#x300;" horiz-adv-x="0" 
d="M-45 965l48 -168h-3l-119 168h74z" />
    <glyph glyph-name="acutecomb" unicode="&#x301;" horiz-adv-x="0" 
d="M-140 797h-3l48 168h74z" />
    <glyph glyph-name="tildecomb" unicode="&#x303;" horiz-adv-x="0" 
d="M-181 859q32 0 46.5 -13t23.5 -28t18.5 -28t31.5 -13q26 0 39 21t12 56h10q2 -49 -21 -71.5t-61 -22.5q-32 0 -47 12.5t-24.5 28t-19.5 28t-31 12.5q-26 0 -38.5 -20.5t-11.5 -55.5h-11q-2 49 22 71.5t62 22.5z" />
    <glyph glyph-name="uni0304" unicode="&#x304;" horiz-adv-x="0" 
d="M0 738v-12h-276v12h276z" />
    <glyph glyph-name="uni0306" unicode="&#x306;" horiz-adv-x="0" 
d="M-201 935q4 -39 31 -65t67 -26q42 0 67 26t29 65h7q-3 -29 -10.5 -54.5t-20.5 -44t-31 -29.5t-42 -11t-42 11t-31 29.5t-20.5 44t-10.5 54.5h7z" />
    <glyph glyph-name="uni0307" unicode="&#x307;" horiz-adv-x="0" 
d="M-96 861q0 23 15 36.5t37 13.5q23 0 38 -13.5t15 -36.5t-15 -37t-38 -14q-22 0 -37 14t-15 37z" />
    <glyph glyph-name="uni030A" unicode="&#x30a;" horiz-adv-x="0" 
d="M-205 838q0 44 29 71.5t74 27.5t73.5 -27.5t28.5 -71.5q0 -45 -28.5 -72t-73.5 -27t-74 28t-29 71zM-189 838q0 -38 24.5 -62.5t62.5 -24.5t62 24.5t24 62.5t-24 62.5t-62 24.5t-62.5 -24.5t-24.5 -62.5z" />
    <glyph glyph-name="uni030B" unicode="&#x30b;" horiz-adv-x="0" 
d="M-64 953h77l-208 -163h-3zM-201 953h63l-96 -163h-3z" />
    <glyph glyph-name="uni030C" unicode="&#x30c;" horiz-adv-x="0" 
d="M-30 961l-123 -166h-4l-122 166l2 2l122 -96l123 96z" />
    <glyph glyph-name="uni0312" unicode="&#x312;" horiz-adv-x="0" 
d="M-144 -128q0 46 22 71.5t62 27.5l1 -4q-47 -12 -49 -58q3 0 6 0.5t7 0.5q20 0 33 -12.5t13 -32.5q0 -19 -13 -32t-33 -13q-21 0 -35 13.5t-14 38.5z" />
    <glyph glyph-name="uni0326" unicode="&#x326;" horiz-adv-x="0" 
d="M-134 -105q0 19 13 32t33 13q21 0 35 -13.5t14 -38.5q0 -46 -22 -71.5t-62 -27.5l-1 4q47 12 49 58q-3 0 -6 -0.5t-7 -0.5q-20 0 -33 12.5t-13 32.5z" />
    <glyph glyph-name="uni0327" unicode="&#x327;" horiz-adv-x="0" 
d="M-175 -140l4 46q5 -24 21.5 -42.5t42.5 -18.5q11 0 21.5 8t10.5 28q0 10 -3.5 21.5t-11 20.5t-19.5 13.5t-29 1.5l10 62h16l-15 -48q18 4 35 2.5t30.5 -7.5t22 -17.5t8.5 -27.5q0 -33 -24 -51t-58 -18q-20 0 -37 8t-25 19z" />
    <glyph glyph-name="uni0328" unicode="&#x328;" horiz-adv-x="0" 
d="M-143 -118q0 20 11 38.5t28.5 34t38.5 27.5t41 20l7 -2q-31 -17 -54.5 -49t-23.5 -70q0 -26 11 -36t22 -10q20 0 40.5 24.5t31.5 77.5l-5 -89q-11 -8 -30.5 -17.5t-44.5 -9.5q-27 0 -50 15t-23 46z" />
    <glyph glyph-name="uni0335" unicode="&#x335;" horiz-adv-x="0" 
 />
    <glyph glyph-name="uni0336" unicode="&#x336;" horiz-adv-x="0" 
 />
    <glyph glyph-name="uni0337" unicode="&#x337;" horiz-adv-x="0" 
 />
    <glyph glyph-name="uni0338" unicode="&#x338;" horiz-adv-x="0" 
d="M0 563l-469 -569l-9 8l469 569z" />
    <glyph glyph-name="uni037E" unicode="&#x37e;" horiz-adv-x="253" 
d="M93 34q0 16 11 26.5t28 10.5t28 -11t11 -29q0 -45 -20 -72.5t-50 -39.5l-1 1q18 17 30 35.5t12 41.5q-3 -1 -10 -1q-17 0 -28 10.5t-11 27.5zM92 348q0 16 11 26.5t28 10.5t28 -10.5t11 -26.5q0 -17 -11 -27.5t-28 -10.5t-28 10.5t-11 27.5z" />
    <glyph glyph-name="tonos" unicode="&#x384;" horiz-adv-x="132" 
d="M-258 797h-3l48 168h74z" />
    <glyph glyph-name="dieresistonos" unicode="&#x385;" horiz-adv-x="320" 
d="M207 859q0 23 15 36.5t37 13.5q23 0 38 -13.5t15 -36.5t-15 -37t-38 -14q-22 0 -37 14t-15 37zM47 859q0 23 15 36.5t37 13.5q23 0 38 -13.5t15 -36.5t-15 -37t-38 -14q-22 0 -37 14t-15 37zM224 1122h74l-119 -168h-3z" />
    <glyph glyph-name="anoteleia" unicode="&#x387;" horiz-adv-x="273" 
d="M97 297q0 16 11 26.5t28 10.5t28 -10.5t11 -26.5q0 -17 -11 -27.5t-28 -10.5t-28 10.5t-11 27.5z" />
    <glyph glyph-name="uni1E04" unicode="&#x1e04;" horiz-adv-x="592" 
d="M96 88v519q0 22 -2.5 36.5t-8.5 24.5t-16.5 16.5t-26.5 10.5h228q118 0 187 -42.5t69 -122.5q0 -66 -50 -111t-139 -61q100 -12 156.5 -55.5t56.5 -112.5q0 -45 -18 -80t-51 -59.5t-80.5 -37.5t-106.5 -13h-252q32 9 43 27t11 61zM172 16h107q90 0 140 45t50 125
q0 78 -50.5 120.5t-135.5 42.5h-111v-333zM279 365q77 0 122.5 44t45.5 115q0 75 -49.5 115t-139.5 40h-86v-314h107zM304 -82q23 0 38 -13.5t15 -36.5t-15 -37t-38 -14q-22 0 -37 14t-15 37t15 36.5t37 13.5z" />
    <glyph glyph-name="uni1E05" unicode="&#x1e05;" horiz-adv-x="610" 
d="M37 745l99 12v-255q18 21 39 34.5t42.5 21t43 10t40.5 2.5q65 0 117.5 -19.5t89 -55t56.5 -85.5t20 -112q0 -63 -21.5 -118t-59.5 -96.5t-90.5 -65t-114.5 -23.5q-107 0 -178 69l-54 -66l-4 2v674q0 31 -5 45t-20 26zM305 12q47 0 84.5 18.5t63.5 51.5t40 78.5t14 98.5
q0 60 -14.5 113.5t-42.5 93.5t-70 63.5t-97 23.5q-37 0 -77 -14.5t-70 -55.5v-358q29 -56 70.5 -84.5t98.5 -28.5zM334 -82q23 0 38 -13.5t15 -36.5t-15 -37t-38 -14q-22 0 -37 14t-15 37t15 36.5t37 13.5z" />
    <glyph glyph-name="uni1E08" unicode="&#x1e08;" horiz-adv-x="675" 
d="M44 349q0 75 26.5 139.5t72 111.5t105.5 74t127 27q20 0 47.5 -3t58.5 -10.5t63 -19.5t61 -30l16 -231q-28 142 -95.5 210.5t-156.5 68.5q-50 0 -94 -21t-76.5 -63.5t-51 -106t-18.5 -147.5q0 -86 19.5 -150t53.5 -106t80 -62.5t99 -20.5q33 0 66.5 8.5t65 29t59.5 54
t49 84.5v-110q-19 -16 -44 -30.5t-54 -25t-61 -17.5t-66 -8l-13 -42q18 4 35.5 2.5t31 -7.5t21.5 -17.5t8 -27.5q0 -33 -24 -51t-58 -18q-20 0 -37 8t-25 19l4 46q5 -24 21.5 -42.5t42.5 -18.5q11 0 21.5 8t10.5 28q0 10 -3.5 21.5t-11 20.5t-19.5 13.5t-29 1.5l9 56
q-72 0 -133.5 27.5t-107 75t-71 112t-25.5 140.5zM438 928h74l-119 -168h-3z" />
    <glyph glyph-name="uni1E09" unicode="&#x1e09;" horiz-adv-x="572" 
d="M305 570q65 0 121.5 -22.5t99.5 -56.5l-33 -158q-6 63 -24 106t-43.5 69t-56.5 37t-63 11q-43 0 -78.5 -19.5t-61 -55.5t-40 -86t-14.5 -111q0 -62 15 -113t42 -87t64 -55.5t82 -19.5q76 0 133 57.5t85 166.5l-7 -167q-23 -21 -50.5 -34.5t-55.5 -21.5t-55.5 -11.5
t-50.5 -3.5h-13.5t-13.5 1l-14 -44q18 4 35.5 2.5t31 -7.5t21.5 -17.5t8 -27.5q0 -33 -24 -51t-58 -18q-20 0 -37 8t-25 19l4 46q5 -24 21.5 -42.5t42.5 -18.5q11 0 21.5 8t10.5 28q0 10 -3.5 21.5t-11 20.5t-19.5 13.5t-29 1.5l10 60q-53 7 -97 30t-76 60.5t-50 87
t-18 109.5q0 63 20 115t56 90t86.5 59t111.5 21zM360 801h74l-119 -168h-3z" />
    <glyph glyph-name="uni1E0C" unicode="&#x1e0c;" horiz-adv-x="718" 
d="M42 0q32 9 45 27.5t13 62.5v519q0 22 -2 36.5t-7 24t-15 15.5t-26 10h275q76 0 140 -24.5t110.5 -69t72.5 -108t26 -141.5t-26 -143t-72.5 -111.5t-110.5 -72t-140 -25.5h-283zM176 678v-661h145q58 0 107 20t84.5 61t55.5 104t20 148t-20 147t-55.5 102t-84.5 59.5
t-107 19.5h-145zM382 -82q23 0 38 -13.5t15 -36.5t-15 -37t-38 -14q-22 0 -37 14t-15 37t15 36.5t37 13.5z" />
    <glyph glyph-name="uni1E0D" unicode="&#x1e0d;" horiz-adv-x="601" 
d="M302 570q47 0 88 -14.5t74 -43.5v162q0 31 -5 45t-20 26l99 12v-659q0 -43 7 -63.5t21 -34.5l-98 -3v77q-31 -42 -75 -60.5t-89 -18.5q-63 0 -114.5 21t-87.5 57.5t-56 86.5t-20 108q0 67 20.5 122.5t57.5 95.5t87.5 62t110.5 22zM323 12q43 0 79 21.5t62 59.5v339
q-26 63 -69.5 92t-99.5 29q-45 0 -80.5 -17.5t-60 -49.5t-38 -77t-13.5 -100q0 -61 14.5 -115t43 -94.5t69.5 -64t93 -23.5zM202 -132q0 23 15 36.5t37 13.5q23 0 38 -13.5t15 -36.5t-15 -37t-38 -14q-22 0 -37 14t-15 37z" />
    <glyph glyph-name="uni1E0E" unicode="&#x1e0e;" horiz-adv-x="718" 
d="M42 0q32 9 45 27.5t13 62.5v519q0 22 -2 36.5t-7 24t-15 15.5t-26 10h275q76 0 140 -24.5t110.5 -69t72.5 -108t26 -141.5t-26 -143t-72.5 -111.5t-110.5 -72t-140 -25.5h-283zM321 17q58 0 107 20t84.5 61t55.5 104t20 148t-20 147t-55.5 102t-84.5 59.5t-107 19.5h-145
v-661h145zM451 -84v-16h-278v16h278z" />
    <glyph glyph-name="uni1E0F" unicode="&#x1e0f;" horiz-adv-x="601" 
d="M302 570q47 0 88 -14.5t74 -43.5v162q0 31 -5 45t-20 26l99 12v-659q0 -43 7 -63.5t21 -34.5l-98 -3v77q-31 -42 -75 -60.5t-89 -18.5q-63 0 -114.5 21t-87.5 57.5t-56 86.5t-20 108q0 67 20.5 122.5t57.5 95.5t87.5 62t110.5 22zM323 12q43 0 79 21.5t62 59.5v339
q-26 63 -69.5 92t-99.5 29q-45 0 -80.5 -17.5t-60 -49.5t-38 -77t-13.5 -100q0 -61 14.5 -115t43 -94.5t69.5 -64t93 -23.5zM394 -110v-16h-278v16h278z" />
    <glyph glyph-name="uni1E14" unicode="&#x1e14;" horiz-adv-x="582" 
d="M42 0q32 9 45 27.5t13 62.5v519q0 22 -2 36.5t-7 24t-15 15.5t-26 10h447l21 -183q-12 52 -34 84.5t-50.5 50.5t-62 24.5t-70.5 6.5h-125v-296h81q51 0 83.5 6t52 18t28.5 29t14 39l-14 -203q-1 22 -7.5 39.5t-24 29.5t-49.5 18.5t-85 6.5h-79v-348h153q37 0 69 7.5
t58.5 28.5t47 58t32.5 96l-18 -207h-476zM180 1069h74l48 -168h-3zM439 821v-16h-278v16h278z" />
    <glyph glyph-name="uni1E15" unicode="&#x1e15;" horiz-adv-x="578" 
d="M300 570q60 0 104.5 -17t73.5 -48t43.5 -73t15.5 -92h-421q-2 -15 -3 -30.5t-1 -31.5q0 -57 15.5 -106.5t43 -85.5t65.5 -56.5t83 -20.5q40 0 72.5 14.5t59.5 41.5t48.5 64.5t37.5 82.5l-9 -145q-44 -37 -100 -54.5t-109 -17.5q-63 0 -116 20.5t-91.5 57.5t-59.5 90
t-21 117q0 63 18.5 116t53.5 92t84.5 60.5t112.5 21.5zM118 352h341q-1 44 -12 81t-31 65t-49.5 43.5t-67.5 15.5q-36 0 -66 -15t-53.5 -42.5t-39 -65t-22.5 -82.5zM260 905l48 -168h-3l-119 168h74zM443 677v-12h-276v12h276z" />
    <glyph glyph-name="uni1E16" unicode="&#x1e16;" horiz-adv-x="582" 
d="M42 0q32 9 45 27.5t13 62.5v519q0 22 -2 36.5t-7 24t-15 15.5t-26 10h447l21 -183q-12 52 -34 84.5t-50.5 50.5t-62 24.5t-70.5 6.5h-125v-296h81q51 0 83.5 6t52 18t28.5 29t14 39l-14 -203q-1 22 -7.5 39.5t-24 29.5t-49.5 18.5t-85 6.5h-79v-348h153q37 0 69 7.5
t58.5 28.5t47 58t32.5 96l-18 -207h-476zM346 1069h74l-119 -168h-3zM439 821v-16h-278v16h278z" />
    <glyph glyph-name="uni1E17" unicode="&#x1e17;" horiz-adv-x="578" 
d="M300 570q60 0 104.5 -17t73.5 -48t43.5 -73t15.5 -92h-421q-2 -15 -3 -30.5t-1 -31.5q0 -57 15.5 -106.5t43 -85.5t65.5 -56.5t83 -20.5q40 0 72.5 14.5t59.5 41.5t48.5 64.5t37.5 82.5l-9 -145q-44 -37 -100 -54.5t-109 -17.5q-63 0 -116 20.5t-91.5 57.5t-59.5 90
t-21 117q0 63 18.5 116t53.5 92t84.5 60.5t112.5 21.5zM118 352h341q-1 44 -12 81t-31 65t-49.5 43.5t-67.5 15.5q-36 0 -66 -15t-53.5 -42.5t-39 -65t-22.5 -82.5zM350 905h74l-119 -168h-3zM167 677h276v-12h-276v12z" />
    <glyph glyph-name="uni1E1C" unicode="&#x1e1c;" horiz-adv-x="582" 
d="M42 0q32 9 45 27.5t13 62.5v519q0 22 -2 36.5t-7 24t-15 15.5t-26 10h447l21 -183q-12 52 -34 84.5t-50.5 50.5t-62 24.5t-70.5 6.5h-125v-296h81q51 0 83.5 6t52 18t28.5 29t14 39l-14 -203q-1 22 -7.5 39.5t-24 29.5t-49.5 18.5t-85 6.5h-79v-348h153q37 0 69 7.5
t58.5 28.5t47 58t32.5 96l-18 -207h-212l-15 -48q18 4 35.5 2.5t31 -7.5t21.5 -17.5t8 -27.5q0 -33 -24 -51t-58 -18q-20 0 -37 8t-25 19l4 46q5 -24 21.5 -42.5t42.5 -18.5q11 0 21.5 8t10.5 28q0 10 -3.5 21.5t-11 20.5t-19.5 13.5t-29 1.5l10 62h-248zM204 908
q4 -39 31 -65t67 -26q42 0 67 26t29 65h7q-3 -29 -10.5 -54.5t-20.5 -44t-31 -29.5t-42 -11t-42 11t-31 29.5t-20.5 44t-10.5 54.5h7z" />
    <glyph glyph-name="uni1E1D" unicode="&#x1e1d;" horiz-adv-x="578" 
d="M31 280q0 63 18.5 116t53.5 92t84.5 60.5t112.5 21.5q60 0 104.5 -17t73.5 -48t43.5 -73t15.5 -92h-421q-2 -15 -3 -30.5t-1 -31.5q0 -57 15.5 -106.5t43 -85.5t65.5 -56.5t83 -20.5q40 0 72.5 14.5t59.5 41.5t48.5 64.5t37.5 82.5l-9 -145q-43 -36 -98.5 -53.5
t-108.5 -18.5l-13 -43q18 4 35.5 2.5t31 -7.5t21.5 -17.5t8 -27.5q0 -33 -24 -51t-58 -18q-20 0 -37 8t-25 19l4 46q5 -24 21.5 -42.5t42.5 -18.5q11 0 21.5 8t10.5 28q0 10 -3.5 21.5t-11 20.5t-19.5 13.5t-29 1.5l9 57q-61 2 -111.5 23.5t-87 58.5t-56.5 88.5t-20 114.5z
M118 352h341q-1 44 -12 81t-31 65t-49.5 43.5t-67.5 15.5q-36 0 -66 -15t-53.5 -42.5t-39 -65t-22.5 -82.5zM201 805h7q4 -39 31 -65t67 -26q42 0 67 26t29 65h7q-3 -29 -10.5 -54.5t-20.5 -44t-31 -29.5t-42 -11t-42 11t-31 29.5t-20.5 44t-10.5 54.5z" />
    <glyph glyph-name="uni1E20" unicode="&#x1e20;" horiz-adv-x="715" 
d="M374 701q27 0 57.5 -4t61.5 -12t60.5 -21t52.5 -30l14 -189q-28 114 -94.5 177.5t-156.5 63.5q-50 0 -94 -21t-76.5 -63.5t-51 -106t-18.5 -147.5q0 -86 19 -150t52.5 -106t79.5 -62.5t100 -20.5q20 0 44 4t49 14.5t50 28.5t47 46v208h-25h-32t-44 -0.5t-44 -1t-33 -2.5
l2 25q10 -1 20.5 -2t25.5 -1.5t36.5 -0.5h53.5h116v-330l-73 71q-41 -37 -91.5 -55.5t-102.5 -18.5q-70 0 -131 27t-106.5 74.5t-71.5 112.5t-26 140q0 74 24.5 138.5t68 112t104 75t133.5 27.5zM510 821v-16h-278v16h278z" />
    <glyph glyph-name="uni1E21" unicode="&#x1e21;" horiz-adv-x="564" 
d="M204 70q-72 6 -102 29.5t-30 58.5q0 19 8.5 32.5t23 22.5t33.5 13t39 4h14q-56 20 -88 62t-32 100q0 39 15 71t43 55t66.5 36t84.5 13q39 0 72.5 -9t59.5 -26q7 54 36.5 83.5t64.5 29.5q23 0 37.5 -11.5t14.5 -31.5q0 -18 -12.5 -30t-31.5 -12q-11 0 -20 3.5t-17 8
t-15.5 8t-15.5 3.5q-13 0 -21 -12.5t-12 -44.5q32 -23 50 -57.5t18 -76.5q0 -39 -15 -71.5t-42.5 -56t-66 -36.5t-84.5 -13q-22 0 -43 3q-12 1 -21 1.5t-17 0.5q-38 0 -60 -10.5t-22 -29.5q0 -15 12 -24t27.5 -14t30.5 -7l118 -15q58 -7 104 -15.5t78.5 -22t49.5 -35.5
t17 -57q0 -37 -19.5 -67t-55 -51t-85.5 -32.5t-112 -11.5q-52 0 -102 8.5t-89.5 25.5t-63.5 42t-24 59q0 49 48 75.5t154 31.5zM282 -159q54 0 96 9t71.5 25t44.5 36t15 43q0 34 -28 54.5t-68.5 31.5t-84 14.5t-75.5 3.5q-55 0 -91.5 -6.5t-58 -19t-30 -31t-8.5 -41.5
q0 -56 57.5 -87.5t159.5 -31.5zM142 404q0 -32 10 -63.5t28.5 -56t45 -40t59.5 -15.5q28 0 52 11t41.5 30.5t27.5 47.5t10 61t-10 64.5t-28.5 55.5t-45 39t-59.5 15q-29 0 -53 -11t-41.5 -31t-27 -47.5t-9.5 -59.5zM397 677v-12h-276v12h276z" />
    <glyph glyph-name="uni1E24" unicode="&#x1e24;" horiz-adv-x="756" 
d="M42 695h183q-16 -5 -26 -11.5t-16 -19.5t-8.5 -33.5t-2.5 -53.5v-185h413v185q0 33 -2.5 54t-8.5 33.5t-16.5 19.5t-26.5 11h183q-16 -5 -26 -11.5t-16 -19.5t-8.5 -33.5t-2.5 -53.5v-459q0 -33 2.5 -53.5t8.5 -33t16 -19.5t26 -12h-183q16 5 26.5 11.5t16.5 19t8.5 33.5
t2.5 54v257h-413v-257q0 -33 2.5 -53.5t8.5 -33t16 -19.5t26 -12h-183q16 5 26.5 11.5t16.5 19t8.5 33.5t2.5 54v459q0 33 -2.5 54t-8.5 33.5t-16.5 19.5t-26.5 11zM325 -132q0 23 15 36.5t37 13.5q23 0 38 -13.5t15 -36.5t-15 -37t-38 -14q-22 0 -37 14t-15 37z" />
    <glyph glyph-name="uni1E25" unicode="&#x1e25;" horiz-adv-x="647" 
d="M79 87v587q0 31 -5 45t-20 26l99 12v-345q25 73 80 115.5t140 42.5q48 0 85 -13.5t62.5 -38.5t39 -59.5t13.5 -75.5v-296q0 -21 2.5 -35.5t8.5 -24.5t16 -16t25 -11h-178q16 5 26 11t16 15.5t8 24.5t2 36v306q0 75 -36 117.5t-105 42.5q-39 0 -75 -14.5t-64 -42.5
t-45.5 -69t-20.5 -94v-246q0 -21 2.5 -35.5t8.5 -24.5t16 -16t25 -11h-178q16 5 26 11t16 15.5t8 24.5t2 36zM330 -82q23 0 38 -13.5t15 -36.5t-15 -37t-38 -14q-22 0 -37 14t-15 37t15 36.5t37 13.5z" />
    <glyph glyph-name="uni1E2A" unicode="&#x1e2a;" horiz-adv-x="756" 
d="M42 695h183q-16 -5 -26 -11.5t-16 -19.5t-8.5 -33.5t-2.5 -53.5v-185h413v185q0 33 -2.5 54t-8.5 33.5t-16.5 19.5t-26.5 11h183q-16 -5 -26 -11.5t-16 -19.5t-8.5 -33.5t-2.5 -53.5v-459q0 -33 2.5 -53.5t8.5 -33t16 -19.5t26 -12h-183q16 5 26.5 11.5t16.5 19t8.5 33.5
t2.5 54v257h-413v-257q0 -33 2.5 -53.5t8.5 -33t16 -19.5t26 -12h-183q16 5 26.5 11.5t16.5 19t8.5 33.5t2.5 54v459q0 33 -2.5 54t-8.5 33.5t-16.5 19.5t-26.5 11zM281 -60q4 -39 31 -65t67 -26q42 0 67 26t29 65h7q-3 -29 -10.5 -54.5t-20.5 -44t-31 -29.5t-42 -11t-42 11
t-31 29.5t-20.5 44t-10.5 54.5h7z" />
    <glyph glyph-name="uni1E2B" unicode="&#x1e2b;" horiz-adv-x="647" 
d="M27 0q16 5 26 11t16 15.5t8 24.5t2 36v587q0 31 -5 45t-20 26l99 12v-345q25 73 80 115.5t140 42.5q48 0 85 -13.5t62.5 -38.5t39 -59.5t13.5 -75.5v-296q0 -21 2.5 -35.5t8.5 -24.5t16 -16t25 -11h-178q16 5 26 11t16 15.5t8 24.5t2 36v306q0 75 -36 117.5t-105 42.5
q-39 0 -75 -14.5t-64 -42.5t-45.5 -69t-20.5 -94v-246q0 -21 2.5 -35.5t8.5 -24.5t16 -16t25 -11h-178zM234 -60q4 -39 31 -65t67 -26q42 0 67 26t29 65h7q-3 -29 -10.5 -54.5t-20.5 -44t-31 -29.5t-42 -11t-42 11t-31 29.5t-20.5 44t-10.5 54.5h7z" />
    <glyph glyph-name="uni1E2E" unicode="&#x1e2e;" horiz-adv-x="267" 
d="M42 0q16 5 26.5 11.5t16.5 19t8.5 33.5t2.5 54v459q0 33 -2.5 54t-8.5 33.5t-16.5 19.5t-26.5 11h183q-16 -5 -26 -11.5t-16 -19.5t-8.5 -33.5t-2.5 -53.5v-459q0 -33 2.5 -53.5t8.5 -33t16 -19.5t26 -12h-183zM1 834q0 23 15 36.5t37 13.5q23 0 38 -13.5t15 -36.5
t-15 -37t-38 -14q-22 0 -37 14t-15 37zM213 884q23 0 38 -13.5t15 -36.5t-15 -37t-38 -14q-22 0 -37 14t-15 37t15 36.5t37 13.5zM180 1076h74l-119 -168h-3z" />
    <glyph glyph-name="uni1E2F" unicode="&#x1e2f;" horiz-adv-x="232" 
d="M80 87v369q0 21 -1.5 36.5t-4.5 27.5t-8.5 22t-13.5 20l102 9v-484q0 -21 2.5 -35.5t8.5 -24.5t16 -16t25 -11h-178q16 5 26 11t16 15.5t8 24.5t2 36zM35 742q23 0 38 -13.5t15 -36.5t-15 -37t-38 -14q-22 0 -37 14t-15 37t15 36.5t37 13.5zM195 742q23 0 38 -13.5
t15 -36.5t-15 -37t-38 -14q-22 0 -37 14t-15 37t15 36.5t37 13.5zM160 955h74l-119 -168h-3z" />
    <glyph glyph-name="uni1E36" unicode="&#x1e36;" horiz-adv-x="541" 
d="M226 695q-16 -5 -26 -11.5t-16 -16t-9 -24.5t-3 -36v-590h169q37 0 62.5 7t44 25.5t32 51t25.5 84.5l-20 -185h-443q32 9 43 27t11 61v519q0 22 -2.5 36.5t-8.5 24.5t-16.5 16.5t-26.5 10.5h184zM264 -82q23 0 38 -13.5t15 -36.5t-15 -37t-38 -14q-22 0 -37 14t-15 37
t15 36.5t37 13.5z" />
    <glyph glyph-name="uni1E37" unicode="&#x1e37;" horiz-adv-x="231" 
d="M27 0q16 5 26 11t16 15.5t8 24.5t2 36v587q0 31 -5 45t-20 26l99 12v-670q0 -21 2.5 -35.5t8.5 -24.5t16 -16t25 -11h-178zM114 -82q23 0 38 -13.5t15 -36.5t-15 -37t-38 -14q-22 0 -37 14t-15 37t15 36.5t37 13.5z" />
    <glyph glyph-name="uni1E3A" unicode="&#x1e3a;" horiz-adv-x="541" 
d="M42 0q32 9 43 27t11 61v519q0 22 -2.5 36.5t-8.5 24.5t-16.5 16.5t-26.5 10.5h184q-16 -5 -26 -11.5t-16 -16t-9 -24.5t-3 -36v-590h169q37 0 62.5 7t44 25.5t32 51t25.5 84.5l-20 -185h-443zM450 -134v-16h-278v16h278z" />
    <glyph glyph-name="uni1E3B" unicode="&#x1e3b;" horiz-adv-x="231" 
d="M27 0q16 5 26 11t16 15.5t8 24.5t2 36v587q0 31 -5 45t-20 26l99 12v-670q0 -21 2.5 -35.5t8.5 -24.5t16 -16t25 -11h-178zM-24 -110h278v-16h-278v16z" />
    <glyph glyph-name="uni1E3E" unicode="&#x1e3e;" horiz-adv-x="863" 
d="M96 88v519q0 22 -2.5 36.5t-8.5 24.5t-16.5 16.5t-26.5 10.5h96l301 -606l262 606h120q-31 -10 -42.5 -27.5t-11.5 -60.5v-519q0 -43 11.5 -60.5t42.5 -27.5h-183q32 9 43 27t11 61v539l-275 -627h-12l-292 588v-500q0 -43 11.5 -60.5t42.5 -27.5h-125q32 9 43 27t11 61z
M463 760l48 168h74l-119 -168h-3z" />
    <glyph glyph-name="uni1E3F" unicode="&#x1e3f;" horiz-adv-x="1045" 
d="M80 87v369q0 21 -1.5 36.5t-4.5 27.5t-8.5 22t-13.5 20l102 9v-158q24 73 77.5 115t132.5 42q87 0 138 -44.5t59 -116.5q23 75 76.5 118t134.5 43q47 0 84 -13.5t62.5 -38.5t39 -59.5t13.5 -75.5v-296q0 -21 2.5 -35.5t8.5 -24.5t16 -16t25 -11h-178q16 5 26 11t16 15.5
t8 24.5t2 36v306q0 75 -35.5 118.5t-104.5 43.5q-36 0 -69.5 -15t-60.5 -43.5t-44.5 -69.5t-20.5 -94v-246q0 -21 2.5 -35.5t8.5 -24.5t16 -16t25 -11h-178q16 5 26 11t16 15.5t8 24.5t2 36v306q0 75 -35.5 118.5t-103.5 43.5q-36 0 -69.5 -15t-60.5 -43.5t-44.5 -69.5
t-20.5 -94v-246q0 -21 2.5 -35.5t8.5 -24.5t16 -16t25 -11h-178q16 5 26 11t16 15.5t8 24.5t2 36zM571 801h74l-119 -168h-3z" />
    <glyph glyph-name="uni1E42" unicode="&#x1e42;" horiz-adv-x="863" 
d="M96 88v519q0 22 -2.5 36.5t-8.5 24.5t-16.5 16.5t-26.5 10.5h96l301 -606l262 606h120q-31 -10 -42.5 -27.5t-11.5 -60.5v-519q0 -43 11.5 -60.5t42.5 -27.5h-183q32 9 43 27t11 61v539l-275 -627h-12l-292 588v-500q0 -43 11.5 -60.5t42.5 -27.5h-125q32 9 43 27t11 61z
M404 -132q0 23 15 36.5t37 13.5q23 0 38 -13.5t15 -36.5t-15 -37t-38 -14q-22 0 -37 14t-15 37z" />
    <glyph glyph-name="uni1E43" unicode="&#x1e43;" horiz-adv-x="1045" 
d="M80 87v369q0 21 -1.5 36.5t-4.5 27.5t-8.5 22t-13.5 20l102 9v-158q24 73 77.5 115t132.5 42q87 0 138 -44.5t59 -116.5q23 75 76.5 118t134.5 43q47 0 84 -13.5t62.5 -38.5t39 -59.5t13.5 -75.5v-296q0 -21 2.5 -35.5t8.5 -24.5t16 -16t25 -11h-178q16 5 26 11t16 15.5
t8 24.5t2 36v306q0 75 -35.5 118.5t-104.5 43.5q-36 0 -69.5 -15t-60.5 -43.5t-44.5 -69.5t-20.5 -94v-246q0 -21 2.5 -35.5t8.5 -24.5t16 -16t25 -11h-178q16 5 26 11t16 15.5t8 24.5t2 36v306q0 75 -35.5 118.5t-103.5 43.5q-36 0 -69.5 -15t-60.5 -43.5t-44.5 -69.5
t-20.5 -94v-246q0 -21 2.5 -35.5t8.5 -24.5t16 -16t25 -11h-178q16 5 26 11t16 15.5t8 24.5t2 36zM473 -132q0 23 15 36.5t37 13.5q23 0 38 -13.5t15 -36.5t-15 -37t-38 -14q-22 0 -37 14t-15 37z" />
    <glyph glyph-name="uni1E44" unicode="&#x1e44;" horiz-adv-x="742" 
d="M96 88v519q0 22 -2.5 36.5t-8.5 24.5t-16.5 16.5t-26.5 10.5h96l494 -574v486q0 22 -2.5 36.5t-8.5 24.5t-16.5 16.5t-26.5 10.5h125q-31 -10 -42.5 -27.5t-11.5 -60.5v-607h-7l-529 615v-527q0 -43 11.5 -60.5t42.5 -27.5h-125q32 9 43 27t11 61zM386 884q23 0 38 -13.5
t15 -36.5t-15 -37t-38 -14q-22 0 -37 14t-15 37t15 36.5t37 13.5z" />
    <glyph glyph-name="uni1E45" unicode="&#x1e45;" horiz-adv-x="648" 
d="M28 0q16 5 26 11t16 15.5t8 24.5t2 36v369q0 21 -1.5 36.5t-4.5 27.5t-8.5 22t-13.5 20l102 9v-159q25 73 80 115.5t140 42.5q48 0 85 -13.5t62.5 -38.5t39 -59.5t13.5 -75.5v-296q0 -21 2.5 -35.5t8.5 -24.5t16 -16t25 -11h-178q16 5 26 11t16 15.5t8 24.5t2 36v306
q0 75 -36 117.5t-105 42.5q-39 0 -75 -14.5t-64 -42.5t-45.5 -69t-20.5 -94v-246q0 -21 2.5 -35.5t8.5 -24.5t16 -16t25 -11h-178zM289 694q0 23 15 36.5t37 13.5q23 0 38 -13.5t15 -36.5t-15 -37t-38 -14q-22 0 -37 14t-15 37z" />
    </font>
</defs>
</svg>
